<svg width="121" height="41" viewBox="0 0 121 41" fill="none" xmlns="http://www.w3.org/2000/svg">
<rect x="0.500755" y="1.25076" width="119.18" height="39.0589" rx="5.50831" fill="#131313"/>
<path d="M81.6485 19.9799V22.2743H80.2103V23.7791H81.6485V28.8917C81.6485 30.6375 82.4383 31.3359 84.4252 31.3359C84.7743 31.3359 85.1069 31.2943 85.3978 31.2444V29.7563C85.1484 29.7813 84.9905 29.7979 84.7161 29.7979C83.8266 29.7979 83.4359 29.3822 83.4359 28.4345V23.7791H85.3978V22.2743H83.4359V19.9799H81.6485Z" fill="white"/>
<path d="M90.4593 31.4606C93.103 31.4606 94.724 29.6898 94.724 26.7552C94.724 23.8372 93.0946 22.0582 90.4593 22.0582C87.8157 22.0582 86.1863 23.8372 86.1863 26.7552C86.1863 29.6898 87.8074 31.4606 90.4593 31.4606ZM90.4593 29.8727C88.9047 29.8727 88.0318 28.7338 88.0318 26.7552C88.0318 24.7933 88.9047 23.646 90.4593 23.646C92.0056 23.646 92.8868 24.7933 92.8868 26.7552C92.8868 28.7255 92.0056 29.8727 90.4593 29.8727Z" fill="white"/>
<path d="M96.111 31.286H97.8984V25.9405C97.8984 24.6686 98.8544 23.8123 100.21 23.8123C100.525 23.8123 101.057 23.8705 101.207 23.9204V22.158C101.016 22.1081 100.675 22.0831 100.409 22.0831C99.2285 22.0831 98.2226 22.7316 97.9649 23.6211H97.8319V22.2328H96.111V31.286Z" fill="white"/>
<path d="M105.645 23.5795C106.967 23.5795 107.831 24.5023 107.873 25.9239H103.301C103.4 24.5106 104.323 23.5795 105.645 23.5795ZM107.865 28.8419C107.532 29.5485 106.792 29.9392 105.712 29.9392C104.282 29.9392 103.359 28.9333 103.301 27.3455V27.2457H109.694V26.6222C109.694 23.7791 108.172 22.0582 105.653 22.0582C103.101 22.0582 101.48 23.8954 101.48 26.7885C101.48 29.6815 103.068 31.4606 105.662 31.4606C107.732 31.4606 109.178 30.463 109.586 28.8419H107.865Z" fill="white"/>
<path d="M69.9273 27.9428C70.0651 30.1658 71.9177 31.5876 74.675 31.5876C77.6218 31.5876 79.4657 30.0969 79.4657 27.7187C79.4657 25.849 78.4145 24.815 75.864 24.2204L74.494 23.8844C72.8741 23.5053 72.2193 22.9969 72.2193 22.1094C72.2193 20.9893 73.236 20.2569 74.7611 20.2569C76.2087 20.2569 77.2082 20.972 77.3892 22.118H79.2676C79.1556 20.0242 77.3116 18.5508 74.787 18.5508C72.0728 18.5508 70.2633 20.0242 70.2633 22.2386C70.2633 24.0653 71.2887 25.151 73.5376 25.6766L75.1403 26.0644C76.786 26.4521 77.5098 27.0208 77.5098 27.9686C77.5098 29.0715 76.3724 29.8729 74.8214 29.8729C73.1585 29.8729 72.0038 29.1232 71.8401 27.9428H69.9273Z" fill="white"/>
<path d="M51.412 22.0831C50.1816 22.0831 49.1175 22.6983 48.5689 23.7292H48.4359V22.2328H46.715V34.2954H48.5024V29.9143H48.6437C49.1175 30.8703 50.1401 31.4356 51.4286 31.4356C53.7148 31.4356 55.1696 29.6316 55.1696 26.7552C55.1696 23.8788 53.7148 22.0831 51.412 22.0831ZM50.9049 29.8312C49.4085 29.8312 48.4691 28.6507 48.4691 26.7635C48.4691 24.8681 49.4085 23.6876 50.9132 23.6876C52.4262 23.6876 53.3324 24.8432 53.3324 26.7552C53.3324 28.6756 52.4262 29.8312 50.9049 29.8312Z" fill="white"/>
<path d="M61.4239 22.0831C60.1935 22.0831 59.1294 22.6983 58.5808 23.7292H58.4477V22.2328H56.7269V34.2954H58.5143V29.9143H58.6556C59.1294 30.8703 60.152 31.4356 61.4405 31.4356C63.7267 31.4356 65.1815 29.6316 65.1815 26.7552C65.1815 23.8788 63.7267 22.0831 61.4239 22.0831ZM60.9168 29.8312C59.4204 29.8312 58.481 28.6507 58.481 26.7635C58.481 24.8681 59.4204 23.6876 60.9251 23.6876C62.4381 23.6876 63.3443 24.8432 63.3443 26.7552C63.3443 28.6756 62.4381 29.8312 60.9168 29.8312Z" fill="white"/>
<path d="M43.5082 31.286H45.5589L41.0697 18.8524H38.9931L34.5039 31.286H36.4857L37.6317 27.9859H42.3708L43.5082 31.286ZM39.9323 21.1099H40.0788L41.8796 26.366H38.1228L39.9323 21.1099Z" fill="white"/>
<path d="M35.7051 9.47383V15.4719H37.8707C39.6581 15.4719 40.6931 14.3704 40.6931 12.4542C40.6931 10.567 39.6497 9.47383 37.8707 9.47383H35.7051ZM36.6362 10.3218H37.7668C39.0096 10.3218 39.7453 11.1116 39.7453 12.4666C39.7453 13.8425 39.0221 14.6239 37.7668 14.6239H36.6362V10.3218Z" fill="white"/>
<path d="M43.8629 15.5592C45.1848 15.5592 45.9953 14.6738 45.9953 13.2065C45.9953 11.7475 45.1806 10.858 43.8629 10.858C42.5411 10.858 41.7264 11.7475 41.7264 13.2065C41.7264 14.6738 42.537 15.5592 43.8629 15.5592ZM43.8629 14.7653C43.0856 14.7653 42.6492 14.1958 42.6492 13.2065C42.6492 12.2255 43.0856 11.6519 43.8629 11.6519C44.6361 11.6519 45.0767 12.2255 45.0767 13.2065C45.0767 14.1916 44.6361 14.7653 43.8629 14.7653Z" fill="white"/>
<path d="M52.8978 10.9453H52.0042L51.1978 14.3995H51.1271L50.196 10.9453H49.3397L48.4087 14.3995H48.3422L47.5316 10.9453H46.6255L47.8724 15.4719H48.7911L49.7222 12.1383H49.7928L50.7281 15.4719H51.655L52.8978 10.9453Z" fill="white"/>
<path d="M53.927 15.4719H54.8207V12.8241C54.8207 12.1175 55.2405 11.6769 55.9014 11.6769C56.5624 11.6769 56.8783 12.0385 56.8783 12.7659V15.4719H57.7719V12.5414C57.7719 11.4649 57.215 10.858 56.2049 10.858C55.5232 10.858 55.0743 11.1614 54.854 11.6644H54.7875V10.9453H53.927V15.4719Z" fill="white"/>
<path d="M59.1794 15.4719H60.0731V9.17871H59.1794V15.4719Z" fill="white"/>
<path d="M63.4341 15.5592C64.756 15.5592 65.5665 14.6738 65.5665 13.2065C65.5665 11.7475 64.7518 10.858 63.4341 10.858C62.1123 10.858 61.2976 11.7475 61.2976 13.2065C61.2976 14.6738 62.1082 15.5592 63.4341 15.5592ZM63.4341 14.7653C62.6569 14.7653 62.2204 14.1958 62.2204 13.2065C62.2204 12.2255 62.6569 11.6519 63.4341 11.6519C64.2073 11.6519 64.6479 12.2255 64.6479 13.2065C64.6479 14.1916 64.2073 14.7653 63.4341 14.7653Z" fill="white"/>
<path d="M68.2293 14.7944C67.7429 14.7944 67.3896 14.5574 67.3896 14.1501C67.3896 13.751 67.6723 13.539 68.2958 13.4975L69.4014 13.4268V13.8051C69.4014 14.3662 68.9026 14.7944 68.2293 14.7944ZM68.0006 15.5467C68.5951 15.5467 69.0897 15.289 69.3599 14.8359H69.4305V15.4719H70.291V12.3793C70.291 11.4233 69.6508 10.858 68.5161 10.858C67.4894 10.858 66.7578 11.3568 66.6664 12.1341H67.5309C67.6307 11.814 67.9757 11.6311 68.4745 11.6311C69.0855 11.6311 69.4014 11.9013 69.4014 12.3793V12.7701L68.1752 12.8407C67.0987 12.9072 66.4918 13.3769 66.4918 14.1916C66.4918 15.0188 67.1277 15.5467 68.0006 15.5467Z" fill="white"/>
<path d="M73.3237 15.5467C73.9472 15.5467 74.4751 15.2516 74.7452 14.7569H74.8159V15.4719H75.6722V9.17871H74.7785V11.6644H74.712C74.4667 11.1656 73.943 10.8705 73.3237 10.8705C72.1806 10.8705 71.4449 11.7766 71.4449 13.2065C71.4449 14.6406 72.1723 15.5467 73.3237 15.5467ZM73.5772 11.6727C74.3254 11.6727 74.7951 12.2671 74.7951 13.2107C74.7951 14.1584 74.3296 14.7445 73.5772 14.7445C72.8207 14.7445 72.3676 14.1667 72.3676 13.2065C72.3676 12.2546 72.8249 11.6727 73.5772 11.6727Z" fill="white"/>
<path d="M81.4674 15.5592C82.7892 15.5592 83.5998 14.6738 83.5998 13.2065C83.5998 11.7475 82.7851 10.858 81.4674 10.858C80.1456 10.858 79.3309 11.7475 79.3309 13.2065C79.3309 14.6738 80.1414 15.5592 81.4674 15.5592ZM81.4674 14.7653C80.6901 14.7653 80.2536 14.1958 80.2536 13.2065C80.2536 12.2255 80.6901 11.6519 81.4674 11.6519C82.2405 11.6519 82.6811 12.2255 82.6811 13.2065C82.6811 14.1916 82.2405 14.7653 81.4674 14.7653Z" fill="white"/>
<path d="M84.7827 15.4719H85.6764V12.8241C85.6764 12.1175 86.0962 11.6769 86.7572 11.6769C87.4181 11.6769 87.734 12.0385 87.734 12.7659V15.4719H88.6277V12.5414C88.6277 11.4649 88.0707 10.858 87.0606 10.858C86.3789 10.858 85.93 11.1614 85.7097 11.6644H85.6432V10.9453H84.7827V15.4719Z" fill="white"/>
<path d="M92.7436 9.81884V10.9661H92.0245V11.7184H92.7436V14.2748C92.7436 15.1477 93.1385 15.4968 94.1319 15.4968C94.3065 15.4968 94.4727 15.476 94.6182 15.4511V14.7071C94.4935 14.7195 94.4146 14.7278 94.2774 14.7278C93.8326 14.7278 93.6373 14.52 93.6373 14.0462V11.7184H94.6182V10.9661H93.6373V9.81884H92.7436Z" fill="white"/>
<path d="M95.8178 15.4719H96.7115V12.8283C96.7115 12.1424 97.1189 11.681 97.8504 11.681C98.4823 11.681 98.8189 12.0468 98.8189 12.7701V15.4719H99.7126V12.5498C99.7126 11.4732 99.1182 10.8622 98.1539 10.8622C97.4722 10.8622 96.9942 11.1656 96.7739 11.6727H96.7032V9.17871H95.8178V15.4719Z" fill="white"/>
<path d="M102.937 11.6187C103.597 11.6187 104.03 12.0801 104.051 12.7908H101.764C101.814 12.0842 102.276 11.6187 102.937 11.6187ZM104.046 14.2498C103.88 14.6031 103.51 14.7985 102.97 14.7985C102.255 14.7985 101.793 14.2956 101.764 13.5016V13.4518H104.961V13.14C104.961 11.7184 104.2 10.858 102.941 10.858C101.665 10.858 100.854 11.7766 100.854 13.2231C100.854 14.6697 101.648 15.5592 102.945 15.5592C103.98 15.5592 104.703 15.0604 104.907 14.2498H104.046Z" fill="white"/>
<path d="M24.806 21.0817C24.8277 19.3982 25.7318 17.8052 27.1661 16.9234C26.2613 15.6311 24.7457 14.8118 23.1689 14.7625C21.4871 14.5859 19.8567 15.7688 18.9997 15.7688C18.1261 15.7688 16.8067 14.78 15.3858 14.8092C13.5337 14.8691 11.8072 15.922 10.9061 17.5412C8.96919 20.8947 10.414 25.8232 12.2694 28.5339C13.1977 29.8612 14.2826 31.3439 15.7022 31.2913C17.0913 31.2337 17.6101 30.4055 19.287 30.4055C20.9482 30.4055 21.435 31.2913 22.8834 31.2579C24.374 31.2337 25.3132 29.9246 26.2089 28.5847C26.8759 27.6389 27.3891 26.5936 27.7296 25.4875C25.9779 24.7466 24.808 22.9837 24.806 21.0817Z" fill="white"/>
<path d="M22.0702 12.9798C22.8829 12.0041 23.2834 10.75 23.1864 9.48389C21.9447 9.6143 20.7977 10.2078 19.974 11.146C19.1685 12.0627 18.7493 13.2947 18.8285 14.5125C20.0707 14.5253 21.2918 13.9479 22.0702 12.9798Z" fill="white"/>
<rect x="0.500755" y="1.25076" width="119.18" height="39.0589" rx="5.50831" stroke="#656B6B" stroke-width="1.00151"/>
</svg>
