<svg width="24" height="24" viewBox="0 0 24 24" fill="none" xmlns="http://www.w3.org/2000/svg">
<path fill-rule="evenodd" clip-rule="evenodd" d="M5.29933 10.7215C5.47922 10.9013 5.73907 11.0112 6.00891 11.0112L5.98793 10.9902C6.24777 10.9902 6.50762 10.8804 6.69751 10.7006H6.7075C7.09727 10.311 7.09727 9.6717 6.7075 9.29213L5.42357 8.01444H21.0006C21.5503 8.01444 22 7.56494 22 7.01555C22 6.45617 21.5503 6.01666 21.0006 6.01666H5.40169L6.7075 4.71721C7.09727 4.31766 7.09727 3.68836 6.7075 3.29879C6.30774 2.90024 5.67811 2.90024 5.28833 3.29979H5.28933L2.29109 6.29646V6.30645C1.90132 6.69601 1.90132 7.3353 2.30109 7.72487L5.29933 10.7215ZM21.5344 17.8479L18.6914 20.6893C18.5015 20.8691 18.2417 20.979 17.9818 20.979L18.0018 21C17.732 21 17.4721 20.8901 17.2922 20.7103C16.8925 20.3208 16.8925 19.6815 17.2822 19.2919V19.2819L18.5671 18.0033H3.01113C2.45146 18.0033 2.01172 17.5538 2.01172 17.0044C2.01172 16.4451 2.45146 16.0056 3.01113 16.0056H18.5872L17.2822 14.707V14.706C16.8825 14.3064 16.8825 13.6771 17.2822 13.2876C17.672 12.888 18.3016 12.888 18.7014 13.2876L21.6997 16.2842C21.7812 16.3637 21.8457 16.4545 21.8932 16.5521C21.9615 16.6872 22 16.8407 22 17.0044C22 17.358 21.8137 17.6702 21.5344 17.8479Z" fill="#131313"/>
</svg>
