<svg width="16" height="16" viewBox="0 0 16 16" fill="none" xmlns="http://www.w3.org/2000/svg">
    <path fill-rule="evenodd" clip-rule="evenodd"
        d="M8.00751 13.3328L8.00744 13.3327C8.22305 13.3326 8.41558 13.2288 8.53758 13.0687L12.4742 9.13209C12.7342 8.86542 12.7342 8.44542 12.4742 8.18542C12.2075 7.91942 11.7875 7.91942 11.5275 8.18609L8.67383 11.0398V3.33268C8.67383 2.95935 8.37383 2.66602 8.00716 2.66602C7.63383 2.66602 7.3405 2.95935 7.3405 3.33268V11.0518L4.48065 8.19193C4.21398 7.92593 3.79398 7.92593 3.53398 8.1926C3.26732 8.4526 3.26732 8.8726 3.53398 9.13926L7.52349 13.1288C7.52651 13.1318 7.52956 13.1349 7.53265 13.1379L7.53399 13.1393C7.54764 13.1529 7.56198 13.166 7.57695 13.1784C7.61985 13.214 7.66787 13.2443 7.71938 13.2683C7.79473 13.3042 7.87818 13.3263 7.96673 13.3315C7.98027 13.3323 7.99387 13.3328 8.00751 13.3328Z"
        fill="#D8DADA" />
</svg>