<svg width="40" height="41" viewBox="0 0 40 41" fill="none" xmlns="http://www.w3.org/2000/svg">
<g id="E-commerce / Basket">
<path id="Style" fill-rule="evenodd" clip-rule="evenodd" d="M21.1395 5.95044C20.4523 5.30366 19.3411 5.35341 18.7191 6.09969L10.8856 15.5H4.99952C3.91523 15.5 3.11964 16.519 3.38261 17.5709L6.71595 30.9042C7.11815 33.4043 9.0369 35.4037 11.42 35.4975L28.3329 35.5C30.8062 35.5629 32.8648 33.5043 33.3111 30.7683L36.6164 17.5709C36.8794 16.519 36.0838 15.5 34.9995 15.5H29.1135L21.2799 6.09969L21.1395 5.95044ZM28.322 18.8333C28.3298 18.8334 28.3377 18.8334 28.3455 18.8333H32.8629L30.0493 30.0958C29.8244 31.4384 29.0779 32.1849 28.3749 32.1672L11.6662 32.1667L11.5067 32.159C10.8173 32.0759 10.1606 31.3522 9.97778 30.2317L7.13285 18.8333H11.6535C11.6614 18.8334 11.6692 18.8334 11.6771 18.8333H28.322ZM24.7745 15.5L19.9995 9.77L15.2246 15.5H24.7745Z" fill="#131313"/>
</g>
</svg>
