<svg width="14" height="14" viewBox="0 0 14 14" fill="none" xmlns="http://www.w3.org/2000/svg">
    <path fill-rule="evenodd" clip-rule="evenodd" d="M3.66732 0.333313L6.37334 0.334468L6.41173 0.337798L6.45161 0.343712L6.48685 0.35092L6.55882 0.372179L6.60328 0.389927L6.69138 0.437105L6.75095 0.479772L6.80539 0.528575L12.8309 6.55554C13.3698 7.15808 13.3955 8.05469 12.8859 8.70853L12.8054 8.80472L8.77843 12.8302C8.17589 13.3691 7.27927 13.3948 6.62543 12.8852L6.52925 12.8047L0.529247 6.80472C0.42506 6.70053 0.358919 6.56541 0.339766 6.42094L0.333984 6.33331V3.66665C0.333984 1.8257 1.82637 0.333313 3.66732 0.333313ZM6.05732 1.66665H3.66732C2.6022 1.66665 1.73154 2.49926 1.67071 3.54913L1.66732 3.66665V6.05665L7.4451 11.8364C7.55581 11.9354 7.71618 11.9478 7.82124 11.8906L7.86258 11.8619L11.8371 7.88887C11.9361 7.77815 11.9485 7.61779 11.8913 7.51272L11.8626 7.47138L6.05732 1.66665ZM5.00065 2.99998C3.89608 2.99998 3.00065 3.89541 3.00065 4.99998C3.00065 6.10455 3.89608 6.99998 5.00065 6.99998C6.10522 6.99998 7.00065 6.10455 7.00065 4.99998C7.00065 3.89541 6.10522 2.99998 5.00065 2.99998ZM5.00065 4.33331C5.36884 4.33331 5.66732 4.63179 5.66732 4.99998C5.66732 5.36817 5.36884 5.66665 5.00065 5.66665C4.63246 5.66665 4.33398 5.36817 4.33398 4.99998C4.33398 4.63179 4.63246 4.33331 5.00065 4.33331Z" fill="#131313"/>
</svg>
