<svg width="24" height="24" viewBox="0 0 24 24" fill="none" xmlns="http://www.w3.org/2000/svg">
<path fill-rule="evenodd" clip-rule="evenodd" d="M4.10564 2.55279C4.25621 2.25165 4.54653 2.0491 4.87521 2.0078L5.00007 2H19.0001C19.3368 2 19.6478 2.16909 19.8317 2.4446L19.8945 2.55279L21.8984 6.56023L21.9391 6.658C21.98 6.76872 21.9994 6.88072 22.0003 6.99159L22.0001 8C22.0001 9.48056 21.1957 10.7733 20.0001 11.4649V20H21.0001C21.5524 20 22.0001 20.4477 22.0001 21C22.0001 21.5128 21.614 21.9355 21.1167 21.9933L21.0001 22H19.0001H15.0001H9.00007H5.00007H3.00007C2.44778 22 2.00007 21.5523 2.00007 21C2.00007 20.4872 2.38611 20.0645 2.88345 20.0067L3.00007 20H4.00007V11.4649C2.85853 10.8045 2.07361 9.59623 2.00496 8.19964L2.00007 8L1.99935 7.03302C1.99514 6.90959 2.01415 6.78291 2.05985 6.65862L2.10171 6.56023L4.10564 2.55279ZM10.0001 20H14.0001V17C14.0001 16.4872 13.614 16.0645 13.1167 16.0067L13.0001 16H11.0001C10.4872 16 10.0646 16.386 10.0068 16.8834L10.0001 17V20ZM16.0001 20V17L15.995 16.8237C15.9037 15.2489 14.5978 14 13.0001 14H11.0001L10.8238 14.0051C9.24899 14.0963 8.00007 15.4023 8.00007 17V20H6.00007V12C7.19528 12 8.26806 11.4758 8.99911 10.6447C9.73208 11.4758 10.8049 12 12.0001 12C13.1953 12 14.2681 11.4758 14.9991 10.6447C15.7321 11.4758 16.8049 12 18.0001 12V20H16.0001ZM6.00007 10C7.05443 10 7.91823 9.18412 7.99458 8.14926L8.00007 8H4.00007C4.00007 9.10457 4.8955 10 6.00007 10ZM13.9946 8.14926C13.9182 9.18412 13.0544 10 12.0001 10C10.8955 10 10.0001 9.10457 10.0001 8H14.0001L13.9946 8.14926ZM16.0001 8C16.0001 9.10457 16.8955 10 18.0001 10C19.0544 10 19.9182 9.18412 19.9946 8.14926L20.0001 8H16.0001ZM5.61807 4H18.3811L19.3811 6H4.61807L5.61807 4Z" fill="#131313"/>
</svg>
