<svg width="24" height="25" viewBox="0 0 24 25" fill="none" xmlns="http://www.w3.org/2000/svg">
<rect y="0.5" width="24" height="24" rx="12" fill="#D8DADA"/>
<path fill-rule="evenodd" clip-rule="evenodd" d="M8.92166 8.61983C8.69749 8.44553 8.37336 8.46138 8.16737 8.66737C7.94421 8.89052 7.94421 9.25233 8.16737 9.47549L11.1919 12.5L8.16737 15.5245L8.11983 15.5783C7.94553 15.8025 7.96138 16.1266 8.16737 16.3326C8.39052 16.5558 8.75233 16.5558 8.97549 16.3326L12 13.3081L15.0245 16.3326L15.0783 16.3802C15.3025 16.5545 15.6266 16.5386 15.8326 16.3326C16.0558 16.1095 16.0558 15.7477 15.8326 15.5245L12.8081 12.5L15.8326 9.47549L15.8802 9.42166C16.0545 9.19749 16.0386 8.87336 15.8326 8.66737C15.6095 8.44421 15.2477 8.44421 15.0245 8.66737L12 11.6919L8.97549 8.66737L8.92166 8.61983Z" fill="white"/>
</svg>
