<svg width="32" height="32" viewBox="0 0 32 32" fill="none" xmlns="http://www.w3.org/2000/svg">
    <path fill-rule="evenodd" clip-rule="evenodd"
        d="M11.8994 8.00065H20.1806C21.1298 8.00065 21.9742 8.60351 22.2824 9.50125L23.3962 12.7452C23.4953 13.0337 23.2809 13.334 22.9758 13.334H9.06901C8.76216 13.334 8.54762 13.0304 8.65006 12.7412L9.80469 9.481C10.1189 8.59371 10.9581 8.00065 11.8994 8.00065ZM5.12501 14.0007H5.11111C4.49746 14.0007 4 13.5032 4 12.8895C4 12.2759 4.49746 11.7784 5.11111 11.7784H6.16206L7.29101 8.59075C7.98235 6.6387 9.82856 5.33398 11.8994 5.33398H20.1806C22.2688 5.33398 24.1265 6.66028 24.8046 8.6353L25.8837 11.7784H27.3333C27.947 11.7784 28.4444 12.2759 28.4444 12.8895C28.4444 13.5032 27.947 14.0007 27.3333 14.0007H27.3194C27.8731 14.4893 28.2222 15.2042 28.2222 16.0007V21.7784C28.2222 21.8738 28.2172 21.9679 28.2075 22.0607C28.2172 22.1133 28.2222 22.1675 28.2222 22.2229V25.334C28.2222 25.8249 27.8243 26.2229 27.3333 26.2229H24.6667C24.1757 26.2229 23.7778 25.8249 23.7778 25.334V24.4451H8.66667V25.334C8.66667 25.8249 8.2687 26.2229 7.77778 26.2229H5.11111C4.62019 26.2229 4.22222 25.8249 4.22222 25.334V22.2229C4.22222 22.1675 4.22729 22.1133 4.23698 22.0607C4.22723 21.9679 4.22222 21.8738 4.22222 21.7784V16.0007C4.22222 15.2042 4.57139 14.4893 5.12501 14.0007ZM7.12725 17.6371C7.00927 17.0472 7.49912 16.5129 8.09704 16.5793L10.2746 16.8213C10.6438 16.8623 10.9486 17.1287 11.0388 17.4891L11.0572 17.5628C11.1974 18.1239 10.7731 18.6673 10.1948 18.6673H8.06201C7.63829 18.6673 7.27348 18.3682 7.19038 17.9528L7.12725 17.6371ZM21.4056 17.4891C21.4958 17.1287 21.8006 16.8623 22.1698 16.8213L24.3474 16.5793C24.9453 16.5129 25.4351 17.0472 25.3171 17.6371L25.254 17.9528C25.1709 18.3682 24.8061 18.6673 24.3824 18.6673H22.2496C21.6713 18.6673 21.247 18.1239 21.3872 17.5628L21.4056 17.4891ZM8.88889 23.1118C9.25708 23.1118 9.55556 22.8133 9.55556 22.4451C9.55556 22.0769 9.25708 21.7784 8.88889 21.7784C8.5207 21.7784 8.22222 22.0769 8.22222 22.4451C8.22222 22.8133 8.5207 23.1118 8.88889 23.1118ZM24.2222 22.4451C24.2222 22.8133 23.9237 23.1118 23.5556 23.1118C23.1874 23.1118 22.8889 22.8133 22.8889 22.4451C22.8889 22.0769 23.1874 21.7784 23.5556 21.7784C23.9237 21.7784 24.2222 22.0769 24.2222 22.4451ZM20.6667 20.4455H11.7778V22.6677H20.6667V20.4455Z"
        fill="#000000" />
</svg>