<svg xmlns="http://www.w3.org/2000/svg" width="24" height="24" viewBox="0 0 24 24" fill="none">
    <path fill-rule="evenodd" clip-rule="evenodd" d="M8.92456 6H15.1355C15.8474 6 16.4806 6.45214 16.7118 7.12545L17.4994 9.41929C18.6814 9.5846 19.7707 10.0389 20.6938 10.7084C20.6308 10.6341 20.5626 10.5644 20.4896 10.5H20.5C20.9602 10.5 21.3333 10.1269 21.3333 9.66667C21.3333 9.20643 20.9602 8.83333 20.5 8.83333H19.4128L18.6034 6.47598C18.0949 4.99472 16.7016 4 15.1355 4H8.92456C7.37142 4 5.98676 4.97854 5.46826 6.44258L4.62154 8.83333H3.83333C3.3731 8.83333 3 9.20643 3 9.66667C3 10.1269 3.3731 10.5 3.83333 10.5H3.84375C3.42854 10.8665 3.16667 11.4027 3.16667 12V16.3333C3.16667 16.4048 3.17042 16.4755 3.17774 16.545C3.17047 16.5845 3.16667 16.6251 3.16667 16.6667V19C3.16667 19.3682 3.46514 19.6667 3.83333 19.6667H5.83333C6.20152 19.6667 6.5 19.3682 6.5 19V18.3333H9.58722C9.47352 17.9035 9.39885 17.4578 9.36723 17.0003H8.83337V15.3336H9.44466C9.83461 12.957 11.3964 10.9748 13.5172 10H6.80176C6.57162 10 6.41072 9.77232 6.48755 9.55539L7.35351 7.11026C7.5892 6.44479 8.21859 6 8.92456 6ZM16.5 11.0324C18.4752 11.0324 20.2058 12.0797 21.1667 13.6494V16.3333C21.1667 16.4048 21.1629 16.4755 21.1556 16.545C21.1629 16.5845 21.1667 16.6251 21.1667 16.6667V19C21.1667 19.3682 20.8682 19.6667 20.5 19.6667H18.5C18.1318 19.6667 17.8333 19.3682 17.8333 19V18.3333H16.4369L17.475 17.2953C17.534 17.3198 17.5987 17.3333 17.6667 17.3333C17.9428 17.3333 18.1667 17.1095 18.1667 16.8333C18.1667 16.7654 18.1531 16.7007 18.1286 16.6416L19.2185 15.5518L19.2795 15.4827C19.5031 15.195 19.4828 14.779 19.2185 14.5147C18.9321 14.2283 18.4678 14.2283 18.1814 14.5147L15.7667 16.9288L15.5 16.6623V15.3336H11.157C11.6914 12.8743 13.8806 11.0324 16.5 11.0324ZM13.7641 17.0003H11.0549C11.097 17.4638 11.1969 17.9105 11.3473 18.3333H15.0965L13.7815 17.0184C13.7756 17.0124 13.7698 17.0064 13.7641 17.0003ZM5.34544 13.2273C5.25695 12.7849 5.62434 12.3842 6.07278 12.434L7.70592 12.6155C7.98288 12.6462 8.21148 12.846 8.27907 13.1164L8.29288 13.1716C8.39807 13.5924 8.07983 14 7.64612 14H6.04651C5.72872 14 5.45511 13.7757 5.39279 13.4641L5.34544 13.2273ZM16.0542 13.1164C16.1218 12.846 16.3504 12.6462 16.6274 12.6155L18.2605 12.434C18.709 12.3842 19.0763 12.7849 18.9879 13.2273L18.9405 13.4641C18.8782 13.7757 18.6046 14 18.2868 14H16.6872C16.2535 14 15.9352 13.5924 16.0404 13.1716L16.0542 13.1164ZM6.66667 17.3333C6.94281 17.3333 7.16667 17.1095 7.16667 16.8333C7.16667 16.5572 6.94281 16.3333 6.66667 16.3333C6.39052 16.3333 6.16667 16.5572 6.16667 16.8333C6.16667 17.1095 6.39052 17.3333 6.66667 17.3333Z" fill="#4B9E24"/>
    <path fill-rule="evenodd" clip-rule="evenodd" d="M11 16.5C11 13.4624 13.4624 11 16.5 11C19.5376 11 22 13.4624 22 16.5C22 19.5376 19.5376 22 16.5 22C13.4624 22 11 19.5376 11 16.5ZM19.2185 14.5147C18.9321 14.2283 18.4678 14.2283 18.1814 14.5147L15.7667 16.9288L14.8186 15.9813L14.7495 15.9203C14.4618 15.6966 14.0459 15.717 13.7815 15.9813C13.4952 16.2677 13.4952 16.732 13.7815 17.0184L15.2482 18.485L15.3172 18.546C15.6049 18.7697 16.0209 18.7493 16.2852 18.485L19.2185 15.5518L19.2795 15.4827C19.5031 15.195 19.4828 14.779 19.2185 14.5147Z" fill="#4B9E24"/>
</svg>
