<svg width="60" height="55" viewBox="0 0 60 55" fill="none" xmlns="http://www.w3.org/2000/svg">
<path fill-rule="evenodd" clip-rule="evenodd" d="M19.3366 15.2498H32.7935C34.3359 15.2498 35.7081 16.2295 36.2089 17.6883L38.0188 22.9598C38.1797 23.4282 37.832 23.9157 37.3369 23.9165H14.7359C14.2379 23.9157 13.89 23.4228 14.0563 22.9532L15.9326 17.6554C16.4433 16.2136 17.8069 15.2498 19.3366 15.2498ZM8.32813 24.9998H8.30556C7.30837 24.9998 6.5 24.1915 6.5 23.1943C6.5 22.1971 7.30837 21.3887 8.30556 21.3887H10.0133L11.8479 16.2088C12.9713 13.0367 15.9714 10.9165 19.3366 10.9165H32.7935C36.1868 10.9165 39.2055 13.0717 40.3074 16.2811L42.0611 21.3887H44.4167C45.4138 21.3887 46.2222 22.1971 46.2222 23.1943C46.2222 24.1915 45.4138 24.9998 44.4167 24.9998H44.3941C45.2937 25.7939 45.8611 26.9556 45.8611 28.2498V37.6387C45.8611 37.7936 45.853 37.9467 45.8371 38.0974C45.8529 38.1828 45.8611 38.2709 45.8611 38.3609V43.4165C45.8611 44.2142 45.2144 44.8609 44.4167 44.8609H40.0833C39.2856 44.8609 38.6389 44.2142 38.6389 43.4165V41.9721H14.0833V43.4165C14.0833 44.2142 13.4366 44.8609 12.6389 44.8609H8.30556C7.50781 44.8609 6.86111 44.2142 6.86111 43.4165V38.3609C6.86111 38.2709 6.86934 38.1828 6.8851 38.0974C6.86924 37.9467 6.86111 37.7936 6.86111 37.6387V28.2498C6.86111 26.9556 7.42851 25.7939 8.32813 24.9998ZM11.5818 30.9091C11.3901 29.9505 12.1861 29.0822 13.1577 29.1902L16.6962 29.5834C17.2962 29.65 17.7915 30.0829 17.938 30.6686L17.9679 30.7884C18.1958 31.7001 17.5063 32.5832 16.5666 32.5832H13.1008C12.4122 32.5832 11.8194 32.0972 11.6844 31.422L11.5818 30.9091ZM34.7542 30.7884L34.7842 30.6686C34.9306 30.0829 35.4259 29.65 36.026 29.5834L39.5645 29.1902C40.5361 29.0822 41.3321 29.9505 41.1404 30.9091L41.0378 31.422C40.9027 32.0972 40.3099 32.5832 39.6214 32.5832H36.1556C35.2158 32.5832 34.5263 31.7 34.7542 30.7884ZM14.4444 39.8054C15.0428 39.8054 15.5278 39.3204 15.5278 38.7221C15.5278 38.1238 15.0428 37.6387 14.4444 37.6387C13.8461 37.6387 13.3611 38.1238 13.3611 38.7221C13.3611 39.3204 13.8461 39.8054 14.4444 39.8054ZM39.3611 38.7221C39.3611 39.3204 38.8761 39.8054 38.2778 39.8054C37.6795 39.8054 37.1944 39.3204 37.1944 38.7221C37.1944 38.1238 37.6795 37.6387 38.2778 37.6387C38.8761 37.6387 39.3611 38.1238 39.3611 38.7221ZM33.5834 39.0838V35.4727H19.139V39.0838H33.5834Z" fill="#0033A0"/>
<rect x="37" y="1.75" width="22" height="22" rx="11" stroke="white" stroke-width="2"/>
<path d="M48 2.75C42.4772 2.75 38 7.22715 38 12.75C38 18.2728 42.4772 22.75 48 22.75C53.5228 22.75 58 18.2728 58 12.75C58 7.22715 53.5228 2.75 48 2.75Z" fill="#0033A0"/>
<path d="M48 7.75C48.5128 7.75 48.9355 8.13604 48.9933 8.63338L49 8.75V12.75C49 13.3023 48.5523 13.75 48 13.75C47.4872 13.75 47.0645 13.364 47.0067 12.8666L47 12.75V8.75C47 8.19772 47.4477 7.75 48 7.75Z" fill="white"/>
<path d="M48.01 15.75C48.5623 15.75 49.01 16.1977 49.01 16.75C49.01 17.2628 48.624 17.6855 48.1266 17.7433L48 17.75C47.4477 17.75 47 17.3023 47 16.75C47 16.2372 47.386 15.8145 47.8834 15.7567L48.01 15.75Z" fill="white"/>
</svg>
