<svg width="52" height="53" viewBox="0 0 52 53" fill="none" xmlns="http://www.w3.org/2000/svg">
<path fill-rule="evenodd" clip-rule="evenodd" d="M30.3335 10.8333C30.8977 10.8333 31.4356 11.0531 31.8367 11.4395L32.0254 11.6464L40.0402 21.6666H41.1668C44.6285 21.6666 47.4581 24.3726 47.6558 27.7847L47.6668 28.1666V31.3264C46.4654 30.0848 44.988 29.1117 43.3335 28.5062V28.1666C43.3335 27.0554 42.4971 26.1397 41.4195 26.0145L41.1668 25.9999H8.66683V34.6666H9.03669C9.92901 32.142 12.3367 30.3333 15.1668 30.3333C17.997 30.3333 20.4047 32.142 21.297 34.6666H28.7994C28.2071 35.9973 27.8589 37.4607 27.8116 38.9999H21.297C20.4047 41.5245 17.997 43.3333 15.1668 43.3333C12.3367 43.3333 9.929 41.5245 9.03669 38.9999H6.50016C5.38902 38.9999 4.47323 38.1635 4.34807 37.0859L4.3335 36.8333V23.8289L4.34807 23.5806L4.368 23.446L4.42399 23.2116L4.48846 23.0286L8.8218 12.1952C9.11793 11.4549 9.79287 10.944 10.5708 10.8492L10.8335 10.8333H30.3335ZM42.0661 34.6666C43.5892 35.5461 44.6444 37.1456 44.7664 38.9999H44.7661C44.6441 37.1456 43.5889 35.5461 42.0659 34.6666H42.0661ZM12.2982 15.1666H23.8335V21.6666H9.69816L12.2982 15.1666ZM29.2935 15.1666H28.1668V21.6666H34.4935L29.2935 15.1666ZM15.1668 34.6666C16.3634 34.6666 17.3335 35.6366 17.3335 36.8333C17.3335 38.0299 16.3634 38.9999 15.1668 38.9999C13.9702 38.9999 13.0002 38.0299 13.0002 36.8333C13.0002 35.6366 13.9702 34.6666 15.1668 34.6666Z" fill="#000"/>
<path fill-rule="evenodd" clip-rule="evenodd" d="M40 50.5002C45.5228 50.5002 50 46.0231 50 40.5002C50 34.9774 45.5228 30.5002 40 30.5002C34.4772 30.5002 30 34.9774 30 40.5002C30 46.0231 34.4772 50.5002 40 50.5002ZM37.7071 36.7931C37.3166 36.4026 36.6834 36.4026 36.2929 36.7931C35.9024 37.1837 35.9024 37.8168 36.2929 38.2074L38.5858 40.5002L36.2929 42.7931C35.9024 43.1837 35.9024 43.8168 36.2929 44.2074C36.6834 44.5979 37.3166 44.5979 37.7071 44.2074L40 41.9145L42.2929 44.2074C42.6834 44.5979 43.3166 44.5979 43.7071 44.2074C44.0976 43.8168 44.0976 43.1837 43.7071 42.7931L41.4142 40.5002L43.7071 38.2074C44.0976 37.8168 44.0976 37.1837 43.7071 36.7931C43.3166 36.4026 42.6834 36.4026 42.2929 36.7931L40 39.086L37.7071 36.7931Z" fill="#E6740A"/>
</svg>
