<svg width="308" height="315" viewBox="0 0 308 315" fill="none" xmlns="http://www.w3.org/2000/svg">
<path fill-rule="evenodd" clip-rule="evenodd" d="M299.573 -7.18786C310.809 -18.424 310.809 -36.6414 299.573 -47.8776C288.338 -59.1137 270.121 -59.1137 258.886 -47.8776L122.5 88.5155L-13.8858 -47.8776C-25.1213 -59.1137 -43.3378 -59.1137 -54.5733 -47.8776C-65.8089 -36.6414 -65.8089 -18.424 -54.5733 -7.18785L81.8124 129.205L-54.5536 265.578C-65.7891 276.815 -65.7891 295.032 -54.5536 306.268C-43.318 317.504 -25.1016 317.504 -13.866 306.268L122.5 169.895L258.866 306.268C270.102 317.504 288.318 317.504 299.554 306.268C310.789 295.032 310.789 276.815 299.554 265.578L163.188 129.205L299.573 -7.18786Z" fill="#131313"/>
<path fill-rule="evenodd" clip-rule="evenodd" d="M299.573 -7.18786C310.809 -18.424 310.809 -36.6414 299.573 -47.8776C288.338 -59.1137 270.121 -59.1137 258.886 -47.8776L122.5 88.5155L-13.8858 -47.8776C-25.1213 -59.1137 -43.3378 -59.1137 -54.5733 -47.8776C-65.8089 -36.6414 -65.8089 -18.424 -54.5733 -7.18785L81.8124 129.205L-54.5536 265.578C-65.7891 276.815 -65.7891 295.032 -54.5536 306.268C-43.318 317.504 -25.1016 317.504 -13.866 306.268L122.5 169.895L258.866 306.268C270.102 317.504 288.318 317.504 299.554 306.268C310.789 295.032 310.789 276.815 299.554 265.578L163.188 129.205L299.573 -7.18786Z" fill="#131313" fill-opacity="0.06"/>
</svg>
