<svg width="266" height="267" viewBox="0 0 266 267" fill="none" xmlns="http://www.w3.org/2000/svg">
<path fill-rule="evenodd" clip-rule="evenodd" d="M213.287 29C213.287 131.331 130.331 214.287 28 214.287C-74.3311 214.287 -157.287 131.331 -157.287 29C-157.287 -73.3311 -74.3311 -156.287 28 -156.287C130.331 -156.287 213.287 -73.3311 213.287 29ZM266 29C266 160.444 159.444 267 28 267C-103.444 267 -210 160.444 -210 29C-210 -102.444 -103.444 -209 28 -209C159.444 -209 266 -102.444 266 29ZM90.9888 28.9988C90.9888 63.7885 62.7862 91.9911 27.9966 91.9911C-6.79311 91.9911 -34.9957 63.7885 -34.9957 28.9988C-34.9957 -5.79083 -6.79311 -33.9934 27.9966 -33.9934C62.7862 -33.9934 90.9888 -5.79083 90.9888 28.9988ZM122.617 28.9988C122.617 81.2561 80.2538 123.619 27.9966 123.619C-24.2607 123.619 -66.6236 81.2561 -66.6236 28.9988C-66.6236 -23.2585 -24.2607 -65.6213 27.9966 -65.6213C80.2538 -65.6213 122.617 -23.2585 122.617 28.9988Z" fill="#131313"/>
<path fill-rule="evenodd" clip-rule="evenodd" d="M213.287 29C213.287 131.331 130.331 214.287 28 214.287C-74.3311 214.287 -157.287 131.331 -157.287 29C-157.287 -73.3311 -74.3311 -156.287 28 -156.287C130.331 -156.287 213.287 -73.3311 213.287 29ZM266 29C266 160.444 159.444 267 28 267C-103.444 267 -210 160.444 -210 29C-210 -102.444 -103.444 -209 28 -209C159.444 -209 266 -102.444 266 29ZM90.9888 28.9988C90.9888 63.7885 62.7862 91.9911 27.9966 91.9911C-6.79311 91.9911 -34.9957 63.7885 -34.9957 28.9988C-34.9957 -5.79083 -6.79311 -33.9934 27.9966 -33.9934C62.7862 -33.9934 90.9888 -5.79083 90.9888 28.9988ZM122.617 28.9988C122.617 81.2561 80.2538 123.619 27.9966 123.619C-24.2607 123.619 -66.6236 81.2561 -66.6236 28.9988C-66.6236 -23.2585 -24.2607 -65.6213 27.9966 -65.6213C80.2538 -65.6213 122.617 -23.2585 122.617 28.9988Z" fill="#131313" fill-opacity="0.06"/>
</svg>
