<svg width="303" height="276" viewBox="0 0 303 276" fill="none" xmlns="http://www.w3.org/2000/svg">
<path fill-rule="evenodd" clip-rule="evenodd" d="M101.96 -168.697C92.1394 -178.841 76.2169 -178.841 66.3963 -168.697C56.5756 -158.553 56.5756 -142.107 66.3963 -131.964L260.071 68.081C269.891 78.2246 285.814 78.2246 295.634 68.081C305.455 57.9373 305.455 41.4912 295.634 31.3475L101.96 -168.697ZM-6.36397 -101.647C3.4567 -111.79 19.3791 -111.79 29.1998 -101.647L222.874 98.3977C232.695 108.541 232.695 124.987 222.874 135.131C213.054 145.275 197.131 145.275 187.31 135.131L-6.36397 -64.9133C-16.1846 -75.057 -16.1846 -91.5031 -6.36397 -101.647ZM-45.3398 -34.9647C-55.1604 -45.1084 -71.0828 -45.1084 -80.9034 -34.9647C-90.7241 -24.821 -90.7241 -8.37485 -80.9034 1.76884L112.77 201.814C122.591 211.958 138.513 211.958 148.334 201.814C158.155 191.67 158.155 175.224 148.334 165.08L-45.3398 -34.9647ZM-118.071 31.3096C-127.891 21.166 -143.814 21.166 -153.635 31.3096C-163.455 41.4533 -163.455 57.8994 -153.635 68.0431L40.04 268.088C49.8606 278.231 65.783 278.231 75.6037 268.088C85.4244 257.944 85.4243 241.498 75.6037 231.354L-118.071 31.3096Z" fill="#131313"/>
<path fill-rule="evenodd" clip-rule="evenodd" d="M101.96 -168.697C92.1394 -178.841 76.2169 -178.841 66.3963 -168.697C56.5756 -158.553 56.5756 -142.107 66.3963 -131.964L260.071 68.081C269.891 78.2246 285.814 78.2246 295.634 68.081C305.455 57.9373 305.455 41.4912 295.634 31.3475L101.96 -168.697ZM-6.36397 -101.647C3.4567 -111.79 19.3791 -111.79 29.1998 -101.647L222.874 98.3977C232.695 108.541 232.695 124.987 222.874 135.131C213.054 145.275 197.131 145.275 187.31 135.131L-6.36397 -64.9133C-16.1846 -75.057 -16.1846 -91.5031 -6.36397 -101.647ZM-45.3398 -34.9647C-55.1604 -45.1084 -71.0828 -45.1084 -80.9034 -34.9647C-90.7241 -24.821 -90.7241 -8.37485 -80.9034 1.76884L112.77 201.814C122.591 211.958 138.513 211.958 148.334 201.814C158.155 191.67 158.155 175.224 148.334 165.08L-45.3398 -34.9647ZM-118.071 31.3096C-127.891 21.166 -143.814 21.166 -153.635 31.3096C-163.455 41.4533 -163.455 57.8994 -153.635 68.0431L40.04 268.088C49.8606 278.231 65.783 278.231 75.6037 268.088C85.4244 257.944 85.4243 241.498 75.6037 231.354L-118.071 31.3096Z" fill="#131313" fill-opacity="0.06"/>
</svg>
