<svg width="321" height="281" viewBox="0 0 321 281" fill="none" xmlns="http://www.w3.org/2000/svg">
<path fill-rule="evenodd" clip-rule="evenodd" d="M82.5 227.482C184.831 227.482 267.787 144.526 267.787 42.1953C267.787 -60.1358 184.831 -143.092 82.5 -143.092C-19.8311 -143.092 -102.787 -60.1358 -102.787 42.1953C-102.787 144.526 -19.8311 227.482 82.5 227.482ZM82.5 280.195C213.944 280.195 320.5 173.639 320.5 42.1953C320.5 -89.2485 213.944 -195.805 82.5 -195.805C-48.9438 -195.805 -155.5 -89.2485 -155.5 42.1953C-155.5 173.639 -48.9438 280.195 82.5 280.195Z" fill="#131313"/>
<path fill-rule="evenodd" clip-rule="evenodd" d="M82.5 227.482C184.831 227.482 267.787 144.526 267.787 42.1953C267.787 -60.1358 184.831 -143.092 82.5 -143.092C-19.8311 -143.092 -102.787 -60.1358 -102.787 42.1953C-102.787 144.526 -19.8311 227.482 82.5 227.482ZM82.5 280.195C213.944 280.195 320.5 173.639 320.5 42.1953C320.5 -89.2485 213.944 -195.805 82.5 -195.805C-48.9438 -195.805 -155.5 -89.2485 -155.5 42.1953C-155.5 173.639 -48.9438 280.195 82.5 280.195Z" fill="#131313" fill-opacity="0.06"/>
</svg>
