<svg xmlns="http://www.w3.org/2000/svg" width="25" height="24" viewBox="0 0 25 24" fill="none">
    <path fill-rule="evenodd" clip-rule="evenodd" d="M2.5 12C2.5 6.47715 6.97715 2 12.5 2C18.0228 2 22.5 6.47715 22.5 12C22.5 17.5228 18.0228 22 12.5 22C6.97715 22 2.5 17.5228 2.5 12Z" fill="#4B9E24"/>
    <path d="M14.7929 9.29289C15.1834 8.90237 15.8166 8.90237 16.2071 9.29289C16.5676 9.65338 16.5953 10.2206 16.2903 10.6129L16.2071 10.7071L12.2071 14.7071C11.8466 15.0676 11.2794 15.0953 10.8871 14.7903L10.7929 14.7071L8.79289 12.7071C8.40237 12.3166 8.40237 11.6834 8.79289 11.2929C9.15338 10.9324 9.72061 10.9047 10.1129 11.2097L10.2071 11.2929L11.5 12.585L14.7929 9.29289Z" fill="white"/>
</svg>
