<svg width="24" height="24" viewBox="0 0 24 24" fill="none" xmlns="http://www.w3.org/2000/svg">
<path fill-rule="evenodd" clip-rule="evenodd" d="M12.25 1.99854C6.72715 1.99854 2.25 6.47569 2.25 11.9985C2.25 17.5214 6.72715 21.9985 12.25 21.9985C17.7728 21.9985 22.25 17.5214 22.25 11.9985C22.25 6.47569 17.7728 1.99854 12.25 1.99854ZM12.25 3.99854C16.6683 3.99854 20.25 7.58026 20.25 11.9985C20.25 16.4168 16.6683 19.9985 12.25 19.9985C7.83172 19.9985 4.25 16.4168 4.25 11.9985C4.25 7.58026 7.83172 3.99854 12.25 3.99854ZM15.9571 9.29143C15.5666 8.9009 14.9334 8.9009 14.5429 9.29143L11.25 12.5835L9.95711 11.2914L9.8629 11.2082C9.47061 10.9032 8.90338 10.9309 8.54289 11.2914C8.15237 11.682 8.15237 12.3151 8.54289 12.7056L10.5429 14.7056L10.6371 14.7888C11.0294 15.0939 11.5966 15.0661 11.9571 14.7056L15.9571 10.7056L16.0403 10.6114C16.3453 10.2191 16.3176 9.65191 15.9571 9.29143Z" fill="#131313"/>
</svg>
