<svg width="22" height="16" viewBox="0 0 22 16" fill="none" xmlns="http://www.w3.org/2000/svg">
<path d="M21.08 6.072C21.08 9.976 19.256 13.208 15.608 15.768L12.536 13.32C13.336 12.904 14.136 12.248 14.936 11.352C15.768 10.456 16.312 9.576 16.568 8.712C16.312 8.84 15.944 8.904 15.464 8.904C14.408 8.904 13.528 8.536 12.824 7.8C12.12 7.064 11.768 6.104 11.768 4.92C11.768 3.704 12.2 2.664 13.064 1.8C13.928 0.935998 14.952 0.503998 16.136 0.503998C17.512 0.503998 18.68 1.016 19.64 2.04C20.6 3.032 21.08 4.376 21.08 6.072ZM10.232 6.072C10.232 9.976 8.408 13.208 4.76 15.768L1.688 13.32C2.488 12.904 3.304 12.248 4.136 11.352C4.968 10.456 5.512 9.576 5.768 8.712C5.512 8.84 5.144 8.904 4.664 8.904C3.608 8.904 2.712 8.536 1.976 7.8C1.272 7.064 0.92 6.104 0.92 4.92C0.92 3.704 1.352 2.664 2.216 1.8C3.08 0.935998 4.12 0.503998 5.336 0.503998C6.712 0.503998 7.864 1.016 8.792 2.04C9.752 3.032 10.232 4.376 10.232 6.072Z" fill="#D8DADA"/>
</svg>
