<svg xmlns="http://www.w3.org/2000/svg" width="12" height="12" viewBox="0 0 12 12" fill="none">
  <path fill-rule="evenodd" clip-rule="evenodd" d="M1.51083 0.342723C1.18392 0.0885352 0.711229 0.111643 0.410826 0.412046C0.0853888 0.737483 0.0853888 1.26512 0.410826 1.59056L4.82157 6.0013L0.410826 10.412L0.341502 10.4906C0.0873145 10.8175 0.110422 11.2902 0.410826 11.5906C0.736263 11.916 1.2639 11.916 1.58934 11.5906L6.00008 7.17981L10.4108 11.5906L10.4893 11.6599C10.8162 11.9141 11.2889 11.891 11.5893 11.5906C11.9148 11.2651 11.9148 10.7375 11.5893 10.412L7.17859 6.0013L11.5893 1.59056L11.6587 1.51205C11.9128 1.18514 11.8897 0.71245 11.5893 0.412046C11.2639 0.0866095 10.7363 0.0866095 10.4108 0.412046L6.00008 4.82279L1.58934 0.412046L1.51083 0.342723Z" fill="#CD1F25"/>
</svg>