<svg width="24" height="24" viewBox="0 0 24 24" fill="none" xmlns="http://www.w3.org/2000/svg">
<path fill-rule="evenodd" clip-rule="evenodd" d="M17.3124 6.49399C17.5919 6.97035 17.4323 7.58306 16.9559 7.86253C16.4796 8.14201 15.8669 7.9824 15.5874 7.50604C14.904 6.34115 13.5264 5.77654 12.222 6.12671C10.9769 6.46097 10.0915 7.55006 10.0065 8.81776L9.9999 9.00002V11.999L13.8999 12C14.4522 12 14.8999 12.4477 14.8999 13C14.8999 13.5129 14.5139 13.9355 14.0165 13.9933L13.8999 14L9.9999 13.999V16.5L9.99365 16.6117C9.978 16.751 9.95519 16.8883 9.92557 17.0233L9.8859 17.182L10.0808 17.1802C10.7602 17.1864 11.4479 17.2907 12.1264 17.4965L12.4166 17.591C13.7393 18.1972 15.2605 18.1972 16.5832 17.591C17.0853 17.3608 17.6788 17.5813 17.909 18.0834C18.1391 18.5854 17.9186 19.179 17.4166 19.4091C15.5648 20.2579 13.4351 20.2579 11.6736 19.4453C10.5347 19.0521 9.30103 19.086 8.19677 19.5245L8.1689 19.536L8.07744 19.5947C7.90157 19.7002 7.71638 19.7929 7.52303 19.8714L7.32698 19.945C6.18623 20.3398 5.4524 18.7501 6.49288 18.1381C6.66101 18.0392 6.83248 17.9478 7.00685 17.8639L7.2069 17.772L7.24069 17.7483C7.62027 17.4553 7.88683 17.0314 7.98117 16.5506L7.9999 16.427V13.999L6.8999 14C6.34762 14 5.8999 13.5523 5.8999 13C5.8999 12.4872 6.28594 12.0645 6.78328 12.0067L6.8999 12L7.9999 11.999L7.99992 8.99399C8.01303 6.81811 9.43007 4.91 11.4883 4.25803L11.7034 4.1951C13.8774 3.61149 16.1734 4.5525 17.3124 6.49399Z" fill="#131313"/>
</svg>
