<svg width="19" height="18" viewBox="0 0 19 18" fill="none" xmlns="http://www.w3.org/2000/svg">
<path fill-rule="evenodd" clip-rule="evenodd" d="M10.5 3.00244C10.8846 3.00244 11.2016 3.29197 11.245 3.66498L11.25 3.75244H14.25C14.4805 3.75244 14.6962 3.85827 14.8374 4.03606L14.8931 4.11657L17.1431 7.86657L17.1705 7.91629L17.2028 7.9899L17.2322 8.08929L17.2464 8.17732L17.25 8.25244V12.7524C17.25 13.1371 16.9605 13.4541 16.5875 13.4974L16.5 13.5024H15.622C15.3131 14.3763 14.4797 15.0024 13.5 15.0024C12.5203 15.0024 11.6869 14.3763 11.378 13.5024H8.12197C7.81309 14.3763 6.97966 15.0024 6 15.0024C5.02034 15.0024 4.18691 14.3763 3.87803 13.5024H3C2.61537 13.5024 2.29837 13.2129 2.25505 12.8399L2.25 12.7524V9.75244C2.25 9.33823 2.58579 9.00244 3 9.00244C3.38463 9.00244 3.70163 9.29197 3.74495 9.66498L3.75 9.75244V12.0024H3.87803C4.18691 11.1285 5.02034 10.5024 6 10.5024C6.97966 10.5024 7.81309 11.1285 8.12197 12.0024H9.75V4.50244H2.25C1.86537 4.50244 1.54837 4.21291 1.50505 3.83991L1.5 3.75244C1.5 3.36781 1.78953 3.05081 2.16253 3.00749L2.25 3.00244H10.5ZM15.75 12.0024H15.622C15.3131 11.1285 14.4797 10.5024 13.5 10.5024C12.5203 10.5024 11.6869 11.1285 11.378 12.0024H11.25V9.00244H15.75V12.0024ZM13.5 13.5024C13.0858 13.5024 12.75 13.1667 12.75 12.7524C12.75 12.3382 13.0858 12.0024 13.5 12.0024C13.9142 12.0024 14.25 12.3382 14.25 12.7524C14.25 13.1667 13.9142 13.5024 13.5 13.5024ZM6 13.5024C5.58579 13.5024 5.25 13.1667 5.25 12.7524C5.25 12.3382 5.58579 12.0024 6 12.0024C6.41421 12.0024 6.75 12.3382 6.75 12.7524C6.75 13.1667 6.41421 13.5024 6 13.5024ZM11.25 7.50244V5.25244H13.8255L15.1755 7.50244H11.25ZM6.75 6.75244C6.75 6.33823 6.41421 6.00244 6 6.00244H3L2.91253 6.00749C2.53953 6.05081 2.25 6.36781 2.25 6.75244C2.25 7.16666 2.58579 7.50244 3 7.50244H6L6.08747 7.4974C6.46047 7.45407 6.75 7.13707 6.75 6.75244Z" fill="#131313"/>
</svg>
