<svg xmlns="http://www.w3.org/2000/svg" width="25" height="25" viewBox="0 0 25 25">
    <path fill-rule="evenodd" clip-rule="evenodd"
          d="M22.5341 12.2406C22.5341 17.2445 18.8643 21.3913 14.0693 22.1364C13.7767 22.1819 13.5205 21.9494 13.5205 21.6533V14.2436H15.5235C16.0767 14.2436 16.525 13.7952 16.525 13.2421C16.525 12.689 16.0767 12.2406 15.5235 12.2406H13.5205V10.2375C13.5205 9.68443 13.9689 9.23603 14.522 9.23603H15.5235C16.0767 9.23603 16.525 8.78764 16.525 8.23452C16.525 7.68141 16.0767 7.23301 15.5235 7.23301H14.522C12.8627 7.23301 11.5175 8.57819 11.5175 10.2375V12.2406H10.516C9.96287 12.2406 9.51448 12.689 9.51448 13.2421C9.51448 13.7952 9.96287 14.2436 10.516 14.2436H11.5175V21.6533C11.5175 21.9494 11.2614 22.1819 10.9688 22.1364C6.17371 21.3913 2.50391 17.2445 2.50391 12.2406C2.50391 6.70938 6.98782 2.22546 12.519 2.22546C18.0502 2.22546 22.5341 6.70938 22.5341 12.2406Z"
          fill="#131313"/>
</svg>