<svg width="24" height="24" viewBox="0 0 24 24" fill="none" xmlns="http://www.w3.org/2000/svg">
<path fill-rule="evenodd" clip-rule="evenodd" d="M7 22.0002H12V21.9902C12.55 21.9902 13 21.5402 13 20.9902C13 20.4302 12.55 19.9902 12 19.9902H7C6.44 19.9902 6 19.5402 6 18.9902V4.99016C6 4.43016 6.44 3.99016 7 3.99016H13V7C13 8.1 13.89 9 15 9H18V12.4992C18 13.0492 18.44 13.4992 19 13.4992C19.55 13.4992 20 13.0492 20 12.4992V8V7.99916C20 7.98752 19.9998 7.9759 19.9994 7.9643C19.9954 7.84953 19.9726 7.74018 19.9338 7.63911C19.8837 7.50652 19.807 7.38621 19.71 7.28916L14.71 2.28916C14.52 2.09916 14.26 1.98916 14 1.99916V2L13.9813 2.00016H7C5.34 2.00016 4 3.34016 4 5.00016V19.0002C4 20.6502 5.34 22.0002 7 22.0002ZM15 5.40016V7H16.5998L15 5.40016ZM16.5 21C14.56 21 13 19.43 13 17.5C13 15.56 14.56 14 16.5 14C18.43 14 20 15.56 20 17.5C20 18.1005 19.848 18.6661 19.5805 19.1605L21.7102 21.2902C22.0902 21.6802 22.0902 22.3002 21.7102 22.7002C21.5202 22.8902 21.2602 22.9902 21.0002 23.0002C20.7302 23.0002 20.4702 22.8902 20.2902 22.7102L18.1605 20.5805C17.6661 20.848 17.1005 21 16.5 21ZM16.5 16C15.67 16 15 16.67 15 17.5C15 18.32 15.67 19 16.5 19C17.32 19 18 18.32 18 17.5C18 16.67 17.32 16 16.5 16Z" fill="#131313"/>
</svg>
