<svg width="55" height="58" viewBox="0 0 55 58" fill="none" xmlns="http://www.w3.org/2000/svg">
<path fill-rule="evenodd" clip-rule="evenodd" d="M12.4643 9.6585L41.8752 9.65911C42.0453 9.65911 42.2146 9.67955 42.3798 9.71987L42.6244 9.79518C43.9456 10.2895 44.9781 11.4083 45.4209 12.8254C45.8194 14.1007 45.6998 15.4885 45.104 16.6582L44.8879 17.0395L44.6819 17.3204L33.9529 29.9071V45.8809C33.9529 47.7803 32.0126 48.9016 30.5384 47.9612L30.3312 47.8127L21.2771 40.5683C20.7784 40.1693 20.4592 39.5715 20.3872 38.919L20.3717 38.6365V29.9095L9.64272 17.3204L9.43672 17.0395C8.65774 15.7983 8.46095 14.2424 8.90372 12.8254C9.30624 11.5371 10.1961 10.4954 11.3473 9.94524L11.686 9.79988L11.9304 9.72288L12.2004 9.67359C12.2949 9.66238 12.3799 9.6579 12.4643 9.6585ZM40.9775 14.4888H13.3465L24.3109 27.3532C24.6266 27.7236 24.825 28.1875 24.8823 28.6795L24.8996 28.9775V37.4293L29.4267 41.0515V28.9775C29.4267 28.4769 29.5724 27.9913 29.8402 27.5861L30.0153 27.3532L40.9775 14.4888Z" fill="#131313"/>
</svg>
