<svg width="24" height="25" viewBox="0 0 24 25" fill="#000" xmlns="http://www.w3.org/2000/svg">
<path fill-rule="evenodd" clip-rule="evenodd" d="M16.9753 13.2324H21V11.2324H16.9753C16.7245 6.1791 14.5927 2.23242 12 2.23242C9.40733 2.23242 7.27555 6.1791 7.02469 11.2324H3V13.2324H7.02469C7.27555 18.2857 9.40733 22.2324 12 22.2324C14.5927 22.2324 16.7245 18.2857 16.9753 13.2324ZM14.9726 13.2324C14.8571 15.3264 14.3857 17.131 13.7467 18.4091C12.9482 20.0061 12.2151 20.2324 12 20.2324C11.7849 20.2324 11.0518 20.0061 10.2533 18.4091C9.61429 17.131 9.14295 15.3264 9.02739 13.2324H14.9726ZM9.02739 11.2324C9.14295 9.13844 9.61429 7.33385 10.2533 6.05578C11.0518 4.45875 11.7849 4.23242 12 4.23242C12.2151 4.23242 12.9482 4.45875 13.7467 6.05578C14.3857 7.33385 14.8571 9.13844 14.9726 11.2324H9.02739Z" />
<path fill-rule="evenodd" clip-rule="evenodd" d="M12 20.2324C16.4183 20.2324 20 16.6507 20 12.2324C20 7.81414 16.4183 4.23242 12 4.23242C7.58172 4.23242 4 7.81414 4 12.2324C4 16.6507 7.58172 20.2324 12 20.2324ZM12 22.2324C17.5228 22.2324 22 17.7553 22 12.2324C22 6.70957 17.5228 2.23242 12 2.23242C6.47715 2.23242 2 6.70957 2 12.2324C2 17.7553 6.47715 22.2324 12 22.2324Z" />
</svg>
