<svg width="136" height="41" viewBox="0 0 136 41" fill="none" xmlns="http://www.w3.org/2000/svg">
<rect x="0.682396" y="1.25076" width="134.202" height="39.0589" rx="5.50831" fill="#131313"/>
<path d="M68.4201 22.5336C66.0645 22.5336 64.1446 24.3253 64.1446 26.793C64.1446 29.2457 66.0645 31.0525 68.4201 31.0525C70.7766 31.0525 72.6965 29.2457 72.6965 26.793C72.6955 24.3253 70.7756 22.5336 68.4201 22.5336ZM68.4201 29.3759C67.1291 29.3759 66.0164 28.3113 66.0164 26.794C66.0164 25.2607 67.1301 24.2121 68.4201 24.2121C69.711 24.2121 70.8237 25.2607 70.8237 26.794C70.8237 28.3103 69.711 29.3759 68.4201 29.3759ZM59.092 22.5336C56.7365 22.5336 54.8166 24.3253 54.8166 26.793C54.8166 29.2457 56.7365 31.0525 59.092 31.0525C61.4486 31.0525 63.3685 29.2457 63.3685 26.793C63.3685 24.3253 61.4486 22.5336 59.092 22.5336ZM59.092 29.3759C57.8011 29.3759 56.6884 28.3113 56.6884 26.794C56.6884 25.2607 57.8021 24.2121 59.092 24.2121C60.383 24.2121 61.4956 25.2607 61.4956 26.794C61.4966 28.3103 60.383 29.3759 59.092 29.3759ZM47.9973 23.8416V25.6483H52.3218C52.1926 26.6648 51.8541 27.407 51.3373 27.9227C50.7084 28.5517 49.7239 29.2457 47.9973 29.2457C45.3353 29.2457 43.2541 27.0995 43.2541 24.4375C43.2541 21.7755 45.3353 19.6292 47.9973 19.6292C49.4334 19.6292 50.482 20.1941 51.2562 20.9202L52.5311 19.6453C51.4495 18.6127 50.0143 17.8225 47.9973 17.8225C44.3508 17.8225 41.2852 20.791 41.2852 24.4375C41.2852 28.084 44.3508 31.0525 47.9973 31.0525C49.9652 31.0525 51.4505 30.4065 52.6112 29.1967C53.805 28.0029 54.1766 26.3243 54.1766 24.9693C54.1766 24.5507 54.1445 24.1631 54.0794 23.8406H47.9973V23.8416ZM93.3737 25.2447C93.0192 24.2933 91.9375 22.5336 89.7272 22.5336C87.5329 22.5336 85.7091 24.2602 85.7091 26.793C85.7091 29.1806 87.5169 31.0525 89.9365 31.0525C91.8885 31.0525 93.0182 29.8587 93.4869 29.1646L92.0347 28.1962C91.5509 28.9062 90.889 29.3739 89.9365 29.3739C88.9851 29.3739 88.3071 28.9383 87.8714 28.083L93.567 25.7274L93.3737 25.2447ZM87.5649 26.6648C87.5169 25.0184 88.8399 24.1801 89.7923 24.1801C90.5344 24.1801 91.1634 24.5517 91.3737 25.0835L87.5649 26.6648ZM82.935 30.7951H84.8058V18.2752H82.935V30.7951ZM79.8683 23.486H79.8042C79.3846 22.9853 78.5774 22.5336 77.5619 22.5336C75.4316 22.5336 73.4797 24.4054 73.4797 26.8101C73.4797 29.1977 75.4316 31.0535 77.5619 31.0535C78.5784 31.0535 79.3846 30.6018 79.8042 30.086H79.8683V30.6989C79.8683 32.3284 78.997 33.1997 77.5939 33.1997C76.4482 33.1997 75.7381 32.3775 75.4477 31.6834L73.8182 32.3614C74.2859 33.4901 75.5278 34.8782 77.5939 34.8782C79.7882 34.8782 81.644 33.5873 81.644 30.4405V22.793H79.8693V23.486H79.8683ZM77.7231 29.3759C76.4322 29.3759 75.3515 28.2943 75.3515 26.8101C75.3515 25.3088 76.4322 24.2121 77.7231 24.2121C78.997 24.2121 79.9975 25.3088 79.9975 26.8101C79.9975 28.2943 78.997 29.3759 77.7231 29.3759ZM102.141 18.2752H97.6632V30.7951H99.531V26.0519H102.14C104.211 26.0519 106.248 24.5527 106.248 22.1641C106.248 19.7755 104.212 18.2752 102.141 18.2752ZM102.189 24.3093H99.531V20.0178H102.189C103.586 20.0178 104.379 21.1746 104.379 22.1641C104.379 23.1335 103.586 24.3093 102.189 24.3093ZM113.738 22.5116C112.385 22.5116 110.984 23.1075 110.404 24.4285L112.063 25.1205C112.417 24.4285 113.078 24.2021 113.77 24.2021C114.737 24.2021 115.719 24.782 115.735 25.8126V25.9418C115.397 25.7485 114.672 25.459 113.786 25.459C111.999 25.459 110.178 26.4415 110.178 28.2773C110.178 29.9528 111.644 31.0314 113.287 31.0314C114.543 31.0314 115.236 30.4676 115.67 29.8066H115.734V30.773H117.539V25.9728C117.54 23.7515 115.88 22.5116 113.738 22.5116ZM113.512 29.3729C112.901 29.3729 112.047 29.0665 112.047 28.3093C112.047 27.3429 113.11 26.9723 114.029 26.9723C114.849 26.9723 115.237 27.1496 115.735 27.3909C115.59 28.5517 114.592 29.3729 113.512 29.3729ZM124.111 22.785L121.969 28.2132H121.905L119.681 22.785H117.668L121.002 30.3714L119.101 34.5918H121.05L126.189 22.785H124.111ZM107.28 30.7951H109.147V18.2752H107.28V30.7951Z" fill="white"/>
<path d="M47.6709 11.0085C47.6709 11.8478 47.4225 12.5158 46.9247 13.0146C46.3599 13.6075 45.6228 13.9039 44.7174 13.9039C43.8501 13.9039 43.112 13.6035 42.5061 13.0025C41.8992 12.4006 41.5957 11.6555 41.5957 10.7662C41.5957 9.87583 41.8992 9.13071 42.5061 8.5298C43.112 7.9279 43.8501 7.62745 44.7174 7.62745C45.1481 7.62745 45.5597 7.71157 45.9503 7.87882C46.3419 8.04708 46.6553 8.27041 46.8897 8.54984L46.3619 9.07863C45.9643 8.60292 45.4165 8.36556 44.7164 8.36556C44.0835 8.36556 43.5366 8.58789 43.0749 9.03256C42.6132 9.47723 42.3829 10.0551 42.3829 10.7652C42.3829 11.4752 42.6132 12.0531 43.0749 12.4978C43.5366 12.9425 44.0835 13.1648 44.7164 13.1648C45.3874 13.1648 45.9473 12.9415 46.3949 12.4938C46.6854 12.2023 46.8536 11.7967 46.8987 11.2769H44.7164V10.5549H47.6278C47.6578 10.7121 47.6709 10.8633 47.6709 11.0085Z" fill="white"/>
<path d="M52.2879 8.49881H49.5518V10.4037H52.0195V11.1258H49.5518V13.0306H52.2879V13.7698H48.7796V7.7607H52.2879V8.49881Z" fill="white"/>
<path d="M55.5437 13.7698H54.7716V8.49881H53.093V7.7607H57.2222V8.49881H55.5437V13.7698Z" fill="white"/>
<path d="M60.2097 13.7698V7.7607H60.9819V13.7698H60.2097Z" fill="white"/>
<path d="M64.4062 13.7698H63.634V8.49881H61.9555V7.7607H66.0847V8.49881H64.4062V13.7698Z" fill="white"/>
<path d="M73.9013 12.9936C73.3104 13.6005 72.5763 13.904 71.698 13.904C70.8196 13.904 70.0855 13.6005 69.4956 12.9936C68.9048 12.3867 68.6103 11.6435 68.6103 10.7652C68.6103 9.8869 68.9048 9.14378 69.4956 8.53686C70.0855 7.92995 70.8196 7.62549 71.698 7.62549C72.5713 7.62549 73.3044 7.93095 73.8973 8.54087C74.4902 9.15079 74.7866 9.89191 74.7866 10.7652C74.7866 11.6435 74.4912 12.3867 73.9013 12.9936ZM70.0655 12.4898C70.5102 12.9405 71.054 13.1648 71.698 13.1648C72.3419 13.1648 72.8868 12.9395 73.3304 12.4898C73.7751 12.0391 73.9984 11.4643 73.9984 10.7652C73.9984 10.0662 73.7751 9.4913 73.3304 9.04062C72.8868 8.58994 72.3419 8.3656 71.698 8.3656C71.054 8.3656 70.5102 8.59094 70.0655 9.04062C69.6218 9.4913 69.3985 10.0662 69.3985 10.7652C69.3985 11.4643 69.6218 12.0391 70.0655 12.4898Z" fill="white"/>
<path d="M75.8703 13.7698V7.7607H76.8097L79.7301 12.4347H79.7632L79.7301 11.277V7.7607H80.5023V13.7698H79.696L76.6404 8.86837H76.6074L76.6404 10.0261V13.7698H75.8703Z" fill="white"/>
<path d="M47.6709 11.0085C47.6709 11.8478 47.4225 12.5158 46.9247 13.0146C46.3599 13.6075 45.6228 13.9039 44.7174 13.9039C43.8501 13.9039 43.112 13.6035 42.5061 13.0025C41.8992 12.4006 41.5957 11.6555 41.5957 10.7662C41.5957 9.87583 41.8992 9.13071 42.5061 8.5298C43.112 7.9279 43.8501 7.62745 44.7174 7.62745C45.1481 7.62745 45.5597 7.71157 45.9503 7.87882C46.3419 8.04708 46.6553 8.27041 46.8897 8.54984L46.3619 9.07863C45.9643 8.60292 45.4165 8.36556 44.7164 8.36556C44.0835 8.36556 43.5366 8.58789 43.0749 9.03256C42.6132 9.47723 42.3829 10.0551 42.3829 10.7652C42.3829 11.4752 42.6132 12.0531 43.0749 12.4978C43.5366 12.9425 44.0835 13.1648 44.7164 13.1648C45.3874 13.1648 45.9473 12.9415 46.3949 12.4938C46.6854 12.2023 46.8536 11.7967 46.8987 11.2769H44.7164V10.5549H47.6278C47.6578 10.7121 47.6709 10.8633 47.6709 11.0085Z" stroke="white" stroke-width="0.200302" stroke-miterlimit="10"/>
<path d="M52.2879 8.49881H49.5518V10.4037H52.0195V11.1258H49.5518V13.0306H52.2879V13.7698H48.7796V7.7607H52.2879V8.49881Z" stroke="white" stroke-width="0.200302" stroke-miterlimit="10"/>
<path d="M55.5437 13.7698H54.7716V8.49881H53.093V7.7607H57.2222V8.49881H55.5437V13.7698Z" stroke="white" stroke-width="0.200302" stroke-miterlimit="10"/>
<path d="M60.2097 13.7698V7.7607H60.9819V13.7698H60.2097Z" stroke="white" stroke-width="0.200302" stroke-miterlimit="10"/>
<path d="M64.4062 13.7698H63.634V8.49881H61.9555V7.7607H66.0847V8.49881H64.4062V13.7698Z" stroke="white" stroke-width="0.200302" stroke-miterlimit="10"/>
<path d="M73.9013 12.9936C73.3104 13.6005 72.5763 13.904 71.698 13.904C70.8196 13.904 70.0855 13.6005 69.4956 12.9936C68.9048 12.3867 68.6103 11.6435 68.6103 10.7652C68.6103 9.8869 68.9048 9.14378 69.4956 8.53686C70.0855 7.92995 70.8196 7.62549 71.698 7.62549C72.5713 7.62549 73.3044 7.93095 73.8973 8.54087C74.4902 9.15079 74.7866 9.89191 74.7866 10.7652C74.7866 11.6435 74.4912 12.3867 73.9013 12.9936ZM70.0655 12.4898C70.5102 12.9405 71.054 13.1648 71.698 13.1648C72.3419 13.1648 72.8868 12.9395 73.3304 12.4898C73.7751 12.0391 73.9984 11.4643 73.9984 10.7652C73.9984 10.0662 73.7751 9.4913 73.3304 9.04062C72.8868 8.58994 72.3419 8.3656 71.698 8.3656C71.054 8.3656 70.5102 8.59094 70.0655 9.04062C69.6218 9.4913 69.3985 10.0662 69.3985 10.7652C69.3985 11.4643 69.6218 12.0391 70.0655 12.4898Z" stroke="white" stroke-width="0.200302" stroke-miterlimit="10"/>
<path d="M75.8703 13.7698V7.7607H76.8097L79.7301 12.4347H79.7632L79.7301 11.277V7.7607H80.5023V13.7698H79.696L76.6404 8.86837H76.6074L76.6404 10.0261V13.7698H75.8703Z" stroke="white" stroke-width="0.200302" stroke-miterlimit="10"/>
<g filter="url(#filter0_ii_1467_175524)">
<path d="M10.6336 8.29967C10.3422 8.60814 10.1699 9.08686 10.1699 9.7068V31.8562C10.1699 32.4771 10.3422 32.9548 10.6336 33.2633L10.7077 33.3354L23.1154 20.9277V20.7815V20.6353L10.7077 8.22656L10.6336 8.29967Z" fill="url(#paint0_linear_1467_175524)"/>
<path d="M27.2505 25.0647L23.1152 20.9275V20.7812V20.635L27.2515 16.4988L27.3446 16.5519L32.245 19.3361C33.6441 20.1313 33.6441 21.4322 32.245 22.2284L27.3446 25.0126L27.2505 25.0647Z" fill="url(#paint1_linear_1467_175524)"/>
<g filter="url(#filter1_i_1467_175524)">
<path d="M27.345 25.0116L23.1146 20.7812L10.6338 33.2631C11.0945 33.7518 11.8566 33.8119 12.7149 33.3252L27.345 25.0116Z" fill="url(#paint2_linear_1467_175524)"/>
</g>
<path d="M27.345 16.551L12.7149 8.23844C11.8566 7.7507 11.0945 7.8118 10.6338 8.30053L23.1156 20.7824L27.345 16.551Z" fill="url(#paint3_linear_1467_175524)"/>
</g>
<rect x="0.682396" y="1.25076" width="134.202" height="39.0589" rx="5.50831" stroke="#656B6B" stroke-width="1.00151"/>
<defs>
<filter id="filter0_ii_1467_175524" x="10.1699" y="7.90186" width="23.124" height="25.7595" filterUnits="userSpaceOnUse" color-interpolation-filters="sRGB">
<feFlood flood-opacity="0" result="BackgroundImageFix"/>
<feBlend mode="normal" in="SourceGraphic" in2="BackgroundImageFix" result="shape"/>
<feColorMatrix in="SourceAlpha" type="matrix" values="0 0 0 0 0 0 0 0 0 0 0 0 0 0 0 0 0 0 127 0" result="hardAlpha"/>
<feOffset dy="-0.150227"/>
<feComposite in2="hardAlpha" operator="arithmetic" k2="-1" k3="1"/>
<feColorMatrix type="matrix" values="0 0 0 0 0 0 0 0 0 0 0 0 0 0 0 0 0 0 0.12 0"/>
<feBlend mode="normal" in2="shape" result="effect1_innerShadow_1467_175524"/>
<feColorMatrix in="SourceAlpha" type="matrix" values="0 0 0 0 0 0 0 0 0 0 0 0 0 0 0 0 0 0 127 0" result="hardAlpha"/>
<feOffset dy="0.150227"/>
<feComposite in2="hardAlpha" operator="arithmetic" k2="-1" k3="1"/>
<feColorMatrix type="matrix" values="0 0 0 0 1 0 0 0 0 1 0 0 0 0 1 0 0 0 0.25 0"/>
<feBlend mode="normal" in2="effect1_innerShadow_1467_175524" result="effect2_innerShadow_1467_175524"/>
</filter>
<filter id="filter1_i_1467_175524" x="10.6338" y="20.7812" width="16.7109" height="12.8801" filterUnits="userSpaceOnUse" color-interpolation-filters="sRGB">
<feFlood flood-opacity="0" result="BackgroundImageFix"/>
<feBlend mode="normal" in="SourceGraphic" in2="BackgroundImageFix" result="shape"/>
<feColorMatrix in="SourceAlpha" type="matrix" values="0 0 0 0 0 0 0 0 0 0 0 0 0 0 0 0 0 0 127 0" result="hardAlpha"/>
<feOffset dy="-0.150227"/>
<feComposite in2="hardAlpha" operator="arithmetic" k2="-1" k3="1"/>
<feColorMatrix type="matrix" values="0 0 0 0 0 0 0 0 0 0 0 0 0 0 0 0 0 0 0.08 0"/>
<feBlend mode="normal" in2="shape" result="effect1_innerShadow_1467_175524"/>
</filter>
<linearGradient id="paint0_linear_1467_175524" x1="22.0156" y1="9.47244" x2="5.20824" y2="26.2798" gradientUnits="userSpaceOnUse">
<stop stop-color="#00A0FF"/>
<stop offset="0.0066" stop-color="#00A1FF"/>
<stop offset="0.2601" stop-color="#00BEFF"/>
<stop offset="0.5122" stop-color="#00D2FF"/>
<stop offset="0.7604" stop-color="#00DFFF"/>
<stop offset="1" stop-color="#00E3FF"/>
</linearGradient>
<linearGradient id="paint1_linear_1467_175524" x1="34.0662" y1="20.7812" x2="9.83381" y2="20.7812" gradientUnits="userSpaceOnUse">
<stop stop-color="#FFE000"/>
<stop offset="0.4087" stop-color="#FFBD00"/>
<stop offset="0.7754" stop-color="#FFA500"/>
<stop offset="1" stop-color="#FF9C00"/>
</linearGradient>
<linearGradient id="paint2_linear_1467_175524" x1="25.0476" y1="23.0786" x2="2.25476" y2="45.8715" gradientUnits="userSpaceOnUse">
<stop stop-color="#FF3A44"/>
<stop offset="1" stop-color="#C31162"/>
</linearGradient>
<linearGradient id="paint3_linear_1467_175524" x1="7.49045" y1="0.927214" x2="17.6681" y2="11.1049" gradientUnits="userSpaceOnUse">
<stop stop-color="#32A071"/>
<stop offset="0.0685" stop-color="#2DA771"/>
<stop offset="0.4762" stop-color="#15CF74"/>
<stop offset="0.8009" stop-color="#06E775"/>
<stop offset="1" stop-color="#00F076"/>
</linearGradient>
</defs>
</svg>
