<svg width="24" height="24" viewBox="0 0 24 24" fill="none" xmlns="http://www.w3.org/2000/svg">
<path fill-rule="evenodd" clip-rule="evenodd" d="M11.9671 5.49863L12.004 5.5321L12.0383 5.50143C13.3231 4.37359 15.0451 3.83623 16.7708 4.06116L17.0174 4.0985C19.2354 4.48155 21.0525 6.0738 21.7235 8.22234C22.3945 10.3709 21.8065 12.7143 20.2007 14.2915L20.153 14.3321L12.7037 21.7106C12.3439 22.0669 11.7812 22.0943 11.3902 21.7928L11.2963 21.7106L3.79198 14.2781L3.62038 14.1037C2.14008 12.5334 1.61285 10.2807 2.25756 8.20722C2.92806 6.05081 4.75257 4.45351 6.9787 4.07402C8.79258 3.7648 10.6228 4.30679 11.9671 5.49863Z" fill="#131313"/>
</svg>
