<svg width="16" height="17" viewBox="0 0 16 17" fill="none" xmlns="http://www.w3.org/2000/svg">
<path fill-rule="evenodd" clip-rule="evenodd" d="M1.52794 1.79292C1.76827 1.5526 2.14642 1.53411 2.40795 1.73746L2.47075 1.79292L11.9882 11.3103C12.025 11.3399 12.0591 11.3738 12.0897 11.4119L14.4708 13.7929C14.7311 14.0533 14.7311 14.4754 14.4708 14.7357C14.2304 14.9761 13.8523 14.9945 13.5907 14.7912L13.5279 14.7357L11.47 12.6778C10.4007 13.2898 9.24088 13.5977 7.99935 13.5977C5.06895 13.5977 2.64167 11.8986 0.753861 8.5951C0.636721 8.39011 0.636735 8.13846 0.753898 7.93349C1.54783 6.54454 2.43449 5.44034 3.41741 4.62519L1.52794 2.73573C1.26759 2.47538 1.26759 2.05327 1.52794 1.79292ZM4.36509 5.57287C3.6056 6.1809 2.89659 7.00433 2.24048 8.04645L2.10668 8.26432L2.18507 8.39372C3.75269 10.9266 5.61636 12.191 7.80536 12.2612L7.99935 12.2643C8.88332 12.2643 9.70895 12.0746 10.4847 11.6925L8.86247 10.0703C8.11841 10.4266 7.19968 10.2963 6.58341 9.67959C5.9675 9.06323 5.83766 8.14511 6.19374 7.40152L4.36509 5.57287ZM7.49169 8.69947L7.56453 8.77232C7.55153 8.76116 7.53886 8.74943 7.52655 8.73711C7.51436 8.72491 7.50274 8.71235 7.49169 8.69947ZM7.99906 2.93095C10.9294 2.93095 13.3567 4.63005 15.2445 7.93355C15.3617 8.13854 15.3617 8.3902 15.2445 8.59517C14.7013 9.54548 14.1159 10.3613 13.4866 11.0422C13.2367 11.3125 12.8149 11.3291 12.5446 11.0792C12.2742 10.8293 12.2576 10.4075 12.5075 10.1372C12.941 9.66808 13.3561 9.11966 13.7521 8.49147L13.8917 8.26432L13.8133 8.13492C12.2457 5.60199 10.3819 4.33756 8.19091 4.26737L7.99674 4.26428C7.46496 4.26243 6.93562 4.33571 6.42441 4.48195C6.07042 4.58321 5.70136 4.37834 5.6001 4.02434C5.49884 3.67035 5.70371 3.3013 6.0577 3.20003C6.68965 3.01925 7.34401 2.92867 7.99906 2.93095Z" fill="#002980"/>
</svg>
