<svg width="20" height="20" viewBox="0 0 20 20" fill="none" xmlns="http://www.w3.org/2000/svg">
<path fill-rule="evenodd" clip-rule="evenodd" d="M10.0001 3.33464C6.31818 3.33464 3.33341 6.3194 3.33341 10.0013C3.33341 13.6832 6.31818 16.668 10.0001 16.668C13.682 16.668 16.6667 13.6832 16.6667 10.0013C16.6667 6.3194 13.682 3.33464 10.0001 3.33464ZM1.66675 10.0013C1.66675 5.39893 5.39771 1.66797 10.0001 1.66797C14.6025 1.66797 18.3334 5.39893 18.3334 10.0013C18.3334 14.6037 14.6025 18.3346 10.0001 18.3346C5.39771 18.3346 1.66675 14.6037 1.66675 10.0013Z" fill="#131313"/>
<path d="M10.0001 5.83203C9.53984 5.83203 9.16675 6.20513 9.16675 6.66536C9.16675 7.1256 9.53984 7.4987 10.0001 7.4987C10.4603 7.4987 10.8334 7.1256 10.8334 6.66536C10.8334 6.20513 10.4603 5.83203 10.0001 5.83203Z" fill="#131313"/>
<path d="M10.8334 9.9987C10.8334 9.53846 10.4603 9.16536 10.0001 9.16536C9.53984 9.16536 9.16675 9.53846 9.16675 9.9987V13.332C9.16675 13.7923 9.53984 14.1654 10.0001 14.1654C10.4603 14.1654 10.8334 13.7923 10.8334 13.332V9.9987Z" fill="#131313"/>
</svg>
