<svg width="24" height="24" viewBox="0 0 24 24" fill="none" xmlns="http://www.w3.org/2000/svg">
<path fill-rule="evenodd" clip-rule="evenodd" d="M12 2C12.5128 2 12.9355 2.38604 12.9933 2.88338L13 3V6C13 6.55228 12.5523 7 12 7C11.4872 7 11.0645 6.61396 11.0067 6.11662L11 6V3C11 2.44772 11.4477 2 12 2ZM6 11C6.55228 11 7 11.4477 7 12C7 12.5128 6.61396 12.9355 6.11662 12.9933L6 13H3C2.44772 13 2 12.5523 2 12C2 11.4872 2.38604 11.0645 2.88338 11.0067L3 11H6ZM6.21251 4.8098C5.82022 4.50478 5.25299 4.53251 4.8925 4.89299C4.50198 5.28352 4.50198 5.91668 4.8925 6.3072L7.0425 8.4572L7.13671 8.54039C7.529 8.84542 8.09623 8.81769 8.45672 8.4572C8.84724 8.06668 8.84724 7.43352 8.45672 7.04299L6.30672 4.89299L6.21251 4.8098Z" fill="#131313"/>
</svg>
