<svg width="16" height="17" viewBox="0 0 16 17" fill="none" xmlns="http://www.w3.org/2000/svg">
<path fill-rule="evenodd" clip-rule="evenodd" d="M3.33301 13.4186H7.99967C8.36634 13.4186 8.66634 13.1186 8.66634 12.752C8.66634 12.3786 8.36634 12.0853 7.99967 12.0853H3.33301C2.95967 12.0853 2.66634 11.7853 2.66634 11.4186V5.99423L7.63274 9.30517C7.73941 9.37183 7.86607 9.41183 7.99941 9.4185L7.97941 9.40517C8.10607 9.3985 8.23274 9.3585 8.34607 9.29183L13.333 5.96721V9.75195C13.333 10.1186 13.6263 10.4186 13.9997 10.4186C14.3663 10.4186 14.6663 10.1186 14.6663 9.75195V4.9208C14.7223 4.75841 14.7145 4.57812 14.6387 4.41902C14.4797 3.4715 13.6536 2.75195 12.6663 2.75195H3.33301C2.22634 2.75195 1.33301 3.64529 1.33301 4.75195V11.4186C1.33301 12.5186 2.22634 13.4186 3.33301 13.4186ZM13.2558 4.43853C13.1437 4.22689 12.9211 4.08529 12.6663 4.08529H3.33301C3.07108 4.08529 2.84854 4.22967 2.73904 4.44477L7.99274 7.94517L13.2558 4.43853ZM12.377 13.4186H9.99967C9.62634 13.4186 9.33301 13.1186 9.33301 12.752C9.33301 12.3786 9.62634 12.0853 9.99967 12.0853H12.3904L11.52 11.2186V11.218C11.2533 10.9513 11.2533 10.5313 11.52 10.2713C11.78 10.0046 12.2 10.0046 12.4667 10.2713L14.4667 12.2713C14.5307 12.3337 14.579 12.4067 14.6115 12.4851C14.6468 12.5665 14.6663 12.6566 14.6663 12.752C14.6663 12.9872 14.5429 13.1949 14.3576 13.3137L12.46 15.2113C12.3333 15.3313 12.16 15.4046 11.9867 15.4046L12 15.4186C11.82 15.4186 11.6467 15.3453 11.5267 15.2253C11.26 14.9653 11.26 14.5386 11.52 14.2786V14.272L12.377 13.4186Z" fill="#131313" />
</svg>
