<svg width="25" height="25" viewBox="0 0 25 25" fill="none" xmlns="http://www.w3.org/2000/svg">
<g id="Map / Map Pin">
<path id="Style" fill-rule="evenodd" clip-rule="evenodd" d="M6.13609 5.13647C2.62139 8.65112 2.62129 14.3495 6.13587 17.8643L10.38 22.1074C11.5516 23.2778 13.4494 23.2778 14.6208 22.1077L18.8641 17.8643C22.3787 14.3495 22.3786 8.65112 18.8639 5.13647C15.3492 1.62183 9.6508 1.62183 6.13609 5.13647ZM17.4497 6.5507C20.1834 9.28431 20.1834 13.7164 17.4499 16.4501L13.2069 20.6931C12.8168 21.0828 12.1842 21.0828 11.7937 20.6927L7.55002 16.45C4.81656 13.7164 4.81664 9.28431 7.55029 6.5507C10.284 3.81709 14.716 3.81709 17.4497 6.5507ZM12.5 7.5002C10.2909 7.5002 8.5 9.29106 8.5 11.5002C8.5 13.7093 10.2909 15.5002 12.5 15.5002C14.7091 15.5002 16.5 13.7093 16.5 11.5002C16.5 9.29106 14.7091 7.5002 12.5 7.5002ZM12.5 9.5002C13.6046 9.5002 14.5 10.3956 14.5 11.5002C14.5 12.6048 13.6046 13.5002 12.5 13.5002C11.3954 13.5002 10.5 12.6048 10.5 11.5002C10.5 10.3956 11.3954 9.5002 12.5 9.5002Z" fill="#131313"/>
</g>
</svg>
