<svg width="21" height="16" viewBox="0 0 21 16" fill="none" xmlns="http://www.w3.org/2000/svg">
<path d="M0.584 10.2C0.584 6.296 2.408 3.048 6.056 0.455998L9.128 2.952C8.328 3.368 7.512 4.024 6.68 4.92C5.848 5.816 5.32 6.68 5.096 7.512C5.48 7.416 5.848 7.368 6.2 7.368C7.224 7.368 8.088 7.736 8.792 8.472C9.528 9.208 9.896 10.152 9.896 11.304C9.896 12.52 9.464 13.576 8.6 14.472C7.736 15.336 6.712 15.768 5.528 15.768C4.184 15.768 3.016 15.272 2.024 14.28C1.064 13.256 0.584 11.896 0.584 10.2ZM11.384 10.2C11.384 6.296 13.208 3.048 16.856 0.455998L19.928 2.952C19.128 3.336 18.312 3.992 17.48 4.92C16.68 5.816 16.152 6.68 15.896 7.512C16.28 7.416 16.648 7.368 17 7.368C18.056 7.368 18.936 7.736 19.64 8.472C20.344 9.208 20.696 10.152 20.696 11.304C20.696 12.52 20.264 13.576 19.4 14.472C18.536 15.336 17.512 15.768 16.328 15.768C14.984 15.768 13.816 15.272 12.824 14.28C11.864 13.256 11.384 11.896 11.384 10.2Z" fill="#D8DADA"/>
</svg>
