<svg width="24" height="24" viewBox="0 0 24 24" fill="none" xmlns="http://www.w3.org/2000/svg">
<path fill-rule="evenodd" clip-rule="evenodd" d="M20.9906 10.8624C20.4258 6.79829 17.2111 3.61486 13.1418 3.08978C10.0031 2.68479 6.95488 3.93845 5.00072 6.27091L5.00012 5L4.99339 4.88338C4.93563 4.38604 4.51296 4 4.00012 4C3.44784 4 3.00012 4.44772 3.00012 5V9L3.00685 9.11663C3.06462 9.61396 3.48729 10 4.00012 10H8.00012L8.11674 9.99328C8.61408 9.93551 9.00012 9.51284 9.00012 9L8.99339 8.88338C8.93563 8.38604 8.51296 8 8.00012 8L6.19018 8.00054C7.68467 5.89751 10.2442 4.73248 12.8858 5.07334C16.0608 5.48301 18.569 7.96679 19.0096 11.1377C19.0857 11.6847 19.5907 12.0665 20.1378 11.9905C20.6848 11.9145 21.0666 11.4094 20.9906 10.8624ZM11.1144 18.9267C7.93941 18.517 5.43126 16.0332 4.9906 12.8624C4.91458 12.3153 4.4095 11.9335 3.86247 12.0095C3.31545 12.0855 2.93362 12.5906 3.00964 13.1377C3.57443 17.2017 6.7891 20.3851 10.8585 20.9102C13.9976 21.3153 17.0462 20.0612 19.0004 17.7281L19.0001 19L19.0069 19.1166C19.0646 19.614 19.4873 20 20.0001 20C20.5524 20 21.0001 19.5523 21.0001 19V15L20.9934 14.8834C20.9356 14.386 20.513 14 20.0001 14H16.0001L15.8835 14.0067C15.3862 14.0645 15.0001 14.4872 15.0001 15L15.0069 15.1166C15.0646 15.614 15.4873 16 16.0001 16L17.8093 16.0005C16.3148 18.1029 13.7556 19.2675 11.1144 18.9267Z" fill="#131313"/>
</svg>
