<svg width="24" height="25" viewBox="0 0 24 25" fill="#000" xmlns="http://www.w3.org/2000/svg">
<path fill-rule="evenodd" clip-rule="evenodd" d="M12.009 3.27152C16.5376 3.28511 20.3509 6.66153 20.9126 11.1552C21.4743 15.6489 18.6095 19.8601 14.2235 20.9879C10.7705 21.8759 7.22135 20.6349 5.05001 18.0137L5.04992 20.2318C5.04992 20.7446 4.66388 21.1673 4.16654 21.2251L4.04992 21.2318C3.53708 21.2318 3.11441 20.8457 3.05665 20.3484L3.04992 20.2318V15.2318C3.04992 14.719 3.43596 14.2963 3.9333 14.2385L4.04992 14.2318H9.04992C9.6022 14.2318 10.0499 14.6795 10.0499 15.2318C10.0499 15.7446 9.66388 16.1673 9.16654 16.2251L9.04992 16.2318L6.20949 16.2327C7.84102 18.6129 10.8267 19.7964 13.7254 19.051C17.1367 18.1737 19.3649 14.8984 18.928 11.4033C18.4911 7.90819 15.5253 5.28208 12.003 5.27152C8.48072 5.26102 5.49921 7.86934 5.04144 11.3618C4.96966 11.9094 4.46755 12.2951 3.91995 12.2233C3.37235 12.1515 2.98662 11.6494 3.0584 11.1018C3.64697 6.61158 7.48033 3.25802 12.009 3.27152Z" />
</svg>
