<svg width="40" height="28" viewBox="0 0 40 28" fill="none" xmlns="http://www.w3.org/2000/svg">
<rect x="0.5" y="0.5" width="39" height="27" rx="2.97826" fill="#1F72CD"/>
<path fill-rule="evenodd" clip-rule="evenodd" d="M7.20676 9.83569L3.47754 18.5081H7.94194L8.4954 17.1253H9.76048L10.3139 18.5081H15.228V17.4527L15.6659 18.5081H18.2078L18.6457 17.4304V18.5081H28.8656L30.1083 17.1612L31.2719 18.5081L36.521 18.5192L32.78 14.1961L36.521 9.83569H31.3533L30.1436 11.1576L29.0166 9.83569H17.8987L16.944 12.0741L15.9669 9.83569H11.5118V10.8551L11.0162 9.83569H7.20676ZM22.4687 11.0672H28.3375L30.1324 13.1047L31.9853 11.0672H33.7802L31.053 14.1949L33.7802 17.2866H31.9039L30.1089 15.2254L28.2466 17.2866H22.4687V11.0672ZM23.917 13.4916V12.3556V12.3546H27.5789L29.1768 14.1713L27.5081 15.998H23.917V14.7578H27.1186V13.4916H23.917ZM8.07133 11.0672H10.2475L12.7211 16.948V11.0672H15.105L17.0155 15.2837L18.7764 11.0672H21.1483V17.2902H19.705L19.6933 12.4139L17.5891 17.2902H16.298L14.182 12.4139V17.2902H11.2128L10.6499 15.8951H7.60874L7.047 17.289H5.45614L8.07133 11.0672ZM8.12793 14.6054L9.12987 12.1201L10.1306 14.6054H8.12793Z" fill="white"/>
<rect x="0.5" y="0.5" width="39" height="27" rx="2.97826" stroke="#D8DADA"/>
</svg>
