<svg width="78" height="28" viewBox="0 0 78 28" fill="none" xmlns="http://www.w3.org/2000/svg">
<rect x="0.5" y="0.5" width="77" height="27" rx="2.97826" fill="white"/>
<path d="M27.8428 15.7119L28.9777 15.1199C29.4885 16.1029 30.2716 16.5832 31.3271 16.5832C32.36 16.5832 33.0636 16.2593 33.0636 15.4885C33.0636 14.7624 32.5302 14.4273 31.1342 14.0139C29.4885 13.5336 28.1606 13.0979 28.1606 11.5005C28.1606 10.0707 29.3409 9.13232 31.0774 9.13232C32.7572 9.13232 33.7446 9.94779 34.2667 10.942L33.2225 11.6569C32.7118 10.8191 31.9968 10.4281 31.0661 10.4281C30.1241 10.4281 29.5793 10.7633 29.5793 11.3776C29.5793 12.1596 30.1922 12.4165 31.5768 12.8298C33.1885 13.299 34.471 13.8129 34.471 15.3991C34.471 16.7731 33.2906 17.8455 31.259 17.8455C29.5793 17.8455 28.3762 16.9854 27.8428 15.7119Z" fill="#474C55"/>
<path d="M35.1318 16.2367C35.1318 14.9297 36.2555 14.0584 39.1156 13.7456V13.5669C39.1156 12.9637 38.7978 12.7067 38.1168 12.7067C37.2656 12.7067 36.5732 13.1201 36.0625 13.5222L35.3702 12.6509C36.0285 12.0588 37.0499 11.5562 38.3211 11.5562C39.9555 11.5562 40.5229 12.3269 40.5229 13.7344V16.2144C40.5229 16.9405 40.5683 17.3873 40.6932 17.6889H39.2631C39.1837 17.4431 39.1269 17.2532 39.1269 16.9181C38.5027 17.5437 37.7763 17.7783 36.8683 17.7783C35.8696 17.7783 35.1318 17.2309 35.1318 16.2367ZM39.1156 16.0021V14.6728C37.4245 14.8962 36.5278 15.3095 36.5278 15.9686C36.5278 16.4489 36.857 16.6947 37.3791 16.6947C38.1055 16.6947 38.6729 16.4266 39.1156 16.0021Z" fill="#474C55"/>
<path d="M42.4745 17.689V12.7739H41.4189V11.6568H42.4745V11.0424C42.4745 10.0371 42.9058 9.25513 44.4493 9.25513C44.7104 9.25513 45.187 9.29981 45.2892 9.31098V10.3945C45.1984 10.3722 44.9714 10.3499 44.8012 10.3499C44.2904 10.3499 43.8818 10.4839 43.8818 11.1318V11.668H45.2211V12.7851H43.8818V17.7002H42.4745V17.689Z" fill="#474C55"/>
<path d="M45.7295 14.673C45.7295 12.383 47.3752 11.5452 48.635 11.5452C50.0083 11.5452 51.3135 12.3495 51.3135 14.807V15.131H47.1369C47.1936 16.2257 47.8746 16.6949 48.7712 16.6949C49.5657 16.6949 50.031 16.438 50.485 15.9911L51.2341 16.7172C50.5985 17.4098 49.7586 17.812 48.6691 17.812C47.1482 17.812 45.7295 16.896 45.7295 14.673ZM50.0197 14.0921C49.9402 13.1761 49.4749 12.6846 48.6237 12.6846C47.9313 12.6846 47.2957 13.0756 47.1596 14.0921H50.0197Z" fill="#474C55"/>
<path d="M52.585 17.689V9.28857H53.6064V13.6228L57.454 9.28857H58.6797L55.7515 12.4834L59.077 17.689H57.9193L55.0819 13.243L53.6064 14.8516V17.689H52.585Z" fill="#878A8F"/>
<path d="M59.373 14.684C59.373 12.5057 60.8485 11.5674 62.1197 11.5674C63.5611 11.5674 64.6507 12.5616 64.6507 14.7287V14.9298H60.3605C60.3945 16.2814 61.189 17.0075 62.1878 17.0075C63.0617 17.0075 63.5611 16.6612 64.0151 16.0357L64.5939 16.5384C64.0264 17.3315 63.2546 17.8118 62.1197 17.8118C60.6783 17.8118 59.373 16.773 59.373 14.684ZM63.7086 14.1813C63.6292 13.1201 63.1071 12.394 62.1083 12.394C61.2911 12.394 60.5194 12.9526 60.3832 14.1813H63.7086Z" fill="#878A8F"/>
<path d="M65.1055 19.8449L65.3325 19.0629C65.5027 19.1076 65.8091 19.1635 66.2291 19.1635C66.8533 19.1635 67.1484 18.9066 67.3868 18.3145L67.6138 17.7225L65.2644 11.7014H66.3085L68.0904 16.5495H68.1131L69.895 11.7014H70.8938L68.2947 18.3704C67.8748 19.4204 67.4095 19.9901 66.2291 19.9901C65.6957 19.9901 65.3665 19.9231 65.1055 19.8449Z" fill="#878A8F"/>
<path d="M71.2432 12.5506C71.2432 12.0367 71.6404 11.6458 72.1625 11.6458C72.6732 11.6458 73.0591 12.0367 73.0591 12.5394C73.0591 13.0533 72.6619 13.4442 72.1398 13.4442C71.6291 13.4442 71.2432 13.0533 71.2432 12.5506ZM72.8662 12.5506C72.8662 12.1373 72.5597 11.8133 72.1398 11.8133C71.7312 11.8133 71.4248 12.1261 71.4248 12.5394C71.4248 12.9527 71.7312 13.2655 72.1511 13.2655C72.5597 13.2655 72.8662 12.9639 72.8662 12.5506ZM71.7879 12.0367H72.1738C72.4122 12.0367 72.5597 12.1373 72.5597 12.3607C72.5597 12.5171 72.4916 12.5953 72.3781 12.6399L72.5711 13.0086H72.3214L72.1398 12.6623H72.0263V13.0086H71.7879V12.0367ZM72.1511 12.4947C72.2533 12.4947 72.3214 12.4612 72.3214 12.3719C72.3214 12.2825 72.2646 12.249 72.1511 12.249H72.0263V12.4947H72.1511Z" fill="#878A8F"/>
<path d="M22.2588 21.9673H13.6104H4.96191V13.4552V4.94312H13.6104H22.2588V13.3994V21.9673Z" fill="white"/>
<path d="M15.9604 17.03L15.5404 16.5161V17.03H14.3033V16.2927C14.1444 16.3374 13.9628 16.3709 13.7585 16.3709H13.5656V17.0188H11.7496L11.4432 16.5943L11.1481 17.0188H8.16314V14.1144H10.7395H11.1481L11.4545 14.5389L11.761 14.1144H22.2595V4.9209H4.96252V11.6457L5.54136 10.3164H6.72172L7.06221 11.0648V10.3164H8.50363L8.71927 10.9531L8.93491 10.3164H15.2907V10.6068C15.5404 10.4057 15.8469 10.3164 16.1987 10.3164H18.1282L18.4687 11.0648V10.3164H19.6036L19.9782 10.9084V10.3164H21.272V13.2208H20.069L19.7058 12.6511V13.2208H17.9466L17.7763 12.7851H17.3677L17.1975 13.2208H16.1647C15.8809 13.2208 15.5518 13.1649 15.2907 12.9527V13.2208H13.5542L13.1343 12.7069V13.2208H6.51743L6.34718 12.7851H5.93859L5.76835 13.2208H4.95117V21.9451H22.2595V16.8513C22.0779 16.963 21.8509 17.03 21.6012 17.03H15.9604Z" fill="#0079C2"/>
<path d="M22.2579 14.5837V14.5725H21.2138C20.7711 14.5725 20.5101 14.8406 20.5101 15.1981C20.5101 15.5779 20.7598 15.7901 21.1457 15.7901H21.611C21.7245 15.7901 21.8153 15.8571 21.8153 15.9689C21.8153 16.0806 21.7358 16.1476 21.611 16.1476H20.5668V16.5721H21.5997C21.9401 16.5721 22.1671 16.4157 22.2579 16.1699C22.2806 16.1029 22.3033 16.0247 22.3033 15.9353C22.3033 15.846 22.292 15.7566 22.2579 15.6896C22.1671 15.4773 21.9628 15.3545 21.6678 15.3545H21.1911C21.0776 15.3545 20.9981 15.2763 20.9981 15.1757C20.9981 15.064 21.0776 14.997 21.1911 14.997H22.065L22.2579 14.5837ZM19.1254 15.1869C19.1254 15.0752 19.2049 15.0082 19.3184 15.0082H20.1923L20.3852 14.5837H19.3297C18.8871 14.5837 18.626 14.8518 18.626 15.2092C18.626 15.589 18.8757 15.8013 19.2616 15.8013H19.727C19.8405 15.8013 19.9312 15.8683 19.9312 15.98C19.9312 16.0917 19.8518 16.1588 19.727 16.1588H18.6828V16.5832H19.7156C20.1582 16.5832 20.4193 16.3151 20.4193 15.9465C20.4193 15.5779 20.1809 15.3656 19.7837 15.3656H19.307C19.2049 15.3656 19.1254 15.2986 19.1254 15.1869ZM16.7874 16.5832H18.4217V16.1588H17.2754V15.7901H18.3877V15.3768H17.2754V15.0193H18.4217V14.5948H16.7874V16.5832ZM16.6739 16.5832L15.9929 15.846C16.3334 15.779 16.549 15.5332 16.549 15.2092C16.549 14.8294 16.2766 14.5725 15.8454 14.5725H14.7331V16.5832H15.2211V15.8683H15.4481L16.0497 16.5832H16.6739ZM15.8 15.4438H15.2325V14.997H15.8C15.9702 14.997 16.061 15.0975 16.061 15.2204C16.0497 15.3545 15.9702 15.4438 15.8 15.4438ZM14.472 15.2428C14.472 14.8406 14.1997 14.5725 13.7684 14.5725H12.6447V16.5832H13.1328V15.9242H13.7457C14.1997 15.9242 14.472 15.6337 14.472 15.2428ZM13.9727 15.2539C13.9727 15.388 13.8819 15.4997 13.7116 15.4997H13.1214V15.0082H13.7116C13.8932 15.0082 13.9727 15.1087 13.9727 15.2539ZM12.5539 16.5832L11.7368 15.5667L12.5539 14.5725H11.9524L11.453 15.2092L10.9536 14.5725H10.3408L11.1579 15.5779L10.3408 16.5832H10.9423L11.4417 15.9353L11.9411 16.5832H12.5539ZM8.62695 16.5832H10.2613V16.1588H9.11499V15.7901H10.2273V15.3768H9.11499V15.0193H10.2613V14.5948H8.62695V16.5832Z" fill="#0D79BF"/>
<path d="M20.8061 12.7961V10.7854H20.3294V11.8466L20.3407 12.0924H20.3294L20.1932 11.869L19.4782 10.7854H18.8766V12.7961H19.3533V11.6791L19.342 11.4445H19.3533L19.4895 11.6679L20.2386 12.7961H20.8061ZM18.2184 12.7961H18.7745L17.9006 10.7854H17.2536L16.3797 12.7961H16.9018L17.072 12.3716H18.0368L18.2184 12.7961ZM17.8779 11.9807H17.2309L17.4239 11.5115L17.5487 11.1987H17.5601L17.6849 11.5115L17.8779 11.9807ZM16.1754 11.2211H16.7088V10.7854H16.1414C15.5058 10.7854 15.1653 11.1987 15.1653 11.7684V11.8019C15.1653 12.4052 15.5171 12.785 16.1073 12.785H16.1414L16.3457 12.3605H16.1981C15.869 12.3605 15.6647 12.1594 15.6647 11.8019V11.7684C15.6533 11.4556 15.8236 11.2211 16.1754 11.2211ZM14.3822 12.7961H14.8702V11.7908V10.7854H14.3822V11.7908V12.7961ZM14.2573 12.7961L13.5763 12.0589C13.9168 11.9918 14.1325 11.7461 14.1325 11.4221C14.1325 11.0423 13.8601 10.7854 13.4288 10.7854H12.3165V12.7961H12.8046V12.0812H13.0315L13.6331 12.7961H14.2573ZM13.3834 11.6567H12.8159V11.2099H13.3834C13.5536 11.2099 13.6444 11.3104 13.6444 11.4333C13.6331 11.5562 13.5536 11.6567 13.3834 11.6567ZM10.353 12.7961H11.9874V12.3716H10.8524V12.003H11.9647V11.5897H10.8524V11.2322H11.9874V10.8077H10.353V12.7961ZM9.50179 12.7961H9.97848V10.7854H9.184L8.78676 11.9472L8.71866 12.1706H8.70731L8.63921 11.9472L8.24198 10.7854H7.4475V12.7961H7.92418V11.478L7.91283 11.1764H7.92418L8.02633 11.478L8.49167 12.7961H8.93431L9.39964 11.478L9.50179 11.1764H9.51314L9.50179 11.478V12.7961ZM6.80056 12.7961H7.3567L6.48277 10.7854H5.83584L4.96191 12.7961H5.484L5.65425 12.3716H6.61897L6.80056 12.7961ZM6.47142 11.9807H5.82449L6.01744 11.5115L6.14228 11.1987H6.15363L6.27848 11.5115L6.47142 11.9807Z" fill="#0D79BF"/>
<rect x="0.5" y="0.5" width="77" height="27" rx="2.97826" stroke="#D8DADA"/>
</svg>
