<svg width="40" height="28" viewBox="0 0 40 28" fill="none" xmlns="http://www.w3.org/2000/svg">
<rect x="0.5" y="0.5" width="39" height="27" rx="2.97826" fill="white"/>
<path fill-rule="evenodd" clip-rule="evenodd" d="M9.53872 10.4219C10.0759 10.4681 10.6131 10.1443 10.9488 9.73377C11.279 9.31165 11.4972 8.74498 11.4413 8.16675C10.9656 8.18988 10.3781 8.49056 10.0423 8.91267C9.73457 9.27696 9.47157 9.86676 9.53872 10.4219ZM15.9285 17.8695V8.85483H19.202C20.892 8.85483 22.0726 10.0576 22.0726 11.8154C22.0726 13.5732 20.8696 14.7875 19.1573 14.7875H17.2827V17.8695H15.9285ZM11.436 10.5318C10.9627 10.5036 10.5309 10.6788 10.1821 10.8204C9.95766 10.9114 9.76758 10.9886 9.62297 10.9886C9.4607 10.9886 9.26277 10.9073 9.04055 10.8161C8.74937 10.6965 8.41647 10.5599 8.06736 10.5664C7.26717 10.578 6.52294 11.0464 6.11445 11.7923C5.2751 13.2842 5.89622 15.493 6.7076 16.7073C7.1049 17.3087 7.58053 17.9679 8.20726 17.9447C8.48298 17.934 8.68131 17.847 8.88657 17.757C9.12288 17.6534 9.36837 17.5457 9.75168 17.5457C10.1217 17.5457 10.3564 17.6506 10.5818 17.7512C10.7961 17.8469 11.0018 17.9388 11.3073 17.9332C11.9564 17.9216 12.3649 17.3318 12.7622 16.7304C13.1909 16.085 13.3793 15.4551 13.4079 15.3595L13.4113 15.3484C13.4106 15.3477 13.4053 15.3452 13.396 15.3408C13.2526 15.273 12.1572 14.7548 12.1466 13.3651C12.1361 12.1987 13.0155 11.6077 13.154 11.5147C13.1624 11.509 13.1681 11.5052 13.1707 11.5032C12.6111 10.6474 11.7382 10.5549 11.436 10.5318ZM24.5474 17.9389C25.3979 17.9389 26.1869 17.4936 26.5451 16.7882H26.573V17.8695H27.8265V13.3824C27.8265 12.0814 26.8193 11.2429 25.2692 11.2429C23.8311 11.2429 22.7679 12.0929 22.7288 13.261H23.9486C24.0494 12.7058 24.5474 12.3416 25.2301 12.3416C26.0582 12.3416 26.5227 12.7405 26.5227 13.4749V13.9722L24.8328 14.0763C23.2604 14.1746 22.4098 14.8395 22.4098 15.996C22.4098 17.164 23.2883 17.9389 24.5474 17.9389ZM24.9101 16.8692C24.1883 16.8692 23.7295 16.5106 23.7295 15.9613C23.7295 15.3947 24.1715 15.0651 25.0165 15.013L26.5217 14.9147V15.4236C26.5217 16.2678 25.8278 16.8692 24.9101 16.8692ZM31.984 18.2222C31.4413 19.8008 30.8201 20.3212 29.4995 20.3212C29.3988 20.3212 29.0631 20.3096 28.9847 20.2865V19.2052C29.0687 19.2168 29.2757 19.2283 29.382 19.2283C29.9808 19.2283 30.3165 18.9681 30.5236 18.2916L30.6467 17.8926L28.3524 11.3296H29.7681L31.3629 16.6552H31.3909L32.9857 11.3296H34.3622L31.984 18.2222ZM17.2841 10.0344H18.8453C20.0204 10.0344 20.6919 10.6821 20.6919 11.8212C20.6919 12.9603 20.0204 13.6137 18.8398 13.6137H17.2841V10.0344Z" fill="black"/>
<rect x="0.5" y="0.5" width="39" height="27" rx="2.97826" stroke="#D8DADA"/>
</svg>
