<svg width="40" height="28" viewBox="0 0 40 28" fill="none" xmlns="http://www.w3.org/2000/svg">
<rect x="0.5" y="0.5" width="39" height="27" rx="2.97826" fill="white"/>
<path fill-rule="evenodd" clip-rule="evenodd" d="M18.892 18.3845V14.86H20.6739C21.4041 14.86 22.0204 14.6102 22.5228 14.1177L22.6434 13.9928C23.5612 12.9729 23.5009 11.3841 22.5228 10.4406C22.0338 9.94105 21.3639 9.67047 20.6739 9.68435H17.8135V18.3845H18.892ZM18.8916 13.7916V10.7528H20.7006C21.0892 10.7528 21.4577 10.9054 21.7324 11.1829C22.3153 11.7657 22.3287 12.737 21.7659 13.3406C21.4912 13.639 21.1026 13.8055 20.7006 13.7916H18.8916ZM27.6744 12.8966C27.2122 12.4595 26.5825 12.2375 25.7853 12.2375C24.7603 12.2375 23.99 12.626 23.4809 13.3961L24.4321 14.0136C24.7804 13.4863 25.2561 13.2227 25.859 13.2227C26.2408 13.2227 26.6092 13.3684 26.8973 13.632C27.1787 13.8818 27.3394 14.2426 27.3394 14.6241V14.8809C26.9241 14.645 26.4016 14.5201 25.7585 14.5201C25.0082 14.5201 24.4053 14.7005 23.9565 15.0682C23.5076 15.4359 23.2799 15.9215 23.2799 16.539C23.2665 17.101 23.5009 17.6352 23.9163 17.996C24.3383 18.3845 24.8742 18.5787 25.5039 18.5787C26.2475 18.5787 26.837 18.2388 27.2858 17.5589H27.3327V18.3845H28.3644V14.7143C28.3644 13.9442 28.1366 13.3337 27.6744 12.8966ZM24.7469 17.2882C24.5258 17.1217 24.3918 16.8512 24.3918 16.5598C24.3918 16.2337 24.5392 15.9631 24.8273 15.748C25.1221 15.533 25.4906 15.4219 25.9261 15.4219C26.5291 15.415 26.9981 15.5538 27.3331 15.8313C27.3331 16.3031 27.1522 16.7124 26.7971 17.0593C26.4755 17.3923 26.04 17.5796 25.5844 17.5796C25.2829 17.5866 24.9881 17.4825 24.7469 17.2882ZM30.6827 21.0001L34.2867 12.4318H33.1144L31.4464 16.7055H31.4263L29.718 12.4318H28.5457L30.9104 18.0029L29.5707 21.0001H30.6827Z" fill="#3C4043"/>
<path d="M15.169 14.0969C15.169 13.757 15.1422 13.417 15.0886 13.084H10.54V15.0058H13.1459C13.0387 15.6233 12.6904 16.1783 12.1813 16.5252V17.774H13.7354C14.6465 16.9068 15.169 15.6233 15.169 14.0969Z" fill="#4285F4"/>
<path d="M10.5408 18.981C11.8404 18.981 12.939 18.5369 13.7362 17.7738L12.182 16.525C11.7466 16.8302 11.1906 17.0037 10.5408 17.0037C9.28141 17.0037 8.21628 16.1226 7.83444 14.9431H6.2334V16.2336C7.05067 17.9195 8.7187 18.981 10.5408 18.981Z" fill="#34A853"/>
<path d="M7.83372 14.9432C7.63272 14.3258 7.63272 13.6528 7.83372 13.0284V11.7449H6.23242C5.54232 13.1533 5.54232 14.8184 6.23242 16.2267L7.83372 14.9432Z" fill="#FBBC04"/>
<path d="M10.5408 10.9678C11.2308 10.954 11.894 11.2245 12.3897 11.7171L13.7697 10.2879C12.8921 9.4415 11.7399 8.97666 10.5408 8.99054C8.7187 8.99054 7.05067 10.059 6.2334 11.7449L7.83444 13.0353C8.21628 11.8489 9.28141 10.9678 10.5408 10.9678Z" fill="#EA4335"/>
<rect x="0.5" y="0.5" width="39" height="27" rx="2.97826" stroke="#D8DADA"/>
</svg>
