<svg width="40" height="28" viewBox="0 0 40 28" fill="none" xmlns="http://www.w3.org/2000/svg">
<rect x="0.5" y="0.5" width="39" height="27" rx="2.97826" fill="white"/>
<path fill-rule="evenodd" clip-rule="evenodd" d="M34.5859 12.778C34.5859 12.4186 34.8677 12.1167 35.2059 12.1167C35.5583 12.1167 35.826 12.4186 35.826 12.778C35.826 13.1374 35.5583 13.4393 35.2059 13.4393C34.8677 13.4537 34.5859 13.1518 34.5859 12.778ZM35.2059 13.2955C35.4737 13.2955 35.671 13.0655 35.671 12.7924C35.671 12.5193 35.4596 12.2892 35.2059 12.2892C34.9382 12.2892 34.7409 12.5193 34.7409 12.7924C34.7409 13.0655 34.9523 13.2955 35.2059 13.2955ZM35.1214 13.0799H34.9945V12.4905H35.2341C35.2764 12.4905 35.3328 12.4905 35.375 12.5193C35.4173 12.548 35.4455 12.6055 35.4455 12.663C35.4455 12.7349 35.4032 12.7924 35.3469 12.8068L35.4455 13.0655H35.3046L35.22 12.8355H35.1214V13.0799ZM35.1214 12.7493H35.1918C35.22 12.7493 35.2482 12.7493 35.2623 12.7349C35.2764 12.7205 35.2905 12.6918 35.2905 12.663C35.2905 12.6486 35.2764 12.6199 35.2623 12.6055C35.2482 12.5911 35.2059 12.5911 35.1918 12.5911H35.1214C35.1355 12.6055 35.1214 12.7493 35.1214 12.7493ZM25.7215 8.36472L25.5524 9.50039C25.186 9.29913 24.9182 9.22725 24.6223 9.22725C23.8472 9.22725 23.3116 10.0323 23.3116 11.168C23.3116 11.9586 23.678 12.433 24.284 12.433C24.5377 12.433 24.8196 12.3467 25.1719 12.1599L24.9887 13.353C24.6082 13.468 24.3545 13.5112 24.0726 13.5112C22.9593 13.5112 22.2547 12.6486 22.2547 11.2686C22.2547 9.41413 23.213 8.10596 24.5941 8.10596C24.7773 8.10596 24.9323 8.12033 25.0591 8.16346L25.496 8.27846C25.5947 8.32159 25.6228 8.32159 25.7215 8.36472ZM22.2688 9.141C22.2406 9.12662 22.1983 9.12662 22.1701 9.12662C21.8319 9.12662 21.6346 9.3135 21.3105 9.81665L21.4091 9.16975H20.4649L19.8307 13.3962H20.8736C21.2541 10.8086 21.3386 10.3629 21.846 10.3629H21.9164C22.0151 9.85978 22.1278 9.48601 22.311 9.141H22.2688ZM16.0679 13.3387C15.7861 13.4393 15.5606 13.4824 15.321 13.4824C14.7996 13.4824 14.5036 13.1518 14.5036 12.548C14.5036 12.433 14.5177 12.3036 14.5318 12.1599L14.6023 11.743L14.6446 11.4123L15.0955 8.52285H16.1243L15.9975 9.141H16.533L16.378 10.1617H15.8706L15.5888 11.9586C15.5747 12.0305 15.5747 12.088 15.5747 12.1311C15.5747 12.3467 15.6874 12.4474 15.927 12.4474C16.0539 12.4474 16.1384 12.433 16.2089 12.4042L16.0679 13.3387ZM11.9669 10.5067C11.9669 11.0386 12.2065 11.4123 12.7561 11.6855C13.1648 11.9011 13.2494 11.9586 13.2494 12.1599C13.2494 12.4186 13.0662 12.548 12.6575 12.548C12.3475 12.548 12.0656 12.5049 11.7274 12.3755L11.5864 13.353L11.6287 13.3674L11.8119 13.4105C11.8824 13.4249 11.9669 13.4393 12.0797 13.4537C12.3193 13.468 12.5166 13.4968 12.6575 13.4968C13.7426 13.4968 14.25 13.0511 14.25 12.088C14.25 11.513 14.0386 11.168 13.5172 10.9092C13.0803 10.6936 13.038 10.6504 13.038 10.4492C13.038 10.2192 13.2071 10.1042 13.5453 10.1042C13.7567 10.1042 14.0245 10.1329 14.2923 10.176L14.4473 9.1985C14.1513 9.141 13.8413 9.11225 13.5312 9.11225C12.3615 9.0835 11.9669 9.71602 11.9669 10.5067ZM33.994 13.3962H33.0075L33.0497 12.9793C32.7679 13.3099 32.4719 13.4537 32.0914 13.4537C31.3304 13.4537 30.8372 12.7493 30.8372 11.6998C30.8372 10.291 31.6123 9.09787 32.5283 9.09787C32.937 9.09787 33.2329 9.28475 33.5289 9.67289L33.7544 8.19221H34.7832L33.994 13.3962ZM32.4578 12.4042C32.9511 12.4042 33.2893 11.8149 33.2893 10.9811C33.2893 10.4492 33.092 10.1473 32.7397 10.1473C32.2746 10.1473 31.9364 10.7367 31.9364 11.5705C31.9223 12.1167 32.1055 12.4042 32.4578 12.4042ZM19.3516 13.3099C18.9992 13.4249 18.6469 13.4824 18.2805 13.4824C17.1249 13.4824 16.5189 12.8355 16.5189 11.5848C16.5189 10.1329 17.294 9.06912 18.3369 9.06912C19.1965 9.06912 19.7321 9.67289 19.7321 10.6073C19.7321 10.9092 19.6898 11.2255 19.6052 11.6567H17.5336C17.5195 11.7286 17.5195 11.7573 17.5195 11.7861C17.5195 12.2892 17.8295 12.5336 18.4355 12.5336C18.8019 12.5336 19.1402 12.4474 19.5207 12.2605C19.5066 12.2605 19.3516 13.3099 19.3516 13.3099ZM18.7738 10.7798C18.7879 10.6936 18.7879 10.6217 18.7879 10.5642C18.7879 10.2192 18.6046 10.0179 18.2946 10.0179C17.9705 10.0179 17.7309 10.291 17.6322 10.7798H18.7738ZM7.79549 13.3962H6.76671L7.35861 9.39976L6.0198 13.3962H5.31516L5.2306 9.42851L4.59643 13.3962H3.62402L4.4555 8.19221H5.94933L5.99161 11.4123L6.9922 8.19221H8.61287L7.79549 13.3962ZM10.4731 11.513C10.3604 11.4986 10.3181 11.4986 10.2335 11.4986C9.64164 11.4986 9.34569 11.7142 9.34569 12.1455C9.34569 12.4042 9.50071 12.5768 9.7262 12.5768C10.149 12.5624 10.459 12.1311 10.4731 11.513ZM11.2341 13.3962H10.3745L10.3886 12.9505C10.1208 13.3099 9.78257 13.4537 9.30341 13.4537C8.7397 13.4537 8.3592 12.9793 8.3592 12.3036C8.3592 11.2686 9.03565 10.6792 10.1772 10.6792C10.304 10.6792 10.4449 10.6936 10.5999 10.7079C10.6281 10.5642 10.6422 10.5067 10.6422 10.4348C10.6422 10.1617 10.459 10.0467 9.97987 10.0467C9.68392 10.0467 9.34569 10.0898 9.12021 10.176L8.96519 10.2192L8.86654 10.2479L9.00747 9.29913C9.5289 9.141 9.86712 9.06912 10.2476 9.06912C11.1355 9.06912 11.6146 9.50039 11.6146 10.3054C11.6146 10.5211 11.6005 10.6648 11.5301 11.1536L11.3187 12.663L11.2764 12.9361L11.2482 13.1518L11.2341 13.3099C11.2482 13.2812 11.2341 13.3962 11.2341 13.3962ZM27.5113 11.513C27.4126 11.4986 27.3563 11.4986 27.2717 11.4986C26.6798 11.4986 26.3839 11.7142 26.3839 12.1455C26.3839 12.4042 26.5389 12.5768 26.7644 12.5768C27.1871 12.5624 27.4972 12.1311 27.5113 11.513ZM28.2582 13.3962H27.3985L27.4126 12.9505C27.1449 13.3099 26.8066 13.4537 26.3275 13.4537C25.7638 13.4537 25.3833 12.9793 25.3833 12.3036C25.3833 11.2686 26.0597 10.6792 27.2012 10.6792C27.314 10.6792 27.469 10.6936 27.624 10.7079C27.6522 10.5642 27.6663 10.5067 27.6663 10.4348C27.6663 10.1617 27.4831 10.0467 27.0039 10.0467C26.708 10.0467 26.3698 10.0898 26.1443 10.176L25.9893 10.2192L25.8906 10.2479L26.0315 9.29913C26.553 9.141 26.8912 9.06912 27.2717 9.06912C28.1595 9.06912 28.6387 9.50039 28.6387 10.3054C28.6387 10.5211 28.6246 10.6648 28.5541 11.1536L28.3428 12.6486L28.3146 12.9218L28.2864 13.1374L28.2723 13.2812L28.2582 13.3962ZM31.1613 9.141C31.1331 9.12662 31.0908 9.12662 31.0627 9.12662C30.7244 9.12662 30.5271 9.3135 30.203 9.81665L30.3016 9.16975H29.3574L28.7233 13.3962H29.7661C30.1466 10.8086 30.2312 10.3629 30.7385 10.3629H30.809C30.8795 9.93165 31.0204 9.52914 31.2036 9.141H31.1613Z" fill="#E52727"/>
<path fill-rule="evenodd" clip-rule="evenodd" d="M26.8072 17.4932C26.8072 18.4563 26.5113 19.017 26.0603 19.017C25.7221 19.0313 25.5248 18.6432 25.5248 18.0826C25.5248 17.4069 25.8207 16.645 26.2999 16.645C26.6804 16.645 26.8072 17.0619 26.8072 17.4932ZM27.836 17.5075C27.836 16.4437 27.3146 15.61 26.3563 15.61C25.2429 15.61 24.5101 16.6163 24.5101 18.0969C24.5101 19.1607 24.947 20.0376 25.9899 20.0376C27.0468 20.0376 27.836 19.2757 27.836 17.5075ZM24.8342 14.8768L24.6792 16.0125C24.3269 15.8112 24.0873 15.7393 23.8196 15.7393C23.1008 15.7393 22.5935 16.5444 22.5935 17.68C22.5935 18.4707 22.9317 18.9451 23.4954 18.9451C23.735 18.9451 24.0028 18.8588 24.3269 18.672L24.1578 19.8651C23.8055 19.9801 23.5659 20.0233 23.2981 20.0233C22.2553 20.0233 21.5929 19.1607 21.5929 17.7807C21.5929 15.9262 22.4948 14.618 23.7773 14.618C23.9464 14.618 24.0873 14.6324 24.2142 14.6756L24.6088 14.7906C24.7215 14.8193 24.7497 14.8337 24.8342 14.8768ZM18.422 15.6387C18.3938 15.6243 18.3516 15.6243 18.3234 15.6243C17.9992 15.6243 17.8301 15.8112 17.5201 16.3144L17.6187 15.6675H16.745L16.1531 19.8939H17.1255C17.4778 17.3063 17.5624 16.8606 18.0274 16.8606C18.0556 16.8606 18.0556 16.8606 18.0979 16.875C18.1825 16.3719 18.3093 15.9981 18.4643 15.6531L18.422 15.6387ZM31.0773 19.8651H30.1613L30.2036 19.4482C29.9358 19.7789 29.654 19.9226 29.3017 19.9226C28.597 19.9226 28.132 19.2182 28.132 18.1688C28.132 16.76 28.8507 15.5668 29.7103 15.5668C30.0908 15.5668 30.3727 15.7537 30.6405 16.1562L30.8519 14.6756H31.8102L31.0773 19.8651ZM29.6399 18.8732C30.1049 18.8732 30.415 18.2838 30.415 17.45C30.415 16.9181 30.2318 16.6306 29.8935 16.6306C29.4567 16.6306 29.1466 17.22 29.1466 18.0538C29.1466 18.5857 29.3157 18.8732 29.6399 18.8732ZM9.33219 19.8508C9.00805 19.9658 8.66983 20.0233 8.3316 20.0233C7.24646 20.0233 6.68275 19.3764 6.68275 18.1257C6.68275 16.6738 7.40148 15.61 8.37388 15.61C9.17717 15.61 9.68451 16.1994 9.68451 17.1481C9.68451 17.45 9.64223 17.7663 9.55767 18.1976H7.64105C7.62696 18.2694 7.62696 18.2982 7.62696 18.3269C7.62696 18.8157 7.92291 19.0601 8.48662 19.0601C8.83894 19.0601 9.14898 18.9738 9.48721 18.787L9.33219 19.8508ZM8.78257 17.335C8.78257 17.2488 8.79666 17.1769 8.79666 17.1194C8.79666 16.7744 8.62755 16.5731 8.3316 16.5731C8.02156 16.5731 7.81017 16.8463 7.71152 17.335H8.78257ZM20.8601 19.8508C20.5359 19.9658 20.1977 20.0233 19.8595 20.0233C18.7743 20.0233 18.2106 19.3764 18.2106 18.1257C18.2106 16.6738 18.9294 15.61 19.9018 15.61C20.7051 15.61 21.2124 16.1994 21.2124 17.1481C21.2124 17.45 21.1701 17.7663 21.0856 18.1976H19.1549C19.1408 18.2694 19.1408 18.2982 19.1408 18.3269C19.1408 18.8157 19.4367 19.0601 20.0004 19.0601C20.3527 19.0601 20.6628 18.9738 21.001 18.787L20.8601 19.8508ZM20.3246 17.335C20.3386 17.2488 20.3386 17.1769 20.3386 17.1194C20.3386 16.7744 20.1695 16.5731 19.8736 16.5731C19.5635 16.5731 19.3522 16.8463 19.2535 17.335H20.3246ZM34.3891 19.8508C34.065 19.9658 33.7268 20.0233 33.3886 20.0233C32.3034 20.0233 31.7397 19.3764 31.7397 18.1257C31.7397 16.6738 32.4584 15.61 33.4449 15.61C34.2482 15.61 34.7556 16.1994 34.7556 17.1481C34.7556 17.45 34.7133 17.7663 34.6287 18.1976H32.698C32.6839 18.2694 32.6839 18.2982 32.6839 18.3269C32.6839 18.8157 32.9799 19.0601 33.5436 19.0601C33.8959 19.0601 34.2059 18.9738 34.5442 18.787L34.3891 19.8508ZM33.8395 17.335C33.8395 17.2488 33.8536 17.1769 33.8536 17.1194C33.8536 16.7744 33.6845 16.5731 33.3886 16.5731C33.0785 16.5731 32.8671 16.8463 32.7685 17.335H33.8395ZM6.45726 15.84C6.27405 15.7106 6.00629 15.5956 5.65397 15.5956C5.25937 15.5956 4.94933 15.6818 4.94933 16.0987C4.94933 16.8463 6.3727 16.5731 6.3727 18.1832C6.3727 19.6495 5.42849 20.0376 4.58292 20.0376C4.20242 20.0376 3.76554 19.9083 3.44141 19.7645L3.68098 18.6863C3.87828 18.8732 4.25879 18.9882 4.59701 18.9882C4.90706 18.9882 5.37212 18.902 5.37212 18.3557C5.37212 17.5075 3.94875 17.8238 3.94875 16.3287C3.94875 14.9631 4.78022 14.5605 5.5976 14.5605C6.04857 14.5605 6.48545 14.6324 6.72502 14.8049L6.45726 15.84ZM12.1648 19.8508C11.9675 19.9514 11.6998 20.0089 11.3052 20.0089C10.4596 20.0089 9.93818 19.1464 9.93818 18.0969C9.93818 16.7169 10.6992 15.6243 11.8125 15.6243C12.0521 15.6243 12.4326 15.725 12.7285 15.8975L12.5172 16.9038C12.3058 16.76 12.0944 16.6738 11.8689 16.6738C11.3475 16.6738 10.981 17.1625 10.981 18.0251C10.981 18.5282 11.2488 18.9307 11.6716 18.9307C11.9253 18.9307 12.1085 18.8732 12.3199 18.7438L12.1648 19.8508ZM15.8008 18.787C15.7444 19.1464 15.7162 19.5201 15.6739 19.8795H14.7438L14.8143 19.2039H14.8002C14.5042 19.6639 14.2083 19.9801 13.6728 19.9801C13.095 19.9801 12.7708 19.3476 12.7708 18.5282C12.7708 18.2407 12.7849 18.0826 12.8413 17.6513L13.1091 15.6962H14.1519L13.8701 17.6657C13.8419 17.8813 13.7996 18.0826 13.7996 18.3126C13.7996 18.557 13.9123 18.8157 14.1942 18.787C14.617 18.787 14.8706 18.2551 14.9411 17.6369L15.2371 15.6962H16.2376L15.8008 18.787ZM35.3475 19.822H35.1924V19.132H34.9669V18.9738H35.5729V19.132H35.3475V19.822ZM36.3903 19.822H36.2353V19.1176L36.0944 19.822H35.9394L35.7984 19.1176V19.822H35.6434V18.9738H35.883L36.0098 19.6495H36.0239L36.1507 18.9738H36.3762C36.3903 18.9738 36.3903 19.822 36.3903 19.822Z" fill="#F3AE12"/>
<rect x="0.5" y="0.5" width="39" height="27" rx="2.97826" stroke="#D8DADA"/>
</svg>
