<svg width="40" height="28" viewBox="0 0 40 28" fill="none" xmlns="http://www.w3.org/2000/svg">
<rect x="0.5" y="0.5" width="39" height="27" rx="2.97826" fill="white"/>
<path fill-rule="evenodd" clip-rule="evenodd" d="M20.3728 20.4705C18.8465 21.759 16.8667 22.5368 14.7033 22.5368C9.87611 22.5368 5.96289 18.6641 5.96289 13.8868C5.96289 9.10956 9.87611 5.23682 14.7033 5.23682C16.8667 5.23682 18.8465 6.01466 20.3728 7.30316C21.899 6.01466 23.8788 5.23682 26.0422 5.23682C30.8694 5.23682 34.7826 9.10956 34.7826 13.8868C34.7826 18.6641 30.8694 22.5368 26.0422 22.5368C23.8788 22.5368 21.899 21.759 20.3728 20.4705Z" fill="#ED0006"/>
<path fill-rule="evenodd" clip-rule="evenodd" d="M20.373 20.4701C22.2521 18.8836 23.4436 16.5229 23.4436 13.8868C23.4436 11.2508 22.2521 8.8901 20.373 7.30353C21.8994 6.01481 23.8793 5.23682 26.0429 5.23682C30.8701 5.23682 34.7833 9.10956 34.7833 13.8868C34.7833 18.6641 30.8701 22.5368 26.0429 22.5368C23.8793 22.5368 21.8994 21.7589 20.373 20.4701Z" fill="#F9A000"/>
<path fill-rule="evenodd" clip-rule="evenodd" d="M20.3723 20.4711C18.4927 18.8846 17.3008 16.5236 17.3008 13.8871C17.3008 11.2506 18.4927 8.88955 20.3723 7.30298C22.2519 8.88955 23.4437 11.2506 23.4437 13.8871C23.4437 16.5236 22.2519 18.8846 20.3723 20.4711Z" fill="#FF5E00"/>
<rect x="0.5" y="0.5" width="39" height="27" rx="2.97826" stroke="#D8DADA"/>
</svg>
