<svg width="40" height="28" viewBox="0 0 40 28" fill="none" xmlns="http://www.w3.org/2000/svg">
<rect x="0.5" y="0.5" width="39" height="27" rx="2.97826" fill="white"/>
<path fill-rule="evenodd" clip-rule="evenodd" d="M11.4789 17.781H9.67529C9.55187 17.781 9.4469 17.8713 9.42765 17.9938L8.69818 22.6477C8.68368 22.7396 8.75436 22.8224 8.84693 22.8224H9.70799C9.83141 22.8224 9.93638 22.7321 9.95563 22.6093L10.1524 21.3541C10.1714 21.2312 10.2766 21.141 10.3998 21.141H10.9707C12.1588 21.141 12.8445 20.5625 13.0236 19.4161C13.1043 18.9145 13.027 18.5204 12.7936 18.2444C12.5373 17.9414 12.0825 17.781 11.4789 17.781ZM11.687 19.4808C11.5884 20.132 11.0939 20.132 10.6157 20.132H10.3436L10.5345 18.9157C10.5459 18.8423 10.6091 18.7881 10.683 18.7881H10.8077C11.1334 18.7881 11.4407 18.7881 11.5995 18.9749C11.6941 19.0864 11.7231 19.252 11.687 19.4808ZM16.8703 19.4599H16.0066C15.933 19.4599 15.8695 19.5141 15.8581 19.5876L15.8199 19.8307L15.7595 19.7426C15.5725 19.4695 15.1556 19.3782 14.7394 19.3782C13.7849 19.3782 12.9698 20.1056 12.811 21.126C12.7285 21.6349 12.8458 22.1216 13.1327 22.4611C13.396 22.7731 13.7726 22.9032 14.2206 22.9032C14.9896 22.9032 15.4162 22.4056 15.4162 22.4056L15.3776 22.6471C15.3631 22.7395 15.4338 22.8222 15.5258 22.8222H16.3038C16.4276 22.8222 16.5319 22.732 16.5514 22.6092L17.0183 19.6345C17.033 19.543 16.9626 19.4599 16.8703 19.4599ZM15.6664 21.1515C15.583 21.648 15.1914 21.9813 14.692 21.9813C14.4412 21.9813 14.2407 21.9003 14.112 21.7469C13.9844 21.5947 13.9358 21.3778 13.9764 21.1363C14.0543 20.644 14.4525 20.2999 14.9444 20.2999C15.1895 20.2999 15.389 20.3818 15.5203 20.5366C15.6519 20.6929 15.7041 20.911 15.6664 21.1515ZM20.6023 19.4598H21.4703C21.5919 19.4598 21.6628 19.597 21.5937 19.6973L18.707 23.8902C18.6602 23.9581 18.5832 23.9985 18.501 23.9985H17.6341C17.5121 23.9985 17.4408 23.8602 17.5114 23.7596L18.4103 22.4829L17.4543 19.6598C17.4213 19.5617 17.4933 19.4598 17.597 19.4598H18.4498C18.5607 19.4598 18.6584 19.533 18.6904 19.6397L19.1977 21.3448L20.3949 19.5704C20.4417 19.5012 20.5196 19.4598 20.6023 19.4598Z" fill="#253B80"/>
<path fill-rule="evenodd" clip-rule="evenodd" d="M30.0131 22.6477L30.7533 17.9087C30.7646 17.8352 30.8279 17.781 30.9015 17.7808H31.7349C31.8269 17.7808 31.8975 17.8638 31.883 17.9556L31.1531 22.6093C31.134 22.7321 31.0291 22.8224 30.9054 22.8224H30.1612C30.0692 22.8224 29.9985 22.7396 30.0131 22.6477ZM24.3442 17.781H22.5403C22.4171 17.781 22.3122 17.8713 22.2929 17.9938L21.5634 22.6477C21.5489 22.7396 21.6196 22.8224 21.7117 22.8224H22.6373C22.7233 22.8224 22.7969 22.7592 22.8104 22.6733L23.0173 21.3541C23.0364 21.2312 23.1416 21.141 23.2647 21.141H23.8354C25.0238 21.141 25.7093 20.5625 25.8886 19.4161C25.9695 18.9145 25.8917 18.5204 25.6584 18.2444C25.4022 17.9414 24.9478 17.781 24.3442 17.781ZM24.5523 19.4808C24.4539 20.132 23.9594 20.132 23.481 20.132H23.2091L23.4003 18.9157C23.4117 18.8423 23.4744 18.7882 23.5485 18.7882H23.6732C23.9987 18.7882 24.3063 18.7881 24.4649 18.9749C24.5596 19.0864 24.5884 19.252 24.5523 19.4808ZM29.7352 19.4599H28.8721C28.7979 19.4599 28.7349 19.5141 28.7238 19.5876L28.6856 19.8307L28.6249 19.7426C28.4379 19.4695 28.0213 19.3782 27.6051 19.3782C26.6506 19.3782 25.8357 20.1056 25.6769 21.126C25.5947 21.6349 25.7115 22.1216 25.9984 22.4611C26.2621 22.7731 26.6383 22.9032 27.0863 22.9032C27.8553 22.9032 28.2817 22.4056 28.2817 22.4056L28.2433 22.6471C28.2288 22.7395 28.2994 22.8222 28.3921 22.8222H29.1697C29.2929 22.8222 29.3978 22.732 29.4171 22.6092L29.8842 19.6345C29.8985 19.543 29.8278 19.4599 29.7352 19.4599ZM28.5313 21.1515C28.4484 21.648 28.0563 21.9813 27.5568 21.9813C27.3065 21.9813 27.1056 21.9003 26.9768 21.7469C26.8492 21.5947 26.8012 21.3778 26.8414 21.1364C26.9196 20.644 27.3173 20.2999 27.8092 20.2999C28.0545 20.2999 28.2538 20.3818 28.3852 20.5366C28.5173 20.6929 28.5695 20.911 28.5313 21.1515Z" fill="#179BD7"/>
<path d="M18.1541 16.1161L18.3759 14.6989L17.8819 14.6874H15.5234L17.1625 4.22957C17.1675 4.19799 17.1841 4.16856 17.2083 4.14766C17.2324 4.12675 17.2634 4.11523 17.2956 4.11523H21.2725C22.5927 4.11523 23.5038 4.39169 23.9795 4.93733C24.2025 5.19331 24.3446 5.4608 24.4133 5.75517C24.4853 6.06405 24.4866 6.43307 24.4162 6.88316L24.4111 6.91601V7.2044L24.6342 7.33155C24.822 7.43179 24.9711 7.54656 25.0856 7.67796C25.2765 7.89682 25.3999 8.17497 25.452 8.50475C25.5058 8.84392 25.488 9.2475 25.3999 9.70442C25.2981 10.23 25.1336 10.6878 24.9115 11.0624C24.707 11.4075 24.4467 11.6937 24.1377 11.9156C23.8426 12.1263 23.492 12.2864 23.0956 12.3888C22.7114 12.4894 22.2735 12.5402 21.7931 12.5402H21.4836C21.2623 12.5402 21.0473 12.6204 20.8786 12.7642C20.7095 12.911 20.5974 13.1114 20.5631 13.3307L20.5398 13.4583L20.1481 15.9561L20.1303 16.0478C20.1256 16.0769 20.1176 16.0914 20.1057 16.1013C20.0951 16.1101 20.0798 16.1161 20.065 16.1161H18.1541Z" fill="#253B80"/>
<path d="M24.8453 6.94946C24.8335 7.02582 24.8199 7.10389 24.8047 7.1841C24.2801 9.89358 22.4859 10.8296 20.1943 10.8296H19.0276C18.7474 10.8296 18.5112 11.0344 18.4675 11.3125L17.8701 15.1249L17.7009 16.2054C17.6725 16.3881 17.8125 16.5527 17.9956 16.5527H20.0651C20.3101 16.5527 20.5182 16.3736 20.5568 16.1304L20.5772 16.0246L20.9669 13.5365L20.9919 13.4C21.03 13.156 21.2385 12.9768 21.4836 12.9768H21.7931C23.798 12.9768 25.3677 12.1577 25.8264 9.78735C26.018 8.79716 25.9188 7.97037 25.4117 7.38888C25.2583 7.21354 25.0679 7.06806 24.8453 6.94946Z" fill="#179BD7"/>
<path d="M24.296 6.7297C24.216 6.70623 24.1332 6.6849 24.0484 6.66571C23.9632 6.64694 23.8758 6.6303 23.786 6.6158C23.4714 6.5646 23.1267 6.54028 22.7574 6.54028H19.6404C19.5636 6.54028 19.4908 6.55777 19.4255 6.58934C19.2817 6.65888 19.1749 6.79583 19.149 6.96349L18.4858 11.1896L18.4668 11.3129C18.5105 11.0347 18.7466 10.83 19.0269 10.83H20.1936C22.4852 10.83 24.2795 9.89354 24.804 7.18448C24.8196 7.10428 24.8328 7.02621 24.8446 6.94985C24.7119 6.87902 24.5682 6.81844 24.4134 6.76681C24.3753 6.75402 24.3359 6.74165 24.296 6.7297Z" fill="#222D65"/>
<path d="M19.1493 6.96328C19.1751 6.79561 19.282 6.65867 19.4257 6.58955C19.4915 6.55798 19.564 6.54049 19.6406 6.54049H22.7578C23.1271 6.54049 23.4717 6.56481 23.7862 6.616C23.8762 6.63051 23.9636 6.64715 24.0487 6.66591C24.1336 6.68512 24.2162 6.70645 24.2964 6.72991C24.3362 6.74186 24.3756 6.75422 24.4141 6.7666C24.5689 6.81822 24.7127 6.87923 24.8453 6.94962C25.0014 5.94834 24.8441 5.2666 24.3061 4.64927C23.713 3.96967 22.6424 3.67871 21.2726 3.67871H17.2957C17.0158 3.67871 16.7772 3.88348 16.7339 4.16207L15.0775 14.7274C15.0448 14.9364 15.205 15.125 15.4145 15.125H17.8697L18.4862 11.1894L19.1493 6.96328Z" fill="#253B80"/>
<rect x="0.5" y="0.5" width="39" height="27" rx="2.97826" stroke="#D8DADA"/>
</svg>
