<svg width="40" height="28" viewBox="0 0 40 28" fill="none" xmlns="http://www.w3.org/2000/svg">
<rect x="0.5" y="0.5" width="39" height="27" rx="2.97826" fill="white"/>
<path d="M9.16443 10.5539C9.25313 10.4178 9.17376 10.2488 9.01503 10.2488H6.49402C5.96648 10.2488 5.54164 10.3896 5.22885 10.676C4.91606 10.9577 4.73399 11.3662 4.69197 11.892L4.57526 13.2676C4.53324 13.7981 4.64062 14.2018 4.90205 14.4835C5.16349 14.7652 5.56032 14.9061 6.09253 14.9061H6.67143V14.9014C6.78347 14.8873 6.84883 14.8169 6.85817 14.6948L6.91419 14.0187C6.9282 13.9108 6.84883 13.8075 6.73679 13.7981C6.72745 13.7981 6.71811 13.7981 6.70878 13.7981H6.38665C6.18123 13.7981 6.03184 13.7511 5.95247 13.6619C5.86844 13.5727 5.84043 13.4178 5.85443 13.2018L5.96181 11.9624C5.98048 11.7464 6.04118 11.5915 6.13922 11.5023C6.23725 11.4131 6.39132 11.3662 6.59673 11.3662H8.29608C8.50149 11.3662 8.69757 11.2582 8.80962 11.0845L9.16443 10.5539Z" fill="#00AF73"/>
<path d="M4.32307 16.4506C4.23437 16.5868 4.31374 16.7558 4.47247 16.7558H7.03082C7.55837 16.7558 7.9832 16.6149 8.29599 16.3332C8.60879 16.0516 8.79086 15.6431 8.83288 15.1173L8.95426 13.7323C8.99628 13.2018 8.8889 12.798 8.62746 12.5163C8.36602 12.2347 7.9692 12.0938 7.43699 12.0891H6.85809V12.0938C6.74604 12.1079 6.68068 12.1783 6.67134 12.3004L6.61532 12.9811C6.60132 13.0891 6.68068 13.1924 6.79273 13.2018C6.80206 13.2018 6.8114 13.2018 6.82074 13.2018H7.1382C7.34361 13.2018 7.49301 13.2487 7.57704 13.3379C7.66107 13.4271 7.68909 13.5821 7.67508 13.798L7.5677 15.0375C7.54903 15.2534 7.48834 15.4084 7.3903 15.4976C7.29226 15.5868 7.1382 15.6337 6.92811 15.6337H5.19142C4.986 15.6337 4.78993 15.7417 4.67788 15.9154L4.32307 16.4506Z" fill="#00AF73"/>
<path d="M12.9973 16.7558H9.70596C9.56591 16.7558 9.50055 16.6854 9.51455 16.5446L10.0374 10.46C10.0514 10.3192 10.1261 10.2488 10.2662 10.2488H13.5575C13.6929 10.2488 13.7536 10.3192 13.7396 10.46L13.6789 11.1502C13.6649 11.291 13.5949 11.3615 13.4595 11.3615H11.354C11.2746 11.3615 11.2326 11.399 11.2232 11.4741L11.1112 12.7887C11.1065 12.8638 11.1392 12.9014 11.2232 12.9014H12.9459C13.086 12.9014 13.1513 12.9718 13.1373 13.1126L13.0766 13.8028C13.0626 13.9436 12.9879 14.014 12.8479 14.014H11.1252C11.0458 14.014 11.0038 14.0516 10.9945 14.1267L10.8731 15.5352C10.8684 15.6103 10.9011 15.6478 10.9851 15.6478H13.086C13.2214 15.6478 13.2821 15.7183 13.2681 15.8591L13.2074 16.5492C13.2027 16.6854 13.128 16.7558 12.9973 16.7558Z" fill="#0E1B2A"/>
<path d="M16.5459 16.7559H15.4488C14.9212 16.7559 14.5244 16.615 14.2583 16.3333C13.9922 16.0517 13.8848 15.6432 13.9315 15.108L14.2116 11.8967C14.2583 11.3662 14.4357 10.9578 14.7532 10.6714C15.0659 10.385 15.4908 10.2441 16.0183 10.2441H17.1154C17.6383 10.2441 18.0351 10.3897 18.3012 10.6761C18.5673 10.9625 18.6794 11.3709 18.6327 11.8967L18.5907 12.3709C18.5767 12.5211 18.4973 12.5963 18.3526 12.5963H17.5076C17.3675 12.5963 17.3022 12.5211 17.3162 12.3709L17.3535 11.9531C17.3722 11.7371 17.3395 11.5822 17.2555 11.493C17.1715 11.4038 17.0221 11.3568 16.8073 11.3568H16.121C15.9156 11.3568 15.7616 11.4038 15.6589 11.493C15.5608 11.5822 15.5001 11.7371 15.4814 11.9531L15.2107 15.0423C15.192 15.2582 15.2247 15.4132 15.3087 15.5024C15.3927 15.5916 15.5375 15.6385 15.7476 15.6385H16.4338C16.6486 15.6385 16.8073 15.5916 16.9053 15.5024C17.0034 15.4132 17.0641 15.2582 17.0828 15.0423L17.1201 14.6291C17.1341 14.4789 17.2088 14.4038 17.3535 14.4038H18.1985C18.3433 14.4038 18.4133 14.4789 18.3993 14.6291L18.3573 15.1033C18.3106 15.6291 18.1285 16.0376 17.811 16.324C17.4936 16.6197 17.0687 16.7606 16.5459 16.7559Z" fill="#0E1B2A"/>
<path d="M21.2273 16.7559H20.3823C20.2329 16.7559 20.1676 16.6855 20.1816 16.5446L20.6251 11.4695C20.6298 11.3944 20.5971 11.3568 20.5224 11.3568H19.3739C19.2339 11.3568 19.1685 11.2864 19.1825 11.1455L19.2432 10.4554C19.2572 10.3146 19.3319 10.2441 19.472 10.2441H23.2768C23.4169 10.2441 23.4822 10.3146 23.4682 10.4554L23.4075 11.1455C23.3935 11.2864 23.3188 11.3568 23.1788 11.3568H22.0303C21.951 11.3568 21.9043 11.3944 21.8996 11.4695L21.4561 16.5446C21.4421 16.6855 21.3674 16.7559 21.2273 16.7559Z" fill="#0E1B2A"/>
<path d="M25.3974 10.46L24.8652 16.5445C24.8512 16.6854 24.7765 16.7558 24.6365 16.7558H23.7821C23.6421 16.7558 23.5767 16.6854 23.5907 16.5445L24.1229 10.46C24.1369 10.3192 24.2116 10.2488 24.3517 10.2488H25.206C25.3461 10.2441 25.4115 10.3145 25.3974 10.46Z" fill="#0E1B2A"/>
<path d="M32.7915 15.6432H33.5058C33.7205 15.6432 33.8793 15.5963 33.9773 15.5071C34.0753 15.4178 34.1314 15.2629 34.1547 15.047L34.4255 11.9578C34.4442 11.7418 34.4115 11.5869 34.3274 11.4977C34.2434 11.4085 34.094 11.3615 33.8793 11.3615H33.1603C32.9456 11.3615 32.7915 11.4085 32.6935 11.4977C32.5954 11.5869 32.5394 11.7418 32.5207 11.9578L32.2499 15.047C32.2313 15.2629 32.2593 15.4178 32.3387 15.5071C32.418 15.5963 32.5721 15.6432 32.7915 15.6432ZM33.6178 16.7559H32.4927C31.9652 16.7559 31.5683 16.615 31.3022 16.3333C31.0361 16.0517 30.9288 15.6432 30.9754 15.108L31.2555 11.8967C31.3022 11.3662 31.4796 10.9578 31.7971 10.6714C32.1146 10.385 32.5347 10.2441 33.0623 10.2441H34.1874C34.7149 10.2441 35.1118 10.385 35.3779 10.6714C35.644 10.9531 35.7513 11.3615 35.7047 11.8967L35.4246 15.108C35.3779 15.6385 35.2005 16.047 34.883 16.3333C34.5655 16.6197 34.15 16.7606 33.6178 16.7559Z" fill="#0E1B2A"/>
<path d="M29.3419 12.4225H30.1962C30.3363 12.4225 30.4156 12.3474 30.4297 12.2019L30.4577 11.8967C30.5043 11.3709 30.3923 10.9625 30.1309 10.6761C29.8694 10.3897 29.4726 10.2441 28.9497 10.2441H27.8806C27.3531 10.2441 26.9282 10.385 26.6155 10.6714C26.3027 10.9578 26.1206 11.3615 26.0739 11.8967L25.7938 15.108C25.7471 15.6385 25.8545 16.047 26.1206 16.3333C26.3867 16.6197 26.7835 16.7606 27.3111 16.7559H28.3755C28.8984 16.7559 29.3185 16.6103 29.6313 16.324C29.9441 16.0376 30.1262 15.6291 30.1729 15.1033L30.3223 13.4132C30.3363 13.2582 30.2663 13.1784 30.1122 13.1784H28.1187C27.9647 13.1784 27.848 13.3474 27.918 13.4836L28.1794 14.0094C28.2681 14.1831 28.4455 14.2911 28.6416 14.2911H28.861C28.9357 14.2911 28.9684 14.3286 28.9637 14.4038L28.9077 15.0423C28.889 15.2582 28.833 15.4132 28.735 15.5024C28.6369 15.5916 28.4829 15.6385 28.2681 15.6385H27.6145C27.4091 15.6385 27.2597 15.5916 27.1757 15.5024C27.0916 15.4132 27.0636 15.2582 27.0776 15.0423L27.3484 11.9531C27.3671 11.7371 27.4278 11.5822 27.5258 11.493C27.6239 11.4038 27.7779 11.3568 27.988 11.3568H28.6416C28.8564 11.3568 29.0057 11.4038 29.0851 11.493C29.1645 11.5822 29.1925 11.7371 29.1738 11.9531L29.1551 12.1972C29.1318 12.3474 29.1972 12.4225 29.3419 12.4225Z" fill="#0E1B2A"/>
<rect x="0.5" y="0.5" width="39" height="27" rx="2.97826" stroke="#D8DADA"/>
</svg>
