<svg width="40" height="28" viewBox="0 0 40 28" fill="none" xmlns="http://www.w3.org/2000/svg">
<rect x="0.5" y="0.5" width="39" height="27" rx="2.97826" fill="white"/>
<path d="M16.6942 14.5034L14.9652 19.1726L14.78 18.2226C14.3477 17.0589 13.412 15.8381 12.3242 15.3394L13.9107 21.3386H15.787L18.5752 14.4939H16.6942V14.5034Z" fill="#11559C"/>
<path d="M18.1807 21.3529L19.2874 14.4939H21.0592L19.9524 21.3529H18.1807Z" fill="#11559C"/>
<path d="M26.374 14.665C26.0225 14.5272 25.4715 14.3752 24.7875 14.3752C23.0347 14.3752 21.8045 15.3062 21.795 16.6362C21.7855 17.6242 22.6737 18.1705 23.3435 18.4982C24.037 18.8355 24.265 19.0492 24.265 19.3485C24.2602 19.8092 23.714 20.0182 23.2057 20.0182C22.498 20.0182 22.1227 19.9137 21.5385 19.662L21.3105 19.5527L21.0635 21.087C21.4767 21.277 22.2415 21.4432 23.0395 21.4527C24.8967 21.4527 26.108 20.5312 26.1222 19.111C26.1317 18.3272 25.6567 17.7382 24.6355 17.249C24.018 16.9307 23.638 16.7217 23.6427 16.3987C23.6427 16.1137 23.961 15.8097 24.6592 15.8097C25.2387 15.8002 25.6567 15.9332 25.9845 16.0757L26.1412 16.1565L26.374 14.665Z" fill="#11559C"/>
<path d="M30.915 14.5034H29.547C29.1243 14.5034 28.806 14.6222 28.616 15.0734L25.9893 21.3577H27.8465C27.8465 21.3577 28.1505 20.5122 28.2218 20.3269C28.426 20.3269 30.231 20.3317 30.4875 20.3317C30.5445 20.5692 30.7013 21.3577 30.7013 21.3577H32.3495L30.915 14.5034ZM28.73 18.9209C28.8773 18.5267 29.433 17.0019 29.433 17.0019C29.4235 17.0209 29.5803 16.6077 29.6705 16.3464L29.7893 16.9354C29.7893 16.9354 30.1313 18.5742 30.2025 18.9162C29.927 18.9209 29.0768 18.9209 28.73 18.9209Z" fill="#11559C"/>
<path d="M13.3552 14.4988H10.5004L10.4814 14.6175C12.6997 15.1875 14.1674 16.5793 14.7754 18.2275L14.1579 15.0735C14.0534 14.6413 13.7399 14.513 13.3552 14.4988Z" fill="#F2A724"/>
<path d="M5.14196 12.841H4.01621L2.70996 6.96999L3.95921 6.76099L4.85221 11.3542L7.12271 6.82274H8.31971L5.14196 12.841Z" fill="#11559C"/>
<path d="M11.018 10.922H8.32471C8.24871 11.739 8.62871 12.0952 9.27471 12.0952C9.81146 12.0952 10.2865 11.8957 10.7947 11.5727L10.79 12.3897C10.2912 12.7032 9.71171 12.9027 9.03246 12.9027C7.85921 12.9027 7.08496 12.233 7.31771 10.7225C7.52671 9.35922 8.47196 8.53271 9.56446 8.53271C10.8232 8.53271 11.2412 9.47796 11.0607 10.6702C11.0512 10.7557 11.0227 10.8602 11.018 10.922ZM9.43146 9.25472C9.01346 9.25472 8.62396 9.58247 8.44346 10.2712H10.1107C10.1392 9.62047 9.93496 9.25472 9.43146 9.25472Z" fill="#11559C"/>
<path d="M12.7701 10.4091L12.3996 12.8126H11.3594L12.0054 8.61833H12.8936V9.45908C13.2451 8.97458 13.7249 8.56608 14.3851 8.52808L14.3899 9.56358C13.7249 9.61108 13.1359 9.95783 12.7701 10.4091Z" fill="#11559C"/>
<path d="M14.3711 12.8125L15.0171 8.61826H16.0573L15.4161 12.8125H14.3711ZM15.6536 7.91526C15.3068 7.91526 15.0646 7.67301 15.1216 7.32626C15.1786 6.97001 15.4921 6.71826 15.8388 6.71826C16.1761 6.71826 16.4183 6.97001 16.3613 7.32626C16.3091 7.67301 15.9956 7.91526 15.6536 7.91526Z" fill="#11559C"/>
<path d="M18.9458 7.47341C18.5895 7.47341 18.3758 7.63016 18.3188 8.00541L18.2238 8.62291H19.0218V9.47316H18.0908L17.5778 12.8124H16.5423L17.0553 9.46841H16.4473L16.5803 8.61816H17.1883L17.2975 7.89616C17.44 6.96516 18.086 6.61841 18.9458 6.61841C19.1263 6.61841 19.264 6.63741 19.3685 6.65166L19.378 7.50191C19.2735 7.49241 19.1215 7.47341 18.9458 7.47341Z" fill="#11559C"/>
<path d="M18.9551 12.8125L19.6011 8.61826H20.6413L20.0001 12.8125H18.9551ZM20.2423 7.91526C19.8956 7.91526 19.6533 7.67301 19.7056 7.32626C19.7626 6.97001 20.0761 6.71826 20.4228 6.71826C20.7601 6.71826 21.0023 6.97001 20.9453 7.32626C20.8931 7.67301 20.5796 7.91526 20.2423 7.91526Z" fill="#11559C"/>
<path d="M24.6879 10.922H21.9946C21.9234 11.739 22.2986 12.0952 22.9446 12.0952C23.4814 12.0952 23.9564 11.8957 24.4646 11.5727L24.4599 12.3897C23.9611 12.7032 23.3816 12.9027 22.7024 12.9027C21.5291 12.9027 20.7549 12.233 20.9876 10.7225C21.1966 9.35922 22.1419 8.53271 23.2344 8.53271C24.4931 8.53271 24.9111 9.47796 24.7306 10.6702C24.7211 10.7557 24.6926 10.8602 24.6879 10.922ZM23.1014 9.25472C22.6834 9.25472 22.2939 9.58247 22.1134 10.2712H23.7806C23.8091 9.62047 23.6049 9.25472 23.1014 9.25472Z" fill="#11559C"/>
<path d="M27.7708 12.8125L27.7755 12.2282C27.424 12.5845 26.968 12.898 26.3885 12.898C25.5098 12.898 24.9065 12.2472 25.125 10.8317C25.3673 9.26898 26.3315 8.57548 27.3053 8.57548C27.7043 8.57548 28.0178 8.64673 28.2553 8.73223L28.5688 6.70873L29.6375 6.54248L28.6733 12.8125H27.7708ZM28.1223 9.59198C27.88 9.46848 27.69 9.41148 27.3338 9.41148C26.7875 9.41148 26.3173 9.85323 26.1795 10.7747C26.056 11.5917 26.341 11.9717 26.8018 11.9717C27.1818 11.9717 27.5143 11.7437 27.8468 11.397L28.1223 9.59198Z" fill="#11559C"/>
<path d="M31.861 12.8551C31.367 12.8551 30.9633 12.7744 30.5928 12.6461L31.2768 8.19064L32.0843 8.06714L31.7898 9.99564C32.0273 9.78664 32.355 9.57289 32.754 9.57289C33.4238 9.57289 33.875 10.0716 33.7088 11.1404C33.5283 12.3089 32.8063 12.8551 31.861 12.8551ZM32.4453 10.2664C32.184 10.2664 31.918 10.4421 31.6853 10.6796L31.462 12.1189C31.6188 12.1759 31.7233 12.2044 31.9465 12.2044C32.4453 12.2044 32.7968 11.9004 32.906 11.1784C33.001 10.5704 32.7968 10.2664 32.4453 10.2664Z" fill="#11559C"/>
<path d="M35.5705 12.9882C35.1667 13.7719 34.7677 14.0142 34.155 14.0142C34.0172 14.0142 33.9412 13.9999 33.87 13.9809L33.8652 13.3302C33.965 13.3587 34.0742 13.3777 34.2262 13.3777C34.4542 13.3777 34.6585 13.2732 34.7915 13.0404L34.896 12.8314L34.2262 9.70118L35.067 9.59668L35.4565 11.8577L36.5062 9.63943H37.29L35.5705 12.9882Z" fill="#11559C"/>
<rect x="0.5" y="0.5" width="39" height="27" rx="2.97826" stroke="#D8DADA"/>
</svg>
