<svg width="40" height="28" viewBox="0 0 40 28" fill="none" xmlns="http://www.w3.org/2000/svg">
<rect x="0.5" y="0.5" width="39" height="27" rx="2.97826" fill="white"/>
<path fill-rule="evenodd" clip-rule="evenodd" d="M12.2171 18.968H9.79387L7.97674 11.8912C7.8905 11.5656 7.70737 11.2778 7.43799 11.1422C6.76572 10.8013 6.02493 10.5301 5.2168 10.3932V10.1208H9.12042C9.65918 10.1208 10.0632 10.5301 10.1306 11.0054L11.0734 16.1102L13.4955 10.1208H15.8513L12.2171 18.968ZM17.1979 18.968H14.9094L16.7939 10.1208H19.0824L17.1979 18.968ZM22.0426 12.5717C22.1099 12.0952 22.514 11.8228 22.9854 11.8228C23.7262 11.7544 24.5332 11.8912 25.2066 12.2309L25.6107 10.326C24.9372 10.0536 24.1964 9.91675 23.5242 9.91675C21.303 9.91675 19.6867 11.1422 19.6867 12.843C19.6867 14.1369 20.8316 14.8163 21.6397 15.2256C22.514 15.6337 22.8507 15.9061 22.7834 16.3142C22.7834 16.9264 22.1099 17.1988 21.4377 17.1988C20.6295 17.1988 19.8214 16.9948 19.0818 16.6539L18.6777 18.5599C19.4859 18.8996 20.3602 19.0365 21.1683 19.0365C23.6589 19.1037 25.2066 17.8794 25.2066 16.0418C25.2066 13.7276 22.0426 13.592 22.0426 12.5717ZM33.2173 18.968L31.4001 10.1208H29.4483C29.0443 10.1208 28.6402 10.3932 28.5055 10.8013L25.1406 18.968H27.4965L27.9667 17.6753H30.8614L31.1308 18.968H33.2173ZM29.7854 12.5034L30.4577 15.8377H28.5732L29.7854 12.5034Z" fill="#172B85"/>
<rect x="0.5" y="0.5" width="39" height="27" rx="2.97826" stroke="#D8DADA"/>
</svg>
