<svg width="80" height="80" viewBox="0 0 80 80" fill="none" xmlns="http://www.w3.org/2000/svg">
<path fill-rule="evenodd" clip-rule="evenodd" d="M38.1296 72.7767L11.699 57.9004C10.6329 57.3004 10 56.2004 10 55.0004V25.0004C10 24.0093 10.4087 23.1044 11.1224 22.4931C11.4093 22.2292 11.7375 22.0236 12.09 21.8803L38.3493 7.10039C39.3487 6.50039 40.6479 6.50039 41.6806 7.10039L54.4668 14.2971C54.8273 14.424 55.167 14.6135 55.4687 14.8609L68.0351 21.9339C68.6537 22.213 69.1951 22.6871 69.5643 23.3336C69.9464 24.0132 70.07 24.7709 69.9633 25.4893V55.0004C69.93 56.2004 69.297 57.3004 68.2643 57.9004L41.7098 72.8465C41.2069 73.1541 40.6173 73.3321 39.9881 73.3333L39.9816 73.3337L39.9747 73.3333C39.2874 73.332 38.6546 73.127 38.1296 72.7767ZM46.516 17.5046L39.9816 13.8337L20.147 24.9763L26.694 28.6613L46.516 17.5046ZM33.4362 32.4561L53.2646 21.2957L59.8535 24.9972L40.0188 36.1611L33.4362 32.4561ZM25.0264 35.3977L36.6503 41.9401V64.2956L16.6626 53.0671V30.6901L24.9817 35.3725C24.9965 35.381 25.0114 35.3894 25.0264 35.3977ZM43.3129 64.2956L63.3007 53.0671V30.732L43.3129 41.982V64.2956Z" fill="#FA8036"/>
</svg>
