<?xml version="1.0" encoding="utf-8"?>
<svg width="24" height="24" viewBox="0 0 142 142" xmlns="http://www.w3.org/2000/svg">
  <defs>
    <clipPath id="clip0_31317_5931">
      <rect width="107.19" height="58" fill="white" transform="translate(19.2405 44)"/>
    </clipPath>
    <clipPath id="clip1_31317_5931">
      <rect width="30.8354" height="58" fill="white" transform="translate(95.595 44)"/>
    </clipPath>
  </defs>
  <mask id="mask0_31317_5931" style="mask-type:luminance" maskUnits="userSpaceOnUse" x="0" y="0" width="142" height="142">
    <circle cx="71" cy="71" r="71" fill="white"/>
  </mask>
  <circle opacity="0.428502" cx="71" cy="71" r="71" fill="#CCD6EC" transform="matrix(1, 0, 0, 1, 1.7763568394002505e-15, 1.7763568394002505e-15)"/>
  <g mask="url(#mask0_31317_5931)" transform="matrix(1, 0, 0, 1, 1.7763568394002505e-15, 1.7763568394002505e-15)">
    <path fill-rule="evenodd" clip-rule="evenodd" d="M114.5 44L172.5 114.5L140.958 158.5L83.991 159L32 101.5H58.0001L98.7915 71.5862L114.5 44Z" fill="#CCD6EC"/>
  </g>
  <g clip-path="url(#clip0_31317_5931)" transform="matrix(1, 0, 0, 1, 1.7763568394002505e-15, 1.7763568394002505e-15)">
    <mask id="mask1_31317_5931" style="mask-type:luminance" maskUnits="userSpaceOnUse" x="19" y="44" width="14" height="23">
      <path d="M32.4376 44L32.071 66.3477H19.2405L32.0436 44.148H32.2187L32.4376 44Z" fill="white"/>
    </mask>
    <g mask="url(#mask1_31317_5931)">
      <mask id="mask2_31317_5931" style="mask-type:luminance" maskUnits="userSpaceOnUse" x="-155" y="-1869" width="789" height="2638">
        <path d="M633.421 -1869H-154.466V768.111H633.421V-1869Z" fill="white"/>
      </mask>
      <g mask="url(#mask2_31317_5931)">
        <path d="M32.0151 44H18.7999V66.7595H32.0151V44Z" fill="#3C5D8C"/>
      </g>
    </g>
    <path d="M95.595 44H31.7216V102H95.595V44Z" fill="#4F73B7"/>
    <g clip-path="url(#clip1_31317_5931)">
      <mask id="mask3_31317_5931" style="mask-type:luminance" maskUnits="userSpaceOnUse" x="95" y="43" width="21" height="60">
        <path d="M115.073 99.7219L95.597 102.188V43.8079L115.341 44.9205V99.3766C115.341 99.5411 115.231 99.689 115.067 99.7219H115.073Z" fill="white"/>
      </mask>
      <g mask="url(#mask3_31317_5931)">
        <mask id="mask4_31317_5931" style="mask-type:luminance" maskUnits="userSpaceOnUse" x="-163" y="-1869" width="789" height="2637">
          <path d="M625.57 -1868.93H-162.211V767.822H625.57V-1868.93Z" fill="white"/>
        </mask>
        <g mask="url(#mask4_31317_5931)">
          <path d="M117.342 41.0675H92.1276V104.928H117.342V41.0675Z" fill="#3C5D8C"/>
        </g>
      </g>
      <mask id="mask5_31317_5931" style="mask-type:luminance" maskUnits="userSpaceOnUse" x="95" y="43" width="32" height="21">
        <path d="M115.341 44.9205L126.594 63.1712H109.115C108.989 63.1657 108.869 63.0999 108.798 62.9958L95.6516 43.8079L115.346 44.7232C115.373 44.7835 115.373 44.8548 115.346 44.9205H115.341Z" fill="white"/>
      </mask>
      <g mask="url(#mask5_31317_5931)">
        <mask id="mask6_31317_5931" style="mask-type:luminance" maskUnits="userSpaceOnUse" x="-162" y="-1869" width="789" height="2637">
          <path d="M626.304 -1868.93H-161.477V767.822H626.304V-1868.93Z" fill="white"/>
        </mask>
        <g mask="url(#mask6_31317_5931)">
          <path d="M129.329 41.0675H92.9108V65.9115H129.329V41.0675Z" fill="#4F73B7"/>
        </g>
      </g>
    </g>
    <mask id="mask7_31317_5931" style="mask-type:luminance" maskUnits="userSpaceOnUse" x="48" y="60" width="38" height="19">
      <path d="M84.635 60.6539H48.715C48.4007 60.6539 48.146 60.9091 48.146 61.224V78.1889C48.146 78.5038 48.4007 78.759 48.715 78.759H84.635C84.9492 78.759 85.204 78.5038 85.204 78.1889V61.224C85.204 60.9091 84.9492 60.6539 84.635 60.6539Z" fill="white"/>
    </mask>
    <g mask="url(#mask7_31317_5931)">
      <mask id="mask8_31317_5931" style="mask-type:luminance" maskUnits="userSpaceOnUse" x="-162" y="-1870" width="789" height="2638">
        <path d="M626.521 -1869.19H-161.366V767.915H626.521V-1869.19Z" fill="white"/>
      </mask>
      <g mask="url(#mask8_31317_5931)">
        <path d="M86.6271 59.6508H44.0977V83.2373H86.6271V59.6508Z" fill="#FDDA24"/>
      </g>
    </g>
  </g>
</svg>