<svg width="16" height="16" viewBox="0 0 16 16" fill="none" xmlns="http://www.w3.org/2000/svg">
<path fill-rule="evenodd" clip-rule="evenodd" d="M5.82473 5.22533L1.57178 5.84223L1.49588 5.8575C1.0052 5.98493 0.825071 6.61243 1.20239 6.97972L4.28406 9.97933L3.55766 14.216L3.54897 14.2894C3.51603 14.7969 4.05811 15.1642 4.52497 14.9187L8.32873 12.9187L12.1239 14.9185L12.1911 14.9495C12.6637 15.1382 13.181 14.7361 13.0918 14.216L12.3647 9.97933L15.4471 6.97972L15.4995 6.92277C15.8217 6.53136 15.5988 5.91775 15.0777 5.84223L10.8241 5.22533L8.92256 1.37163C8.67801 0.876125 7.97145 0.876125 7.7269 1.37163L5.82473 5.22533Z" fill="#EEB442"/>
</svg>
