<svg width="24" height="24" viewBox="0 0 24 24" fill="none" xmlns="http://www.w3.org/2000/svg">
<path fill-rule="evenodd" clip-rule="evenodd" d="M8.24295 7.33995L1.86352 8.26529L1.74968 8.2882C1.01366 8.47934 0.743465 9.4206 1.30944 9.97153L5.93195 14.471L4.84235 20.8259L4.82932 20.936C4.77991 21.6974 5.59302 22.2483 6.29332 21.8801L11.999 18.88L17.6918 21.8796L17.7925 21.9262C18.5014 22.2092 19.2774 21.6061 19.1436 20.8259L18.053 14.471L22.6765 9.97153L22.7551 9.8861C23.2384 9.299 22.9041 8.37858 22.1224 8.26529L15.742 7.33995L12.8897 1.55939C12.5229 0.81614 11.463 0.81614 11.0962 1.55939L8.24295 7.33995ZM11.993 4.26095L14.1822 8.69751L14.2431 8.80386C14.3991 9.04147 14.6504 9.20329 14.9355 9.24461L19.827 9.95295L16.2814 13.4054L16.199 13.4961C16.021 13.7178 15.9446 14.007 15.9933 14.291L16.829 19.164L12.4661 16.8653L12.3544 16.8149C12.0884 16.714 11.7898 16.7307 11.5346 16.8648L7.15595 19.166L7.99256 14.291L8.00585 14.1692C8.01931 13.8852 7.91099 13.6064 7.70447 13.4054L4.15795 9.95295L9.05038 9.24461C9.37624 9.19739 9.65797 8.99278 9.80369 8.69751L11.993 4.26095Z" fill="#EEB442"/>
</svg>
