<svg width="24" height="24" viewBox="0 0 24 24" fill="none" xmlns="http://www.w3.org/2000/svg">
<path d="M21 20C21.5523 20 22 20.4477 22 21C22 21.5128 21.614 21.9355 21.1166 21.9933L21 22H3C2.44772 22 2 21.5523 2 21C2 20.4872 2.38604 20.0645 2.88338 20.0067L3 20H21Z" fill="black"/>
<path d="M5 7.6665C5.51284 7.6665 5.93551 8.12191 5.99327 8.70862L6 8.8462V20.8201C6 21.4717 5.55228 21.9998 5 21.9998C4.48716 21.9998 4.06449 21.5444 4.00673 20.9577L4 20.8201V8.8462C4 8.19467 4.44772 7.6665 5 7.6665Z" fill="black"/>
<path d="M19 7.6665C19.5128 7.6665 19.9355 8.12191 19.9933 8.70862L20 8.8462V20.8201C20 21.4717 19.5523 21.9998 19 21.9998C18.4872 21.9998 18.0645 21.5444 18.0067 20.9577L18 20.8201V8.8462C18 8.19467 18.4477 7.6665 19 7.6665Z" fill="black"/>
<path d="M13.9998 14C15.5975 14 16.9035 15.2489 16.9947 16.8237L16.9998 17V21C16.9998 21.5523 16.5521 22 15.9998 22C15.487 22 15.0643 21.614 15.0065 21.1166L14.9998 21V17C14.9998 16.4872 14.6138 16.0645 14.1164 16.0067L13.9998 16H10C9.48716 16 9.06449 16.386 9.00673 16.8834L9 17V21C9 21.5523 8.55228 22 8 22C7.48716 22 7.06449 21.614 7.00673 21.1166L7 21V17C7 15.4023 8.24892 14.0963 9.82373 14.0051L10 14H13.9998Z" fill="black"/>
<path fill-rule="evenodd" clip-rule="evenodd" d="M19.1402 4H4.84499L3.70113 6.66667L20.1274 6.66667L19.1402 4ZM4.84499 2C4.04517 2 3.32225 2.47652 3.00695 3.21158L1.86309 5.87824C1.29696 7.19805 2.26503 8.66667 3.70113 8.66667H20.1274C21.5202 8.66667 22.4865 7.27856 22.003 5.97236L21.0158 3.30569C20.7253 2.52094 19.977 2 19.1402 2H4.84499Z" fill="black"/>
<path fill-rule="evenodd" clip-rule="evenodd" d="M7.66699 11C7.66699 10.4477 8.11471 10 8.66699 10L15.3337 10C15.8859 10 16.3337 10.4477 16.3337 11C16.3337 11.5523 15.8859 12 15.3337 12L8.66699 12C8.11471 12 7.66699 11.5523 7.66699 11Z" fill="black"/>
</svg>
