<svg width="16" height="16" viewBox="0 0 16 16" fill="none" xmlns="http://www.w3.org/2000/svg">
<g id="Icon">
<path id="Style" fill-rule="evenodd" clip-rule="evenodd" d="M10.663 2.56195C10.6121 1.87204 10.0362 1.32812 9.33333 1.32812H6.66667L6.56716 1.33178C5.87725 1.38268 5.33333 1.95855 5.33333 2.66146V3.99479H3.3411H3.32706H2.66667L2.58892 3.99928C2.25736 4.03779 2 4.31957 2 4.66146C2 5.02965 2.29848 5.32812 2.66667 5.32812H2.71991L3.33564 12.7168L3.33879 12.8286C3.39756 13.8288 4.26821 14.6615 5.33333 14.6615H10.6667L10.7842 14.6581C11.8341 14.5972 12.6667 13.7266 12.6667 12.6615L13.2799 5.32812H13.3333L13.4111 5.32364C13.7426 5.28513 14 5.00335 14 4.66146C14 4.29327 13.7015 3.99479 13.3333 3.99479H10.6667V2.66146L10.663 2.56195ZM9.33333 3.99479V2.66146H6.66667V3.99479H9.33333ZM6 5.32812H4.05766L4.66667 12.6615C4.66667 13.0033 4.92403 13.2851 5.25559 13.3236L5.33333 13.3281H10.6667C11.0103 13.3281 11.2932 13.0681 11.3313 12.6891L11.3356 12.6061L11.9421 5.32812H10H6ZM6.66667 6.66146C7.00856 6.66146 7.29034 6.91882 7.32885 7.25038L7.33333 7.32812V11.3281C7.33333 11.6963 7.03486 11.9948 6.66667 11.9948C6.32478 11.9948 6.043 11.7374 6.00449 11.4059L6 11.3281V7.32812C6 6.95993 6.29848 6.66146 6.66667 6.66146ZM9.99551 7.25038C9.95701 6.91882 9.67522 6.66146 9.33333 6.66146C8.96514 6.66146 8.66667 6.95993 8.66667 7.32812V11.3281L8.67115 11.4059C8.70966 11.7374 8.99144 11.9948 9.33333 11.9948C9.70152 11.9948 10 11.6963 10 11.3281V7.32812L9.99551 7.25038Z" fill="#131313"/>
</g>
</svg>
