<svg width="24" height="24" viewBox="0 0 24 24" fill="none" xmlns="http://www.w3.org/2000/svg">
<path fill-rule="evenodd" clip-rule="evenodd" d="M13 4C13.5128 4 13.9355 4.38604 13.9933 4.88338L14 5H18C18.3074 5 18.595 5.1411 18.7832 5.37816L18.8575 5.4855L21.8575 10.4855L21.894 10.5518L21.937 10.6499L21.9763 10.7825L21.9952 10.8998L22 11V17C22 17.5128 21.614 17.9355 21.1166 17.9933L21 18H19.8293C19.4175 19.1652 18.3062 20 17 20C15.6938 20 14.5825 19.1652 14.1707 18H9.82929C9.41746 19.1652 8.30622 20 7 20C5.69378 20 4.58254 19.1652 4.17071 18H3C2.48716 18 2.06449 17.614 2.00673 17.1166L2 17V13C2 12.4477 2.44772 12 3 12C3.51284 12 3.93551 12.386 3.99327 12.8834L4 13V16H4.17071C4.58254 14.8348 5.69378 14 7 14C8.30622 14 9.41746 14.8348 9.82929 16H12V6H2C1.48716 6 1.06449 5.61396 1.00673 5.11662L1 5C1 4.48716 1.38604 4.06449 1.88338 4.00673L2 4H13ZM20 16H19.8293C19.4175 14.8348 18.3062 14 17 14C15.6938 14 14.5825 14.8348 14.1707 16H14V12H20V16ZM17 18C16.4477 18 16 17.5523 16 17C16 16.4477 16.4477 16 17 16C17.5523 16 18 16.4477 18 17C18 17.5523 17.5523 18 17 18ZM7 18C6.44772 18 6 17.5523 6 17C6 16.4477 6.44772 16 7 16C7.55228 16 8 16.4477 8 17C8 17.5523 7.55228 18 7 18ZM14 10V7H17.434L19.234 10H14ZM8 9C8 8.44772 7.55228 8 7 8H3L2.88338 8.00673C2.38604 8.06449 2 8.48716 2 9C2 9.55228 2.44772 10 3 10H7L7.11662 9.99327C7.61396 9.93551 8 9.51284 8 9Z" fill="#131313"/>
</svg>
