<svg width="25" height="24" viewBox="0 0 25 24" fill="none" xmlns="http://www.w3.org/2000/svg">
<path fill-rule="evenodd" clip-rule="evenodd" d="M9.5 16C7.84315 16 6.5 17.3431 6.5 19C6.5 19.5523 6.94772 20 7.5 20H17.5C18.0523 20 18.5 19.5523 18.5 19C18.5 17.3431 17.1569 16 15.5 16H9.5ZM4.5 19C4.5 16.2386 6.73858 14 9.5 14H15.5C18.2614 14 20.5 16.2386 20.5 19C20.5 20.6569 19.1569 22 17.5 22H7.5C5.84315 22 4.5 20.6569 4.5 19Z" fill="#131313"/>
<path fill-rule="evenodd" clip-rule="evenodd" d="M12.5 4C10.8431 4 9.5 5.34315 9.5 7C9.5 8.65685 10.8431 10 12.5 10C14.1569 10 15.5 8.65685 15.5 7C15.5 5.34315 14.1569 4 12.5 4ZM7.5 7C7.5 4.23858 9.73858 2 12.5 2C15.2614 2 17.5 4.23858 17.5 7C17.5 9.76142 15.2614 12 12.5 12C9.73858 12 7.5 9.76142 7.5 7Z" fill="#131313"/>
</svg>
