<svg width="25" height="24" viewBox="0 0 25 24" fill="none" xmlns="http://www.w3.org/2000/svg">
<path fill-rule="evenodd" clip-rule="evenodd" d="M2.5 12C2.5 6.47715 6.97715 2 12.5 2C18.0228 2 22.5 6.47715 22.5 12C22.5 17.5228 18.0228 22 12.5 22C6.97715 22 2.5 17.5228 2.5 12ZM10.2669 9.86561C10.745 10.1421 11.3567 9.97879 11.6332 9.50073C12.5902 8.1154 14.4401 9.96 12.9234 10.8616C12.6508 11.0237 12.2943 11.2935 12.0231 11.6239C11.7663 11.9368 11.5305 12.3672 11.5028 12.896C11.4992 12.9302 11.4974 12.9649 11.4974 13C11.4974 13.5523 11.9452 14 12.4974 14C13.2597 14 13.4048 13.595 13.5512 13.1864C13.6454 12.9235 13.7401 12.6591 14.0001 12.5C14.8267 11.994 15.5 11.0977 15.5001 10C15.5001 8.34315 14.1569 7 12.5001 7C11.3884 7 10.4192 7.60518 9.90202 8.49927C9.62547 8.97733 9.78884 9.58906 10.2669 9.86561ZM11.4974 16C11.4974 15.4477 11.9452 15 12.4974 15C13.0497 15 13.4974 15.4477 13.4974 16C13.4974 16.5523 13.0497 17 12.4974 17C11.9452 17 11.4974 16.5523 11.4974 16Z" fill="#131313"/>
</svg>
