<svg width="25" height="24" viewBox="0 0 25 24" fill="none" xmlns="http://www.w3.org/2000/svg">
  <path fill-rule="evenodd" clip-rule="evenodd" d="M2.5 12C2.5 6.47715 6.97715 2 12.5 2C18.0228 2 22.5 6.47715 22.5 12C22.5 17.5228 18.0228 22 12.5 22C6.97715 22 2.5 17.5228 2.5 12ZM11.5 8C11.5 7.44772 11.9477 7 12.5 7C13.0523 7 13.5 7.44772 13.5 8V12C13.5 12.5523 13.0523 13 12.5 13C11.9477 13 11.5 12.5523 11.5 12V8ZM11.5 16C11.5 15.4477 11.9477 15 12.5 15C13.0523 15 13.5 15.4477 13.5 16C13.5 16.5523 13.0523 17 12.5 17C11.9477 17 11.5 16.5523 11.5 16Z" fill="#131313"/>
</svg>
