<svg width="24" height="24" viewBox="0 0 24 24" fill="none" xmlns="http://www.w3.org/2000/svg">
<g clip-path="url(#clip0_65_287363)">
<path d="M12 24C18.6274 24 24 18.6274 24 12C24 5.37258 18.6274 0 12 0C5.37258 0 0 5.37258 0 12C0 18.6274 5.37258 24 12 24Z" fill="#F0F0F0"/>
<path d="M2.4813 4.69409C1.53869 5.92048 0.827922 7.334 0.414062 8.86958H6.65678L2.4813 4.69409Z" fill="#0052B4"/>
<path d="M23.5864 8.86953C23.1725 7.334 22.4617 5.92048 21.5191 4.69409L17.3438 8.86953H23.5864Z" fill="#0052B4"/>
<path d="M0.414062 15.1304C0.827969 16.6659 1.53873 18.0794 2.4813 19.3058L6.65664 15.1304H0.414062Z" fill="#0052B4"/>
<path d="M19.3065 2.48061C18.0801 1.538 16.6667 0.827236 15.1311 0.41333V6.656L19.3065 2.48061Z" fill="#0052B4"/>
<path d="M4.69531 21.5191C5.9217 22.4617 7.33522 23.1725 8.87075 23.5864V17.3438L4.69531 21.5191Z" fill="#0052B4"/>
<path d="M8.8707 0.41333C7.33517 0.827236 5.92166 1.538 4.69531 2.48056L8.8707 6.65595V0.41333Z" fill="#0052B4"/>
<path d="M15.1309 23.5864C16.6664 23.1725 18.0799 22.4617 19.3063 21.5191L15.1309 17.3438V23.5864Z" fill="#0052B4"/>
<path d="M17.3438 15.1304L21.5191 19.3058C22.4617 18.0795 23.1725 16.6659 23.5864 15.1304H17.3438Z" fill="#0052B4"/>
<path d="M23.8984 10.4348H13.5653H13.5653V0.101578C13.0529 0.034875 12.5305 0 12 0C11.4694 0 10.9471 0.034875 10.4348 0.101578V10.4347V10.4347H0.101578C0.034875 10.9471 0 11.4695 0 12C0 12.5306 0.034875 13.0529 0.101578 13.5652H10.4347H10.4347V23.8984C10.9471 23.9651 11.4694 24 12 24C12.5305 24 13.0529 23.9652 13.5652 23.8984V13.5653V13.5653H23.8984C23.9651 13.0529 24 12.5306 24 12C24 11.4695 23.9651 10.9471 23.8984 10.4348Z" fill="#D80027"/>
<path d="M15.1309 15.1304L20.4857 20.4852C20.732 20.239 20.9669 19.9817 21.191 19.7148L16.6066 15.1304H15.1309V15.1304Z" fill="#D80027"/>
<path d="M8.87048 15.1304H8.87039L3.51562 20.4851C3.76181 20.7314 4.0192 20.9664 4.28602 21.1905L8.87048 16.6059V15.1304Z" fill="#D80027"/>
<path d="M8.86878 8.8696V8.86951L3.51397 3.51465C3.26769 3.76084 3.03275 4.01823 2.80859 4.28504L7.39311 8.86955H8.86878V8.8696Z" fill="#D80027"/>
<path d="M15.1309 8.8698L20.4857 3.5149C20.2395 3.26862 19.9821 3.03368 19.7153 2.80957L15.1309 7.39409V8.8698Z" fill="#D80027"/>
</g>
<defs>
<clipPath id="clip0_65_287363">
<rect width="24" height="24" fill="white"/>
</clipPath>
</defs>
</svg>
