<svg width="33" height="32" viewBox="0 0 33 32" xmlns="http://www.w3.org/2000/svg">
    <path fill-rule="evenodd" clip-rule="evenodd"
          d="M20.6806 7.9987H12.3994C11.4581 7.9987 10.6189 8.59175 10.3047 9.47905L9.15006 12.7392C9.04762 13.0285 9.26216 13.332 9.56901 13.332H23.4758C23.7809 13.332 23.9953 13.0318 23.8962 12.7433L22.7824 9.49929C22.4742 8.60156 21.6298 7.9987 20.6806 7.9987ZM5.61111 13.9987H5.625C5.07139 14.4873 4.72222 15.2022 4.72222 15.9987V21.7765C4.72222 21.8718 4.72723 21.966 4.73698 22.0587C4.72729 22.1113 4.72222 22.1655 4.72222 22.2209V25.332C4.72222 25.823 5.12019 26.2209 5.61111 26.2209H8.27778C8.7687 26.2209 9.16667 25.823 9.16667 25.332V24.4431H15.2386C14.996 23.8832 14.8209 23.2874 14.7233 22.6657H12.2778V20.4435H14.7104C15.2281 16.874 18.3007 14.132 22.0138 14.132C24.9901 14.132 27.555 15.8938 28.7222 18.4315V15.9987C28.7222 15.2022 28.3731 14.4873 27.8194 13.9987H27.8333C28.447 13.9987 28.9444 13.5012 28.9444 12.8876C28.9444 12.2739 28.447 11.7765 27.8333 11.7765H26.3837L25.3046 8.63334C24.6265 6.65833 22.7688 5.33203 20.6806 5.33203H12.3994C10.3286 5.33203 8.48235 6.63675 7.79101 8.5888L6.66206 11.7765H5.61111C4.99746 11.7765 4.5 12.2739 4.5 12.8876C4.5 13.5012 4.99746 13.9987 5.61111 13.9987ZM28.3506 26.055L26.5534 24.2578L26.5534 24.2578L28.3506 26.055C28.3506 26.055 28.3506 26.055 28.3506 26.055ZM16.8351 22.6657C16.9359 23.1204 17.0951 23.553 17.3044 23.9555C17.0951 23.553 16.936 23.1204 16.8352 22.6657H16.8351ZM16.8171 20.4435H16.817C17.3114 18.0261 19.4502 16.2076 22.0138 16.2076C22.7735 16.2076 23.4958 16.3673 24.1492 16.655L24.1489 16.655C23.4957 16.3674 22.7734 16.2078 22.0139 16.2078C19.4504 16.2078 17.3116 18.0262 16.8171 20.4435ZM25.7873 17.7842C25.9298 17.9283 26.0641 18.0807 26.1894 18.2403C26.0641 18.0806 25.9298 17.9283 25.7874 17.7841L25.7873 17.7842ZM8.59704 16.5774C7.99912 16.5109 7.50927 17.0452 7.62725 17.6352L7.69038 17.9508C7.77348 18.3663 8.13829 18.6654 8.56201 18.6654H10.6948C11.2731 18.6654 11.6974 18.1219 11.5572 17.5609L11.5388 17.4872C11.4486 17.1267 11.1438 16.8604 10.7746 16.8193L8.59704 16.5774ZM10.0556 22.4431C10.0556 22.8113 9.75708 23.1098 9.38889 23.1098C9.0207 23.1098 8.72222 22.8113 8.72222 22.4431C8.72222 22.075 9.0207 21.7765 9.38889 21.7765C9.75708 21.7765 10.0556 22.075 10.0556 22.4431Z"/>
    <path fill-rule="evenodd" clip-rule="evenodd"
          d="M22.056 17.112C19.6014 17.112 17.6115 19.1019 17.6115 21.5565C17.6115 24.0112 19.6014 26.001 22.056 26.001C23.0831 26.001 24.0288 25.6527 24.7814 25.0676L27.7742 28.0604L27.8265 28.1066C28.0445 28.276 28.3596 28.2606 28.5599 28.0604C28.7768 27.8434 28.7768 27.4916 28.5599 27.2747L25.5671 24.2819C26.1522 23.5293 26.5006 22.5836 26.5006 21.5565C26.5006 19.1019 24.5107 17.112 22.056 17.112ZM22.0558 18.2229C23.8968 18.2229 25.3892 19.7153 25.3892 21.5563C25.3892 23.3973 23.8968 24.8897 22.0558 24.8897C20.2148 24.8897 18.7224 23.3973 18.7224 21.5563C18.7224 19.7153 20.2148 18.2229 22.0558 18.2229Z"/>
    <path fill-rule="evenodd" clip-rule="evenodd"
          d="M27.7742 28.0604L24.7814 25.0676C24.0288 25.6527 23.0831 26.001 22.056 26.001C19.6014 26.001 17.6115 24.0112 17.6115 21.5565C17.6115 19.1019 19.6014 17.112 22.056 17.112C24.5107 17.112 26.5006 19.1019 26.5006 21.5565C26.5006 22.5836 26.1522 23.5293 25.5671 24.2819L28.5599 27.2747C28.7768 27.4916 28.7768 27.8434 28.5599 28.0604C28.3596 28.2606 28.0445 28.276 27.8265 28.1066L27.7742 28.0604ZM26.4299 24.2019C26.8976 23.43 27.167 22.524 27.167 21.5564C27.167 18.7336 24.8787 16.4453 22.0559 16.4453C19.2331 16.4453 16.9448 18.7336 16.9448 21.5564C16.9448 24.3792 19.2331 26.6675 22.0559 26.6675C23.0236 26.6675 23.9295 26.3981 24.7014 25.9304L27.3172 28.5462L27.4007 28.6199L27.4171 28.6327C27.8971 29.0059 28.5901 28.9725 29.0311 28.5316C29.5084 28.0543 29.5084 27.2804 29.0311 26.8031L26.4299 24.2019ZM24.7224 21.5562C24.7224 20.0834 23.5285 18.8895 22.0557 18.8895C20.583 18.8895 19.3891 20.0834 19.3891 21.5562C19.3891 23.029 20.583 24.2229 22.0557 24.2229C23.5285 24.2229 24.7224 23.029 24.7224 21.5562ZM25.3892 21.5563C25.3892 19.7153 23.8968 18.2229 22.0558 18.2229C20.2148 18.2229 18.7224 19.7153 18.7224 21.5563C18.7224 23.3973 20.2148 24.8897 22.0558 24.8897C23.8968 24.8897 25.3892 23.3973 25.3892 21.5563Z"/>
</svg>
