<svg width="16" height="17" viewBox="0 0 16 17" fill="none" xmlns="http://www.w3.org/2000/svg">
<path fill-rule="evenodd" clip-rule="evenodd" d="M7.99935 2.93066C10.86 2.93066 13.2412 4.5498 15.1091 7.69999L15.2556 7.95261L15.2861 8.01922L15.3054 8.07468L15.3151 8.11108L15.3247 8.166L15.332 8.23297L15.3315 8.3066L15.3226 8.38027C15.3183 8.40476 15.3126 8.42915 15.3054 8.45332L15.2795 8.52504L15.2556 8.57538L15.2448 8.59477C13.402 11.8196 11.045 13.5155 8.20781 13.5944L7.99935 13.5973C5.06895 13.5973 2.64167 11.8983 0.753861 8.59477C0.636734 8.38981 0.636734 8.13819 0.753861 7.93322C2.64167 4.62974 5.06895 2.93066 7.99935 2.93066ZM7.99935 4.264C5.72624 4.264 3.7988 5.52718 2.18507 8.1346L2.10668 8.264L2.18507 8.39339C3.75269 10.9263 5.61636 12.1907 7.80536 12.2609L7.99935 12.264C10.2725 12.264 12.1999 11.0008 13.8136 8.39339L13.8913 8.264L13.8136 8.1346C12.246 5.60168 10.3823 4.33728 8.19334 4.26709L7.99935 4.264ZM7.99935 6.264C6.89478 6.264 5.99935 7.15943 5.99935 8.264C5.99935 9.36857 6.89478 10.264 7.99935 10.264C9.10392 10.264 9.99935 9.36857 9.99935 8.264C9.99935 7.15943 9.10392 6.264 7.99935 6.264ZM7.99935 7.59733C8.36754 7.59733 8.66602 7.89581 8.66602 8.264C8.66602 8.63219 8.36754 8.93066 7.99935 8.93066C7.63116 8.93066 7.33268 8.63219 7.33268 8.264C7.33268 7.89581 7.63116 7.59733 7.99935 7.59733Z" fill="#002980"/>
</svg>
