<svg width="24" height="24" viewBox="0 0 24 24" fill="none" xmlns="http://www.w3.org/2000/svg">
<path fill-rule="evenodd" clip-rule="evenodd" d="M21.75 8.33832C19.2822 5.54006 15.731 3.93701 12 3.93701L11.6275 3.94234C8.03346 4.04521 4.63557 5.63334 2.25 8.33832L2.20971 8.38686L2.17288 8.43755L2.14039 8.48835L2.08493 8.59582L2.06143 8.65391L2.02693 8.7684L2.0156 8.82333L2.00174 8.94073L2 9.00336L2.00174 9.05879L2.0156 9.17619L2.02858 9.23749L2.04333 9.2916L2.06349 9.35094L2.08493 9.4037L2.14039 9.51116L2.1741 9.56399L2.20971 9.61266L2.24964 9.66094L2.2929 9.70686L7.7929 15.2069L7.88642 15.2895C8.27584 15.5928 8.8385 15.5682 9.2 15.2139C9.54971 14.8711 9.94662 14.6054 10.3695 14.4168L10.7211 16.4621C10.2804 16.8289 10 17.3816 10 17.9998C10 19.1043 10.8954 19.9998 12 19.9998C13.1046 19.9998 14 19.1043 14 17.9998C14 17.1385 13.4556 16.4043 12.6921 16.1227L12.3418 14.085C13.2363 14.1613 14.11 14.5376 14.8 15.2139C15.1916 15.5978 15.8193 15.5946 16.2071 15.2069L21.7071 9.70686L21.793 9.60907C22.081 9.23507 22.0701 8.7013 21.75 8.33832ZM11.9956 12.0705C13.1089 12.0697 14.2225 12.3769 15.1977 12.9922L15.434 13.1498L19.599 8.98476L19.5482 8.93538C17.5975 7.09503 15.0335 6.02486 12.3376 5.94219L12 5.93701C11.6478 5.93701 11.2974 5.9539 10.95 5.98719L11.9956 12.0705ZM8.98448 6.35837C7.29835 6.83909 5.74113 7.71901 4.45183 8.93538L4.4 8.98476L8.565 13.1498L8.58006 13.1395C9.03259 12.8249 9.5187 12.5797 10.0236 12.404L8.98448 6.35837Z" fill="#131313"/>
</svg>
