<svg width="25" height="25" viewBox="0 0 25 25" fill="none" xmlns="http://www.w3.org/2000/svg">
    <g id="Custom / Brand X" clip-path="url(#clip0_1359_167730)">
        <path id="Vector (Stroke)" fill-rule="evenodd" clip-rule="evenodd" d="M3.14918 3.6367C3.31977 3.30005 3.66513 3.08789 4.04253 3.08789H8.31597C8.635 3.08789 8.93495 3.23989 9.12361 3.49715L20.8743 19.5213C21.0975 19.8257 21.1306 20.2296 20.96 20.5663C20.7895 20.9029 20.4441 21.1151 20.0667 21.1151H15.7932C15.4742 21.1151 15.1743 20.9631 14.9856 20.7058L3.2349 4.68165C3.01172 4.3773 2.97858 3.97334 3.14918 3.6367ZM6.01888 5.09091L16.3008 19.1121H18.0903L7.80846 5.09091H6.01888Z" fill="#131313"/>
        <path id="Vector (Stroke)_2" fill-rule="evenodd" clip-rule="evenodd" d="M20.7749 3.38123C21.166 3.77234 21.166 4.40646 20.7749 4.79758L13.9926 11.5798C13.6015 11.9709 12.9674 11.9709 12.5763 11.5798C12.1852 11.1887 12.1852 10.5546 12.5763 10.1635L19.3585 3.38123C19.7496 2.99011 20.3837 2.99011 20.7749 3.38123ZM11.5289 12.6272C11.92 13.0183 11.92 13.6524 11.5289 14.0435L4.7507 20.8217C4.35959 21.2129 3.72547 21.2129 3.33435 20.8217C2.94324 20.4306 2.94324 19.7965 3.33435 19.4054L10.1126 12.6272C10.5037 12.2361 11.1378 12.2361 11.5289 12.6272Z" fill="#131313"/>
    </g>
    <defs>
        <clipPath id="clip0_1359_167730">
            <rect width="24.0362" height="24.0362" fill="white" transform="translate(0.0361328 0.0839844)"/>
        </clipPath>
    </defs>
</svg>