<svg width="16" height="16" viewBox="0 0 16 16" xmlns="http://www.w3.org/2000/svg">
<path fill-rule="evenodd" clip-rule="evenodd" d="M6.66668 1.33496C3.72116 1.33496 1.33334 3.72278 1.33334 6.66829C1.33334 9.61381 3.72116 12.0016 6.66668 12.0016C7.89915 12.0016 9.03398 11.5836 9.93711 10.8815L13.5286 14.473L13.5914 14.5285C13.8529 14.7318 14.2311 14.7134 14.4714 14.473C14.7318 14.2127 14.7318 13.7906 14.4714 13.5302L10.8799 9.93872C11.582 9.0356 12 7.90077 12 6.66829C12 3.72278 9.6122 1.33496 6.66668 1.33496ZM6.66668 2.66829C8.87582 2.66829 10.6667 4.45916 10.6667 6.66829C10.6667 8.87743 8.87582 10.6683 6.66668 10.6683C4.45754 10.6683 2.66668 8.87743 2.66668 6.66829C2.66668 4.45916 4.45754 2.66829 6.66668 2.66829ZM9.33334 6.66829C9.33334 6.3001 9.03487 6.00163 8.66668 6.00163H7.33334V4.66829L7.32886 4.59055C7.29035 4.25899 7.00857 4.00163 6.66668 4.00163C6.29849 4.00163 6.00001 4.3001 6.00001 4.66829V6.00163H4.66668L4.58893 6.00611C4.25737 6.04462 4.00001 6.3264 4.00001 6.66829C4.00001 7.03648 4.29849 7.33496 4.66668 7.33496H6.00001V8.66829L6.0045 8.74604C6.04301 9.0776 6.32479 9.33496 6.66668 9.33496C7.03487 9.33496 7.33334 9.03648 7.33334 8.66829V7.33496H8.66668L8.74442 7.33048C9.07598 7.29197 9.33334 7.01018 9.33334 6.66829Z" />
</svg>
