<?xml version="1.0" encoding="utf-8"?>
<!-- Generator: Adobe Illustrator 15.0.0, SVG Export Plug-In . SVG Version: 6.00 Build 0)  -->
<!DOCTYPE svg PUBLIC "-//W3C//DTD SVG 1.1//EN" "http://www.w3.org/Graphics/SVG/1.1/DTD/svg11.dtd">
<svg version="1.1" id="Layer_1" xmlns="http://www.w3.org/2000/svg" xmlns:xlink="http://www.w3.org/1999/xlink" x="0px" y="0px"
	 width="10px" height="12px" viewBox="0 0 10 12" enable-background="new 0 0 10 12" xml:space="preserve">
<g>
	<path fill-rule="evenodd" clip-rule="evenodd" fill="#C1C1C1" d="M7.875,3.168L5.859,0.5L5.587,1.869
		c-2.582-0.298-5,1.381-5.497,3.888c-0.52,2.622,1.257,5.153,3.969,5.656c2.711,0.501,5.33-1.216,5.851-3.837
		c0.226-1.138,0.017-2.258-0.512-3.204L7.907,5.35c0.278,0.574,0.381,1.232,0.249,1.901c-0.334,1.687-2.018,2.79-3.761,2.467
		C2.652,9.395,1.509,7.767,1.843,6.082C2.155,4.512,3.639,3.447,5.25,3.57L4.985,4.907L7.875,3.168z M7.875,3.168"/>
</g>
</svg>
