<?xml version="1.0" encoding="utf-8"?>
<!-- Generator: Adobe Illustrator 15.0.0, SVG Export Plug-In . SVG Version: 6.00 Build 0)  -->
<!DOCTYPE svg PUBLIC "-//W3C//DTD SVG 1.1//EN" "http://www.w3.org/Graphics/SVG/1.1/DTD/svg11.dtd">
<svg version="1.1" id="Layer_1" xmlns="http://www.w3.org/2000/svg" xmlns:xlink="http://www.w3.org/1999/xlink" x="0px" y="0px"
	 width="12px" height="12px" viewBox="0 0 12 12" enable-background="new 0 0 12 12" xml:space="preserve">
<g>
	<path fill="#C9C9C9" d="M5.998,0C2.687,0,0,2.686,0,6.001C0,9.314,2.687,12,5.998,12C9.313,12,12,9.314,12,6.001
		C12,2.686,9.313,0,5.998,0L5.998,0z M8.578,7.625L7.622,8.58c0,0-1.51-1.623-1.624-1.623c-0.11,0-1.624,1.623-1.624,1.623
		L3.42,7.625c0,0,1.624-1.49,1.624-1.622c0-0.136-1.624-1.626-1.624-1.626l0.954-0.955c0,0,1.527,1.622,1.624,1.622
		c0.099,0,1.624-1.622,1.624-1.622l0.956,0.955c0,0-1.624,1.513-1.624,1.626C6.954,6.11,8.578,7.625,8.578,7.625L8.578,7.625z
		 M8.578,7.625"/>
</g>
</svg>
