<?xml version="1.0" encoding="utf-8"?>
<!-- Generator: Adobe Illustrator 15.0.2, SVG Export Plug-In . SVG Version: 6.00 Build 0)  -->
<!DOCTYPE svg PUBLIC "-//W3C//DTD SVG 1.1//EN" "http://www.w3.org/Graphics/SVG/1.1/DTD/svg11.dtd">
<svg version="1.1" id="Layer_1" xmlns="http://www.w3.org/2000/svg" xmlns:xlink="http://www.w3.org/1999/xlink" x="0px" y="0px"
	 width="36px" height="36px" viewBox="0 0 36 36" enable-background="new 0 0 36 36" xml:space="preserve">
<path fill="#F39C11" d="M18,2c8.822,0,16,7.178,16,16s-7.178,16-16,16C9.178,34,2,26.822,2,18S9.178,2,18,2 M18,0
	C8.059,0,0,8.059,0,18c0,9.941,8.059,18,18,18c9.941,0,18-8.059,18-18C36,8.059,27.941,0,18,0L18,0z"/>
<path fill="#F39C11" d="M24.943,24.036c-0.42-0.642-1.293-0.848-1.918-0.411c-1.793,1.261-4.196,0.047-4.419-0.016
	c-0.825-0.215-1.887-0.176-2.918-0.033c0.151-0.34,0.277-0.689,0.396-1.063c0.317-0.999,0.484-2.014,0.5-2.975h2.95
	c0.771,0,1.388-0.618,1.388-1.388c0-0.769-0.617-1.387-1.388-1.387h-3.378c0-0.009-0.008-0.023-0.008-0.031
	c-0.658-1.777-0.27-4.854,1.666-5.124c2.586-0.35,3.063,2.331,3.069,2.419c0.064,0.705,0.659,1.253,1.38,1.253
	c1.342,0,1.396-1.276,1.373-1.562l0,0c-0.017-0.128-0.683-5.172-5.83-4.887c-4.751,0.271-4.981,6.425-4.569,7.932h-0.991
	c-0.77,0-1.388,0.618-1.388,1.387c0,0.77,0.619,1.388,1.388,1.388h1.563c-0.056,2.063-1.095,4.339-2.308,5.116
	c-0.587,0.38-0.864,1.166-0.508,1.768c0.54,0.897,1.547,0.771,1.69,0.716c1.538-0.516,4.171-1.119,5.218-0.842
	c0.206,0.058,3.591,1.778,6.631-0.349C25.165,25.511,25.364,24.679,24.943,24.036z"/>
</svg>
