<?xml version="1.0" encoding="utf-8"?>
<!-- Generator: Adobe Illustrator 15.0.0, SVG Export Plug-In . SVG Version: 6.00 Build 0)  -->
<!DOCTYPE svg PUBLIC "-//W3C//DTD SVG 1.1//EN" "http://www.w3.org/Graphics/SVG/1.1/DTD/svg11.dtd">
<svg version="1.1" id="Layer_1" xmlns="http://www.w3.org/2000/svg" xmlns:xlink="http://www.w3.org/1999/xlink" x="0px" y="0px"
	 width="28px" height="26px" viewBox="0 0 28 26" enable-background="new 0 0 28 26" xml:space="preserve">
<g>
	<g>
		<path fill="#E05C0B" d="M13.999,13.866c-0.395,0-0.792-0.132-1.119-0.402c-0.742-0.613-0.843-1.705-0.224-2.441l8.749-10.399
			c0.618-0.735,1.721-0.834,2.466-0.22c0.741,0.612,0.843,1.704,0.224,2.44l-8.751,10.4C14.998,13.653,14.501,13.866,13.999,13.866
			L13.999,13.866z M28,12.134v1.732c0,0.959-0.783,1.734-1.75,1.734L24.5,26h-21L1.75,15.601c-0.967,0-1.75-0.775-1.75-1.734v-1.732
			C0,11.175,0.783,10.4,1.75,10.4h10.292l-0.059,0.069c-0.927,1.102-0.776,2.744,0.337,3.661c0.471,0.39,1.066,0.603,1.679,0.603
			c0.782,0,1.517-0.34,2.018-0.935l2.859-3.398h7.374C27.218,10.4,28,11.176,28,12.134L28,12.134z M7.875,18.2
			c0-0.479-0.392-0.867-0.875-0.867S6.125,17.721,6.125,18.2v5.2c0,0.479,0.392,0.866,0.875,0.866s0.875-0.388,0.875-0.866V18.2z
			 M11.375,18.2c0-0.479-0.392-0.867-0.875-0.867S9.625,17.721,9.625,18.2v5.2c0,0.479,0.392,0.866,0.875,0.866
			s0.875-0.388,0.875-0.866V18.2z M14.875,18.2c0-0.479-0.392-0.867-0.875-0.867s-0.875,0.388-0.875,0.867v5.2
			c0,0.479,0.392,0.866,0.875,0.866s0.875-0.388,0.875-0.866V18.2z M18.375,18.2c0-0.479-0.392-0.867-0.875-0.867
			s-0.875,0.388-0.875,0.867v5.2c0,0.479,0.392,0.866,0.875,0.866s0.875-0.388,0.875-0.866V18.2z M21.875,18.2
			c0-0.479-0.392-0.867-0.875-0.867s-0.875,0.388-0.875,0.867v5.2c0,0.479,0.392,0.866,0.875,0.866s0.875-0.388,0.875-0.866V18.2z
			 M21.875,18.2"/>
	</g>
</g>
</svg>
