<?xml version="1.0" encoding="utf-8"?>
<!-- Generator: Adobe Illustrator 15.0.0, SVG Export Plug-In . SVG Version: 6.00 Build 0)  -->
<!DOCTYPE svg PUBLIC "-//W3C//DTD SVG 1.1//EN" "http://www.w3.org/Graphics/SVG/1.1/DTD/svg11.dtd">
<svg version="1.1" id="Layer_1" xmlns="http://www.w3.org/2000/svg" xmlns:xlink="http://www.w3.org/1999/xlink" x="0px" y="0px"
	 width="49px" height="48px" viewBox="0 0 49 48" enable-background="new 0 0 49 48" xml:space="preserve">
<path fill="#DCB86A" d="M48.995,23.754c-0.005-0.704-0.045-1.403-0.113-2.086c-0.226-2.286-0.782-4.479-1.619-6.538
	c-0.064-0.148-0.123-0.309-0.187-0.457c-1.112-2.58-2.683-4.927-4.597-6.957c-0.122-0.13-0.251-0.26-0.378-0.39
	c-0.365-0.365-0.734-0.728-1.122-1.07C36.625,2.372,30.838,0,24.5,0C18.108,0,12.277,2.416,7.913,6.358
	c-1.019,0.92-1.954,1.923-2.8,2.993C1.909,13.41,0,18.49,0,24c0,13.237,10.993,24,24.5,24c9.507,0,17.754-5.331,21.818-13.097
	c0.866-1.658,1.545-3.427,1.997-5.283c0.118-0.472,0.217-0.945,0.306-1.426C48.867,26.834,49,25.432,49,24
	C49,23.918,48.995,23.836,48.995,23.754L48.995,23.754z M44.384,14.164l0.144-0.161c0.187,0.356,0.358,0.718,0.525,1.08l-0.23-0.005
	l-0.438,0.059V14.164z M40.842,9.973l0.005-1.075c0.384,0.4,0.758,0.815,1.112,1.239l-0.443,0.646l-1.54-0.013l-0.099-0.314
	L40.842,9.973z M11.288,7.308V7.271h0.492l0.04-0.165h0.807v0.342l-0.231,0.299h-1.107V7.308z M12.076,8.378
	c0,0,0.487-0.081,0.531-0.081c0.039,0,0,0.481,0,0.481L11.5,8.846l-0.211-0.247L12.076,8.378z M45.944,17.907h-1.791l-1.093-0.795
	l-1.151,0.106v0.689h-0.364l-0.394-0.275l-1.988-0.497v-1.263l-2.523,0.194l-0.782,0.414h-1.005l-0.492-0.053l-1.216,0.667v1.243
	l-2.484,1.754l0.207,0.753h0.507l-0.133,0.712l-0.354,0.13l-0.021,1.865l2.146,2.4h0.94l0.054-0.149h1.683l0.482-0.438h0.954
	l0.522,0.511l1.421,0.149l-0.187,1.846l1.58,2.729l-0.832,1.557l0.054,0.731l0.654,0.637v1.765l0.856,1.129v1.463h0.743
	c-4.123,4.966-10.407,8.147-17.438,8.147C12.1,46.029,2.018,36.147,2.018,24c0-3.056,0.64-5.972,1.791-8.619v-0.689l0.807-0.954
	c0.281-0.516,0.576-1.022,0.896-1.514l0.039,0.4l-0.935,1.113c-0.291,0.535-0.561,1.08-0.802,1.644v1.253l0.93,0.438v1.745
	l0.896,1.494l0.732,0.111l0.094-0.511l-0.861-1.301L5.438,17.35h0.502l0.212,1.3l1.245,1.774l-0.325,0.575l0.792,1.186l1.963,0.471
	v-0.309l0.783,0.111l-0.074,0.546l0.62,0.109l0.95,0.256l1.344,1.504l1.722,0.126l0.167,1.373l-1.176,0.805l-0.054,1.226
	l-0.172,0.751l1.703,2.087l0.132,0.715c0,0,0.615,0.162,0.689,0.162c0.074,0,1.383,0.969,1.383,0.969v3.774l0.467,0.127
	l-0.319,1.739l0.787,1.027l-0.143,1.719l1.033,1.79l1.333,1.136l1.338,0.024l0.128-0.419l-0.979-0.814l0.055-0.398l0.177-0.499
	l0.035-0.501l-0.665-0.018l-0.334-0.409l0.551-0.526l0.074-0.392l-0.615-0.172l0.035-0.366l0.881-0.132l1.338-0.625l0.448-0.807
	l1.402-1.76l-0.32-1.373l0.428-0.733l1.289,0.04l0.871-0.67l0.281-2.652l0.96-1.198l0.172-0.768l-0.881-0.28l-0.58-0.931L25.11,28
	l-1.57-0.581l-0.074-1.101l-0.527-0.896l-1.417-0.021l-0.821-1.262l-0.729-0.352l-0.04,0.386L18.61,24.25l-0.487-0.66l-1.383-0.273
	l-1.142,1.286l-1.791-0.294l-0.133-1.981l-1.309-0.222l0.527-0.969l-0.153-0.559l-1.717,1.128l-1.083-0.13l-0.384-0.83l0.231-0.853
	l0.6-1.08l1.373-0.68h2.652l-0.01,0.791l0.955,0.438l-0.074-1.354l0.684-0.68l1.388-0.892l0.098-0.626l1.383-1.413l1.466-0.795
	l-0.128-0.105l0.994-0.916l0.364,0.093L21.7,12.88l0.378-0.41l0.094-0.043l-0.413-0.058l-0.423-0.135v-0.396l0.226-0.178h0.487
	l0.227,0.096l0.197,0.386l0.236-0.037V12.07l0.069,0.023l0.689-0.101l0.098-0.333l0.394,0.096v0.362l-0.364,0.247l0.054,0.39
	l1.245,0.377l0.005,0.013l0.285-0.024l0.021-0.531l-0.989-0.438l-0.054-0.254l0.821-0.276l0.035-0.771l-0.861-0.511l-0.055-1.296
	l-1.175,0.563h-0.428l0.108-0.988l-1.599-0.37l-0.664,0.491v1.499l-1.191,0.367l-0.477,0.978l-0.522,0.082v-1.249l-1.117-0.154
	l-0.561-0.357l-0.227-0.81l2.003-1.147l0.984-0.294l0.098,0.647l0.547-0.025l0.039-0.328l0.57-0.077l0.01-0.116l-0.246-0.101
	l-0.054-0.342l0.704-0.058l0.423-0.434l0.024-0.029h0.005l0.128-0.129l1.477-0.184l0.654,0.545l-1.712,0.892l2.174,0.506
	l0.286-0.713h0.95l0.339-0.622l-0.675-0.169V6.131l-2.11-0.915L21.41,5.379l-0.822,0.424l0.054,1.022l-0.861-0.125l-0.133-0.569
	l0.827-0.732l-1.496-0.072l-0.428,0.13l-0.188,0.492l0.561,0.093l-0.113,0.548l-0.955,0.058l-0.148,0.361l-1.383,0.039
	c0,0-0.034-0.766-0.093-0.766c-0.054,0,1.083-0.02,1.083-0.02l0.827-0.79L17.69,5.254l-0.595,0.568l-0.994-0.058l-0.595-0.804h-1.27
	l-1.329,0.968h1.216l0.113,0.352l-0.314,0.284l1.343,0.04l0.207,0.477l-1.515-0.058l-0.074-0.365l-0.949-0.204L12.425,6.18
	L11.293,6.19c3.71-2.647,8.271-4.213,13.207-4.213c5.688,0,10.879,2.081,14.846,5.5L39.08,7.944l-1.039,0.4l-0.438,0.463
	l0.099,0.545l0.536,0.072l0.325,0.791l0.919-0.366l0.153,1.056H39.36l-0.758-0.111l-0.842,0.14l-0.812,1.128l-1.166,0.178
	l-0.168,0.974l0.493,0.116l-0.144,0.627l-1.156-0.228l-1.058,0.228l-0.222,0.573l0.183,1.214l0.619,0.285l1.043-0.005l0.704-0.061
	l0.217-0.551l1.103-1.397l0.723,0.145l0.714-0.632l0.132,0.492l1.758,1.162l-0.218,0.279l-0.791-0.039l0.305,0.419l0.486,0.106
	l0.572-0.232l-0.011-0.675l0.251-0.125l-0.202-0.212l-1.17-0.636l-0.311-0.853h0.974l0.312,0.303l0.841,0.709l0.034,0.853
	l0.866,0.907l0.325-1.239l0.601-0.323l0.112,1.017l0.59,0.631l1.172-0.02c0.227,0.569,0.429,1.152,0.605,1.745L45.944,17.907z
	 M13.365,10.904l0.585-0.275l0.531,0.125L14.3,11.453l-0.576,0.178L13.365,10.904z M16.489,12.552v0.454h-1.348l-0.502-0.135
	l0.128-0.318l0.645-0.26h0.881v0.26H16.489z M17.104,13.185v0.438l-0.334,0.212l-0.423,0.077v-0.727H17.104z M16.725,13.005v-0.521
	l0.463,0.41L16.725,13.005z M16.937,14.062v0.428l-0.32,0.313h-0.719l0.114-0.478l0.339-0.029l0.069-0.164L16.937,14.062z
	 M15.156,13.185h0.743l-0.949,1.305l-0.394-0.208l0.083-0.549L15.156,13.185z M18.197,13.911v0.429h-0.713l-0.197-0.278v-0.396h0.06
	L18.197,13.911z M17.537,13.323l0.207-0.207l0.345,0.207l-0.275,0.223L17.537,13.323z M46.309,19.016l0.073-0.076
	c0.03,0.12,0.059,0.245,0.089,0.375L46.309,19.016z M46.309,19.016"/>
</svg>
