<?xml version="1.0" encoding="utf-8"?>
<!-- Generator: Adobe Illustrator 15.0.0, SVG Export Plug-In . SVG Version: 6.00 Build 0)  -->
<!DOCTYPE svg PUBLIC "-//W3C//DTD SVG 1.1//EN" "http://www.w3.org/Graphics/SVG/1.1/DTD/svg11.dtd">
<svg version="1.1" id="Layer_1" xmlns="http://www.w3.org/2000/svg" xmlns:xlink="http://www.w3.org/1999/xlink" x="0px" y="0px"
	 width="80px" height="47px" viewBox="0 0 80 47" enable-background="new 0 0 80 47" xml:space="preserve">
<path fill="#E05C0B" d="M30.644,32.998c-3.817,0-6.903,3.138-6.903,7.007c0,3.857,3.085,6.995,6.903,6.995s6.902-3.138,6.902-6.995
	C37.546,36.136,34.461,32.998,30.644,32.998z M30.644,43.503c-1.909,0-3.451-1.575-3.451-3.498c0-1.936,1.542-3.497,3.451-3.497
	s3.451,1.562,3.451,3.497C34.095,41.928,32.552,43.503,30.644,43.503z M80,27.823v7.469c0,1.864-1.49,3.375-3.33,3.375h-3.562
	c-0.645-4.477-4.45-7.918-9.045-7.918c-4.582,0-8.389,3.441-9.032,7.918H39.679c-0.644-4.477-4.449-7.918-9.033-7.918
	c-4.583,0-8.389,3.441-9.033,7.918h-4.461c-1.838,0-3.329-1.511-3.329-3.375v-7.469H80L80,27.823z M64.073,32.998
	c-3.817,0-6.913,3.138-6.913,7.007c0,3.857,3.096,6.995,6.913,6.995c3.807,0,6.902-3.138,6.902-6.995
	C70.976,36.136,67.88,32.998,64.073,32.998z M64.073,43.503c-1.909,0-3.452-1.575-3.452-3.498c0-1.936,1.543-3.497,3.452-3.497
	c1.897,0,3.45,1.562,3.45,3.497C67.523,41.928,65.971,43.503,64.073,43.503z M78.688,20.299L65.604,7.187
	c-0.833-0.833-1.953-1.305-3.118-1.305h-6.604V3.374C55.883,1.507,54.396,0,52.555,0H17.149c-1.831,0-3.329,1.507-3.329,3.374v0.529
	L0.311,5.48l23.938,3.159L0,11.081l24.164,3.483L0,16.687l13.821,2.643l-0.001,6.628h66.177v-2.463
	C79.997,22.291,79.52,21.144,78.688,20.299z M72.983,20.739H60.322c-0.289,0-0.521-0.236-0.521-0.529v-9.907
	c0-0.292,0.232-0.529,0.521-0.529h2.408c0.133,0,0.266,0.057,0.366,0.147l10.242,9.908C73.684,20.154,73.45,20.739,72.983,20.739z"
	/>
</svg>
