<?xml version="1.0" encoding="utf-8"?>
<!-- Generator: Adobe Illustrator 15.0.0, SVG Export Plug-In . SVG Version: 6.00 Build 0)  -->
<!DOCTYPE svg PUBLIC "-//W3C//DTD SVG 1.1//EN" "http://www.w3.org/Graphics/SVG/1.1/DTD/svg11.dtd">
<svg version="1.1" id="Layer_1" xmlns="http://www.w3.org/2000/svg" xmlns:xlink="http://www.w3.org/1999/xlink" x="0px" y="0px"
	 width="23px" height="22px" viewBox="0 0 23 22" enable-background="new 0 0 23 22" xml:space="preserve">
<path fill-rule="evenodd" clip-rule="evenodd" fill="#233F92" d="M21.968,18.959V0.026H0.941v18.933L0,18.963l0.004,3.062L23,22.026
	v-3.062L21.968,18.959z M10.981,18.969H5.01V10.98h5.971V18.969z M17.985,18.969h-5.972V10.98h5.972V18.969z"/>
<path fill-rule="evenodd" clip-rule="evenodd" fill="#FFFFFF" d="M11.316,1.854l0.696,0.695L6.315,8.255L5.619,7.56L11.316,1.854z"
	/>
<path fill-rule="evenodd" clip-rule="evenodd" fill="#FFFFFF" d="M14.802,1.854l0.696,0.695L9.799,8.255L9.103,7.56L14.802,1.854z"
	/>
<path fill-rule="evenodd" clip-rule="evenodd" fill="#FFFFFF" d="M18.316,1.854l0.696,0.695l-5.697,5.705L12.619,7.56L18.316,1.854z
	"/>
</svg>
