<?xml version="1.0" encoding="utf-8"?>
<!-- Generator: Adobe Illustrator 15.0.0, SVG Export Plug-In . SVG Version: 6.00 Build 0)  -->
<!DOCTYPE svg PUBLIC "-//W3C//DTD SVG 1.1//EN" "http://www.w3.org/Graphics/SVG/1.1/DTD/svg11.dtd">
<svg version="1.1" id="Layer_1" xmlns="http://www.w3.org/2000/svg" xmlns:xlink="http://www.w3.org/1999/xlink" x="0px" y="0px"
	 width="30px" height="17px" viewBox="0 0 30 17" enable-background="new 0 0 30 17" xml:space="preserve">
<path fill="#62A020" d="M11.492,11.936c-1.432,0-2.589,1.135-2.589,2.534c0,1.395,1.156,2.53,2.589,2.53
	c1.431,0,2.588-1.136,2.588-2.53C14.08,13.07,12.923,11.936,11.492,11.936z M11.492,15.735c-0.717,0-1.295-0.57-1.295-1.266
	c0-0.7,0.578-1.265,1.295-1.265c0.715,0,1.294,0.565,1.294,1.265C12.786,15.165,12.207,15.735,11.492,15.735z M30,10.063v2.702
	c0,0.674-0.559,1.221-1.249,1.221h-1.336c-0.241-1.62-1.668-2.864-3.392-2.864c-1.719,0-3.146,1.244-3.387,2.864H14.88
	c-0.241-1.62-1.669-2.864-3.388-2.864s-3.146,1.244-3.388,2.864H6.432c-0.688,0-1.248-0.547-1.248-1.221v-2.702H30L30,10.063z
	 M24.027,11.936c-1.432,0-2.592,1.135-2.592,2.534c0,1.395,1.16,2.53,2.592,2.53c1.428,0,2.588-1.136,2.588-2.53
	C26.616,13.07,25.455,11.936,24.027,11.936z M24.027,15.735c-0.716,0-1.295-0.57-1.295-1.266c0-0.7,0.579-1.265,1.295-1.265
	c0.712,0,1.294,0.565,1.294,1.265C25.321,15.165,24.739,15.735,24.027,15.735z M29.508,7.342L24.602,2.6
	c-0.313-0.302-0.732-0.472-1.169-0.472h-2.477V1.221C20.956,0.545,20.398,0,19.708,0H6.431C5.744,0,5.183,0.545,5.183,1.221v0.191
	l-5.066,0.57l8.977,1.143L0,4.008l9.062,1.26L0,6.036l5.183,0.956v2.396h24.816V8.498C29.999,8.063,29.82,7.648,29.508,7.342z
	 M27.368,7.501h-4.747c-0.108,0-0.195-0.085-0.195-0.191V3.727c0-0.105,0.087-0.191,0.195-0.191h0.902
	c0.051,0,0.1,0.021,0.138,0.054l3.841,3.583C27.631,7.29,27.544,7.501,27.368,7.501z"/>
</svg>
