<?xml version="1.0" encoding="utf-8"?>
<!-- Generator: Adobe Illustrator 15.0.0, SVG Export Plug-In . SVG Version: 6.00 Build 0)  -->
<!DOCTYPE svg PUBLIC "-//W3C//DTD SVG 1.1//EN" "http://www.w3.org/Graphics/SVG/1.1/DTD/svg11.dtd">
<svg version="1.1" id="Layer_1" xmlns="http://www.w3.org/2000/svg" xmlns:xlink="http://www.w3.org/1999/xlink" x="0px" y="0px"
	 width="39.723px" height="39.722px" viewBox="0 0 39.723 39.722" enable-background="new 0 0 39.723 39.722" xml:space="preserve">
<g>
	<path fill="#E05D11" d="M19.859,0C8.91,0,0,8.91,0,19.863c0,10.949,8.91,19.859,19.859,19.859c10.954,0,19.864-8.91,19.864-19.859
		C39.723,8.91,30.813,0,19.859,0L19.859,0z M31.313,30.808v-0.785c0-2.707-3.129-3.694-4.805-4.413
		c-0.605-0.259-1.75-0.809-2.922-1.38c-0.398-0.194-0.754-0.711-0.801-1.151l-0.129-1.281c0.898-0.836,1.707-2,1.844-3.297h0.203
		c0.316,0,0.617-0.238,0.664-0.531l0.32-1.965c0.039-0.418-0.355-0.672-0.676-0.672c0.008-0.043,0.016-0.086,0.02-0.121
		c0.043-0.235,0.066-0.461,0.082-0.684c0.02-0.18,0.039-0.363,0.043-0.555c0.035-0.925-0.121-1.738-0.383-2.191
		c-0.262-0.633-0.664-1.25-1.219-1.777C22,8.535,20.203,7.965,18.668,9.144c-1.043-0.179-2.285,0.297-3.184,1.348
		c-0.488,0.574-0.793,1.23-0.925,1.875c-0.118,0.402-0.192,0.891-0.211,1.414c-0.024,0.59,0.035,1.125,0.144,1.559
		c-0.304,0.019-0.613,0.269-0.613,0.668l0.316,1.961c0.047,0.293,0.348,0.531,0.668,0.531h0.18c0.289,1.402,1.035,2.554,1.859,3.359
		l-0.125,1.237c-0.043,0.442-0.402,0.957-0.797,1.153c-1.136,0.554-2.253,1.086-2.921,1.363c-1.579,0.648-4.805,1.702-4.805,4.409
		v0.614C5.625,27.804,4,24.022,4,19.863c0-8.746,7.117-15.859,15.863-15.859c8.747,0,15.86,7.113,15.86,15.859
		C35.723,24.104,34.035,27.957,31.313,30.808L31.313,30.808z M31.313,30.808"/>
</g>
</svg>
