<?xml version="1.0" encoding="UTF-8"?>
<svg width="20px" height="19px" viewBox="0 0 20 19" version="1.1" xmlns="http://www.w3.org/2000/svg" xmlns:xlink="http://www.w3.org/1999/xlink">
    <!-- Generator: Sketch 62 (91390) - https://sketch.com -->
    <title>icSearch</title>
    <desc>Created with Sketch.</desc>
    <g id="Page-1" stroke="none" stroke-width="1" fill="none" fill-rule="evenodd">
        <g id="200207_cp4l_landing_page" transform="translate(-883.000000, -343.000000)" fill="#FFFFFF" fill-rule="nonzero">
            <g id="Search" transform="translate(357.000000, 190.000000)">
                <g id="Group-5" transform="translate(173.000000, 81.000000)">
                    <g id="search-btn" transform="translate(352.500000, 71.500000)">
                        <path d="M7.77979987,0.6 C11.7495748,0.6 14.9595997,3.70029751 14.9595997,7.51379987 C14.9595997,8.40250858 14.7806221,9.27118137 14.4374328,10.0940407 L14.4374328,10.0940407 L14.2669849,10.5027206 L19.9468555,15.2324712 L20.0426491,15.3216207 C20.6137492,15.917368 20.5077293,17.0903516 19.6754964,18.0249966 C18.7920146,19.0149076 17.4896501,19.27375 16.8005104,18.6994669 L16.8005104,18.6994669 L11.3527956,14.1660048 L10.9702123,13.724748 L10.572194,13.8865928 L10.2403191,14.0122678 C9.45898587,14.2867021 8.63017731,14.4289997 7.77979987,14.4289997 C3.8103345,14.4289997 0.6,11.3276051 0.6,7.51379987 C0.6,3.70029751 3.8100249,0.6 7.77979987,0.6 Z M7.77979987,2.55559995 C4.95949123,2.55559995 2.66619994,4.76977834 2.66619994,7.51379987 C2.66619994,10.2570794 4.9601825,12.4733998 7.77979987,12.4733998 C10.5994172,12.4733998 12.8933998,10.2570794 12.8933998,7.51379987 C12.8933998,4.77072569 10.5996363,2.55559995 7.77979987,2.55559995 Z" id="icSearch"></path>
                    </g>
                </g>
            </g>
        </g>
    </g>
</svg>