<?xml version="1.0" encoding="utf-8"?>
<!-- Generator: Adobe Illustrator 15.0.0, SVG Export Plug-In . SVG Version: 6.00 Build 0)  -->
<!DOCTYPE svg PUBLIC "-//W3C//DTD SVG 1.1//EN" "http://www.w3.org/Graphics/SVG/1.1/DTD/svg11.dtd">
<svg version="1.1" id="Layer_1" xmlns="http://www.w3.org/2000/svg" xmlns:xlink="http://www.w3.org/1999/xlink" x="0px" y="0px"
	 width="17px" height="17px" viewBox="0 0 17 17" enable-background="new 0 0 17 17" xml:space="preserve">
<path fill="#BBBBBB" d="M16.998,8.413c-0.001-0.25-0.016-0.497-0.039-0.739c-0.078-0.81-0.271-1.586-0.562-2.315
	c-0.022-0.052-0.043-0.109-0.064-0.162c-0.387-0.914-0.932-1.745-1.596-2.464c-0.042-0.046-0.087-0.092-0.131-0.138
	c-0.127-0.129-0.255-0.258-0.39-0.379C12.707,0.84,10.699,0,8.5,0C6.282,0,4.26,0.855,2.745,2.252
	c-0.354,0.326-0.678,0.681-0.971,1.06C0.663,4.75,0,6.549,0,8.5C0,13.188,3.814,17,8.5,17c3.298,0,6.159-1.888,7.569-4.639
	c0.301-0.587,0.536-1.213,0.692-1.871c0.042-0.167,0.076-0.334,0.106-0.505C16.954,9.504,17,9.007,17,8.5
	C17,8.471,16.998,8.442,16.998,8.413L16.998,8.413z M15.398,5.017l0.05-0.057c0.065,0.126,0.125,0.254,0.183,0.382l-0.08-0.001
	l-0.152,0.021V5.017L15.398,5.017z M14.17,3.532l0.002-0.381c0.133,0.142,0.263,0.289,0.386,0.439l-0.154,0.229l-0.534-0.004
	l-0.034-0.111L14.17,3.532z M3.917,2.588V2.575h0.17l0.014-0.059h0.28v0.121l-0.08,0.106H3.917V2.588L3.917,2.588z M4.189,2.967
	c0,0,0.169-0.029,0.185-0.029c0.014,0,0,0.17,0,0.17L3.99,3.133L3.917,3.045L4.189,2.967z M15.939,6.342h-0.621l-0.379-0.282
	L14.54,6.098v0.244h-0.127l-0.137-0.098l-0.689-0.176V5.622L12.712,5.69L12.44,5.836h-0.349l-0.171-0.019l-0.422,0.236v0.44
	l-0.861,0.622l0.071,0.267h0.176l-0.046,0.252l-0.122,0.046l-0.008,0.66l0.745,0.851h0.325l0.019-0.053h0.584l0.168-0.155h0.331
	l0.181,0.181l0.493,0.053l-0.065,0.654l0.549,0.967l-0.289,0.551l0.019,0.259l0.228,0.226v0.625l0.297,0.4v0.518h0.258
	c-1.431,1.759-3.611,2.886-6.05,2.886c-4.302,0-7.8-3.5-7.8-7.802c0-1.083,0.222-2.115,0.621-3.053V5.204l0.28-0.338
	c0.097-0.183,0.2-0.362,0.311-0.536l0.013,0.142L1.602,4.865C1.5,5.055,1.407,5.248,1.323,5.447v0.444l0.323,0.155v0.618
	l0.311,0.529l0.254,0.04l0.032-0.181L1.945,6.591L1.887,6.145h0.174l0.073,0.46l0.432,0.628L2.454,7.437l0.275,0.42l0.681,0.167
	V7.915l0.272,0.04L3.655,8.147l0.215,0.038L4.2,8.276l0.466,0.533l0.598,0.045L5.321,9.34L4.914,9.625l-0.02,0.434l-0.06,0.268
	l0.591,0.738l0.046,0.254c0,0,0.214,0.057,0.239,0.057s0.479,0.344,0.479,0.344v1.336L6.353,13.1l-0.11,0.616l0.272,0.364
	l-0.049,0.608l0.358,0.634l0.462,0.402l0.465,0.009l0.044-0.148l-0.34-0.289l0.02-0.141l0.062-0.177l0.012-0.178l-0.23-0.006
	L7.201,14.65l0.191-0.187l0.025-0.139l-0.213-0.062l0.012-0.129l0.306-0.047l0.465-0.222l0.155-0.286l0.486-0.623l-0.111-0.486
	l0.148-0.26l0.447,0.015l0.302-0.237l0.098-0.939l0.333-0.424l0.06-0.272l-0.305-0.099l-0.202-0.33L8.711,9.916L8.167,9.711
	l-0.025-0.39L7.959,9.004L7.467,8.996L7.182,8.549L6.929,8.425L6.915,8.561L6.456,8.588L6.287,8.354L5.808,8.258L5.411,8.714
	L4.79,8.609L4.744,7.908L4.29,7.829l0.183-0.343L4.42,7.288L3.824,7.688L3.448,7.642L3.315,7.348l0.08-0.302l0.208-0.382
	l0.476-0.241H5l-0.004,0.28l0.331,0.155L5.302,6.378l0.237-0.241l0.481-0.316L6.055,5.6l0.479-0.5l0.509-0.282L6.999,4.78
	l0.345-0.325L7.47,4.489l0.059,0.073L7.66,4.417l0.032-0.015L7.549,4.381L7.402,4.333V4.192L7.48,4.13h0.169l0.079,0.034L7.797,4.3
	l0.082-0.013V4.275l0.023,0.008l0.239-0.036l0.034-0.118l0.137,0.034v0.128L8.187,4.379l0.018,0.138L8.637,4.65l0.002,0.005
	l0.099-0.009l0.007-0.188L8.401,4.303l-0.019-0.09l0.284-0.098L8.68,3.843L8.381,3.662l-0.02-0.459l-0.407,0.2H7.806l0.038-0.35
	L7.288,2.921l-0.23,0.174v0.531l-0.413,0.13L6.479,4.103L6.298,4.131V3.689L5.911,3.635L5.716,3.508L5.638,3.221l0.694-0.406
	l0.342-0.104L6.708,2.94l0.189-0.009l0.014-0.116l0.197-0.027l0.004-0.041L7.027,2.711L7.008,2.59l0.245-0.021l0.146-0.154
	l0.008-0.01h0.002l0.045-0.046l0.512-0.065l0.228,0.193L7.599,2.803l0.755,0.179L8.452,2.73h0.33l0.117-0.22L8.665,2.45V2.171
	L7.934,1.847L7.428,1.905l-0.285,0.15l0.02,0.362L6.863,2.373L6.816,2.171l0.287-0.259L6.585,1.887L6.436,1.933L6.371,2.107
	L6.565,2.14L6.526,2.334L6.195,2.354L6.144,2.482L5.664,2.496c0,0-0.012-0.271-0.032-0.271c-0.019,0,0.375-0.007,0.375-0.007
	l0.287-0.28L6.138,1.861L5.931,2.062L5.586,2.042L5.38,1.757h-0.44L4.478,2.1h0.422l0.04,0.125L4.83,2.325l0.466,0.014l0.072,0.169
	L4.842,2.487L4.816,2.358L4.487,2.286L4.311,2.189L3.918,2.192C5.205,1.255,6.787,0.7,8.5,0.7c1.974,0,3.774,0.737,5.15,1.948
	l-0.092,0.166l-0.36,0.142l-0.152,0.164l0.034,0.193l0.187,0.025l0.112,0.28l0.319-0.129l0.053,0.374h-0.096l-0.263-0.04
	l-0.292,0.05l-0.282,0.399l-0.404,0.063L12.356,4.68l0.171,0.042l-0.051,0.222l-0.4-0.081l-0.367,0.081l-0.077,0.203l0.063,0.43
	l0.215,0.101l0.361-0.001l0.245-0.022l0.075-0.195l0.383-0.495l0.25,0.051l0.248-0.224l0.046,0.174l0.609,0.412l-0.075,0.099
	l-0.274-0.014l0.106,0.148l0.168,0.038l0.198-0.082l-0.004-0.239l0.087-0.044l-0.069-0.075l-0.406-0.226L13.751,4.68h0.337
	l0.108,0.107l0.292,0.251L14.5,5.34l0.301,0.321l0.113-0.438l0.208-0.115l0.039,0.36l0.204,0.223l0.407-0.007
	c0.078,0.202,0.148,0.408,0.21,0.618L15.939,6.342z M4.637,3.862L4.84,3.765l0.185,0.044L4.961,4.056L4.762,4.119L4.637,3.862z
	 M5.721,4.445v0.161H5.253L5.079,4.559l0.044-0.113l0.224-0.092h0.306v0.092L5.721,4.445L5.721,4.445z M5.934,4.67v0.155L5.818,4.9
	L5.672,4.927V4.67H5.934z M5.803,4.606V4.421l0.16,0.145L5.803,4.606z M5.876,4.98v0.151l-0.11,0.111h-0.25l0.04-0.169l0.117-0.011
	l0.023-0.058L5.876,4.98z M5.258,4.67h0.258L5.187,5.132L5.05,5.058l0.029-0.194L5.258,4.67z M6.313,4.927v0.152H6.065L5.998,4.98
	V4.84h0.021L6.313,4.927z M6.084,4.719l0.072-0.073l0.119,0.073L6.181,4.797L6.084,4.719z M16.066,6.735l0.025-0.027
	c0.011,0.042,0.021,0.087,0.03,0.133L16.066,6.735z"/>
</svg>
