<?xml version="1.0" encoding="utf-8"?>
<!-- Generator: Adobe Illustrator 15.0.0, SVG Export Plug-In . SVG Version: 6.00 Build 0)  -->
<!DOCTYPE svg PUBLIC "-//W3C//DTD SVG 1.1//EN" "http://www.w3.org/Graphics/SVG/1.1/DTD/svg11.dtd">
<svg version="1.1" id="Layer_1" xmlns="http://www.w3.org/2000/svg" xmlns:xlink="http://www.w3.org/1999/xlink" x="0px" y="0px"
	 width="27px" height="26px" viewBox="0 0 27 26" enable-background="new 0 0 27 26" xml:space="preserve">
<path fill="#DCB86A" d="M26.997,12.867c-0.003-0.382-0.024-0.76-0.063-1.131c-0.124-1.238-0.431-2.426-0.892-3.541
	c-0.035-0.08-0.067-0.167-0.104-0.248c-0.612-1.397-1.479-2.668-2.533-3.769c-0.066-0.07-0.138-0.141-0.207-0.211
	c-0.201-0.198-0.405-0.394-0.619-0.58C20.181,1.285,16.992,0,13.5,0C9.978,0,6.765,1.309,4.36,3.444
	C3.799,3.942,3.284,4.486,2.817,5.065C1.052,7.264,0,10.016,0,13c0,7.17,6.058,13,13.5,13c5.238,0,9.783-2.888,12.022-7.095
	c0.477-0.897,0.852-1.855,1.1-2.861c0.065-0.255,0.12-0.512,0.169-0.772C26.927,14.535,27,13.775,27,13
	C27,12.955,26.997,12.911,26.997,12.867L26.997,12.867z M24.456,7.672l0.079-0.087c0.104,0.193,0.198,0.389,0.29,0.585l-0.127-0.002
	l-0.241,0.032L24.456,7.672L24.456,7.672z M22.505,5.402l0.003-0.583c0.211,0.216,0.418,0.441,0.612,0.671l-0.244,0.35l-0.848-0.007
	l-0.056-0.17L22.505,5.402z M6.22,3.958v-0.02h0.271l0.021-0.089h0.445v0.186L6.83,4.196H6.221L6.22,3.958L6.22,3.958z M6.654,4.538
	c0,0,0.269-0.044,0.292-0.044c0.021,0,0,0.261,0,0.261L6.337,4.792L6.221,4.658L6.654,4.538z M25.315,9.7h-0.986l-0.602-0.431
	l-0.635,0.057V9.7h-0.2l-0.218-0.149l-1.095-0.27V8.597l-1.391,0.105l-0.432,0.225h-0.553l-0.271-0.029l-0.67,0.361v0.673
	l-1.369,0.95l0.114,0.407h0.279l-0.073,0.387l-0.194,0.069l-0.012,1.011l1.183,1.3h0.518l0.029-0.081h0.928l0.266-0.236h0.525
	l0.288,0.276l0.782,0.08l-0.103,1.001l0.87,1.479l-0.458,0.843l0.029,0.396l0.36,0.345v0.957l0.472,0.611v0.792h0.41
	c-2.271,2.69-5.735,4.413-9.609,4.413C6.667,24.933,1.112,19.579,1.112,13c0-1.655,0.353-3.235,0.987-4.669V7.958l0.444-0.517
	c0.155-0.279,0.317-0.554,0.494-0.82l0.021,0.216L2.543,7.441c-0.16,0.29-0.309,0.585-0.442,0.89V9.01l0.513,0.237v0.945l0.494,0.81
	l0.403,0.06l0.052-0.276l-0.475-0.705L2.997,9.398h0.276l0.117,0.704l0.687,0.96l-0.18,0.312l0.437,0.644l1.082,0.255v-0.167
	l0.432,0.06l-0.041,0.296l0.342,0.059l0.523,0.139l0.74,0.814l0.949,0.068l0.092,0.744l-0.648,0.436l-0.029,0.664L7.68,15.792
	l0.938,1.13L8.69,17.31c0,0,0.339,0.088,0.38,0.088s0.762,0.524,0.762,0.524v2.045l0.258,0.068l-0.176,0.941l0.434,0.557
	l-0.079,0.932l0.569,0.97l0.734,0.614l0.737,0.014l0.07-0.227l-0.539-0.441l0.03-0.216l0.098-0.271l0.02-0.271l-0.367-0.011
	l-0.184-0.221l0.304-0.285l0.041-0.212l-0.339-0.094l0.019-0.198l0.486-0.071l0.737-0.339l0.246-0.437l0.772-0.954l-0.176-0.743
	l0.235-0.397l0.71,0.022l0.48-0.363l0.155-1.437l0.528-0.649l0.095-0.416l-0.485-0.151l-0.319-0.504l-1.092-0.011l-0.865-0.315
	l-0.041-0.596l-0.29-0.485l-0.781-0.012l-0.451-0.684l-0.402-0.19l-0.022,0.209l-0.729,0.042l-0.268-0.358L9.225,12.63l-0.63,0.697
	l-0.986-0.16l-0.074-1.072l-0.721-0.121l0.29-0.524L7.02,11.146l-0.946,0.611l-0.597-0.07l-0.212-0.45l0.128-0.462l0.33-0.585
	l0.757-0.369H7.94L7.936,10.25l0.525,0.237l-0.04-0.733l0.377-0.368l0.765-0.483l0.054-0.339l0.763-0.766l0.808-0.431l-0.071-0.057
	l0.548-0.496l0.201,0.05l0.093,0.111l0.208-0.222l0.052-0.024L11.989,6.7l-0.232-0.074V6.412l0.125-0.096h0.268l0.125,0.052
	l0.108,0.209l0.13-0.021V6.538l0.038,0.013l0.38-0.055l0.054-0.18l0.218,0.052v0.196l-0.2,0.134l0.029,0.211l0.687,0.204L13.72,7.12
	l0.157-0.013l0.012-0.288l-0.545-0.237l-0.03-0.137l0.452-0.149l0.02-0.418L13.312,5.6L13.28,4.898l-0.647,0.305h-0.235l0.06-0.535
	l-0.881-0.2L11.21,4.734v0.812l-0.656,0.199l-0.263,0.53l-0.288,0.044V5.642L9.388,5.559L9.079,5.365L8.953,4.927l1.104-0.622
	L10.6,4.146l0.054,0.35l0.302-0.013l0.021-0.178l0.314-0.042l0.005-0.063L11.16,4.146L11.131,3.96l0.388-0.031l0.233-0.235
	l0.014-0.016h0.002l0.07-0.07l0.814-0.1l0.36,0.295l-0.944,0.483l1.198,0.274l0.158-0.386h0.522l0.188-0.337l-0.372-0.092V3.321
	l-1.162-0.496l-0.803,0.088l-0.453,0.23l0.029,0.553l-0.475-0.067l-0.072-0.309l0.455-0.396l-0.824-0.039l-0.236,0.07l-0.104,0.267
	l0.31,0.05l-0.063,0.296L9.839,3.601L9.758,3.796L8.995,3.817c0,0-0.019-0.415-0.051-0.415c-0.03,0,0.597-0.011,0.597-0.011
	l0.456-0.428l-0.25-0.118L9.42,3.153L8.872,3.122L8.544,2.687h-0.7L7.112,3.211h0.67l0.062,0.19L7.671,3.556l0.741,0.021
	l0.113,0.258L7.69,3.804L7.649,3.606l-0.522-0.11l-0.28-0.148L6.223,3.353C8.267,1.919,10.78,1.071,13.5,1.071
	c3.134,0,5.994,1.127,8.181,2.979l-0.146,0.252L20.961,4.52l-0.24,0.251l0.054,0.295l0.296,0.039l0.179,0.429l0.507-0.198
	l0.084,0.572h-0.152l-0.417-0.06l-0.464,0.076l-0.447,0.611L19.717,6.63l-0.093,0.528l0.271,0.063L19.816,7.56l-0.638-0.124
	L18.597,7.56l-0.122,0.31l0.101,0.658l0.341,0.154l0.575-0.002l0.388-0.033l0.119-0.298l0.608-0.757l0.398,0.079l0.393-0.342
	l0.073,0.267l0.969,0.629l-0.12,0.151l-0.437-0.021l0.169,0.227l0.268,0.057l0.315-0.125l-0.006-0.366l0.138-0.067l-0.111-0.115
	L22.011,7.62l-0.172-0.462h0.537l0.172,0.164l0.463,0.384l0.02,0.462l0.477,0.491l0.18-0.671l0.331-0.175l0.062,0.551l0.325,0.342
	l0.646-0.011c0.125,0.308,0.237,0.624,0.334,0.945L25.315,9.7z M7.364,5.906l0.322-0.149l0.293,0.068l-0.1,0.378L7.563,6.3
	L7.364,5.906z M9.086,6.799v0.246H8.343L8.066,6.972L8.137,6.8l0.355-0.141h0.485V6.8L9.086,6.799L9.086,6.799z M9.425,7.142v0.237
	L9.24,7.494L9.008,7.536V7.142H9.425z M9.216,7.044V6.762l0.255,0.222L9.216,7.044z M9.333,7.617v0.232l-0.177,0.17H8.761
	l0.063-0.259L9.01,7.744l0.038-0.089L9.333,7.617z M8.352,7.142h0.409L8.238,7.849L8.021,7.736l0.046-0.298L8.352,7.142z
	 M10.027,7.535v0.232H9.634L9.525,7.617V7.402h0.033L10.027,7.535z M9.663,7.217l0.114-0.112l0.19,0.112L9.816,7.337L9.663,7.217z
	 M25.517,10.3l0.041-0.041c0.017,0.065,0.032,0.133,0.049,0.203L25.517,10.3z"/>
</svg>
