<?xml version="1.0" encoding="UTF-8"?>
<svg width="19px" height="24px" viewBox="0 0 19 24" version="1.1" xmlns="http://www.w3.org/2000/svg" xmlns:xlink="http://www.w3.org/1999/xlink">
    <!-- Generator: Sketch 59.1 (86144) - https://sketch.com -->
    <title>Left_slider</title>
    <desc>Created with Sketch.</desc>
    <defs>
        <path d="M62,423 L65.763932,423 C66.5214761,423 67.2140024,423.428005 67.5527864,424.105573 L71,431 L71,431 L67.5527864,437.894427 C67.2140024,438.571995 66.5214761,439 65.763932,439 L62,439 C60.8954305,439 60,438.104569 60,437 L60,425 C60,423.895431 60.8954305,423 62,423 Z" id="path-1"></path>
        <filter x="-50.0%" y="-34.4%" width="218.2%" height="181.2%" filterUnits="objectBoundingBox" id="filter-2">
            <feOffset dx="1" dy="1" in="SourceAlpha" result="shadowOffsetOuter1"></feOffset>
            <feGaussianBlur stdDeviation="2" in="shadowOffsetOuter1" result="shadowBlurOuter1"></feGaussianBlur>
            <feComposite in="shadowBlurOuter1" in2="SourceAlpha" operator="out" result="shadowBlurOuter1"></feComposite>
            <feColorMatrix values="0 0 0 0 0   0 0 0 0 0   0 0 0 0 0  0 0 0 0.231097028 0" type="matrix" in="shadowBlurOuter1"></feColorMatrix>
        </filter>
    </defs>
    <g id="Page-1" stroke="none" stroke-width="1" fill="none" fill-rule="evenodd">
        <g id="190925_europarts_price_range_001" transform="translate(-97.000000, -752.000000)">
            <g id="Group" transform="translate(40.000000, 332.000000)">
                <g id="Left_slider">
                    <use fill="black" fill-opacity="1" filter="url(#filter-2)" xlink:href="#path-1"></use>
                    <path stroke="#D1D1D1" stroke-width="0.6" d="M70.6645898,431 L67.2844582,424.239737 C66.9964918,423.663804 66.4078445,423.3 65.763932,423.3 L62,423.3 C61.0611159,423.3 60.3,424.061116 60.3,425 L60.3,437 C60.3,437.938884 61.0611159,438.7 62,438.7 L65.763932,438.7 C66.4078445,438.7 66.9964918,438.336196 67.2844582,437.760263 L70.6645898,431 Z" stroke-linejoin="square" fill="#FFFFFF" fill-rule="evenodd"></path>
                </g>
            </g>
        </g>
    </g>
</svg>