<?xml version="1.0" encoding="utf-8"?>
<!-- Generator: Adobe Illustrator 15.0.0, SVG Export Plug-In . SVG Version: 6.00 Build 0)  -->
<!DOCTYPE svg PUBLIC "-//W3C//DTD SVG 1.1//EN" "http://www.w3.org/Graphics/SVG/1.1/DTD/svg11.dtd">
<svg version="1.1" id="Layer_1" xmlns="http://www.w3.org/2000/svg" xmlns:xlink="http://www.w3.org/1999/xlink" x="0px" y="0px"
	 width="12px" height="12px" viewBox="0 0 12 12" enable-background="new 0 0 12 12" xml:space="preserve">
<path fill="#F39C11" d="M6,0.25C2.824,0.25,0.25,2.824,0.25,6S2.824,11.75,6,11.75S11.75,9.176,11.75,6S9.176,0.25,6,0.25z
	 M6,10.477c-2.473,0-4.477-2.004-4.477-4.477S3.527,1.523,6,1.523S10.477,3.527,10.477,6S8.473,10.477,6,10.477z M7.822,4.148
	c-0.074-0.074-0.195-0.074-0.27,0L4.935,6.767L3.822,5.653c-0.074-0.075-0.194-0.075-0.269,0L2.925,6.281
	c-0.074,0.075-0.074,0.195,0,0.27l1.876,1.874C4.838,8.462,4.887,8.48,4.935,8.48c0.049,0,0.098-0.019,0.135-0.056l3.381-3.378
	C8.486,5.01,8.506,4.962,8.506,4.911s-0.02-0.099-0.055-0.134L7.822,4.148z"/>
</svg>
