<?xml version="1.0" encoding="UTF-8"?>
<!-- Generator: visioncortex VTracer 0.6.3 -->
<svg version="1.1" xmlns="http://www.w3.org/2000/svg" width="1280" height="184">
<path d="M0 0 C1.22 -0 1.22 -0 2.46 -0 C4.18 -0 5.89 -0 7.61 0 C10.24 0.01 12.87 0 15.5 -0 C17.17 -0 18.83 -0 20.5 0 C21.68 -0 21.68 -0 22.89 -0.01 C26.12 0.01 28.72 0.1 31.82 1.13 C31.41 8.99 29.09 15.96 26.53 23.34 C25.17 27.27 23.84 31.2 22.51 35.14 C22.07 36.42 22.07 36.42 21.63 37.72 C17.68 49.44 13.94 61.23 10.19 73.01 C9.15 76.28 8.1 79.56 7.06 82.83 C6.43 84.8 5.8 86.78 5.18 88.75 C4.89 89.64 4.61 90.52 4.32 91.43 C4.08 92.2 3.83 92.97 3.58 93.76 C2.68 96.55 1.75 99.34 0.82 102.13 C14.68 102.13 28.54 102.13 42.82 102.13 C42.49 101.14 42.16 100.15 41.82 99.13 C40.24 81.46 44.13 67.83 53.82 53.13 C54.48 52.8 55.14 52.47 55.82 52.13 C56.67 51.09 57.5 50.02 58.32 48.95 C66.27 39.5 80.21 33.98 92.33 32.91 C102.63 32.46 112.52 32.16 121.82 37.13 C122.67 37.56 123.53 37.98 124.41 38.42 C135.47 44.4 141.88 53.66 145.94 65.36 C146.97 69.79 147.07 73.8 147 78.32 C147 79.51 147 79.51 147 80.72 C146.97 84.49 146.74 87.43 145.82 91.13 C124.37 91.13 102.92 91.13 80.82 91.13 C81.66 96.22 82.34 99.69 84.82 104.13 C90.31 107 96.16 106.83 102 105.07 C106.57 103.25 107.68 100.41 109.82 96.13 C113.44 94.93 114.07 95.43 117.44 96.95 C121.54 98.69 125.43 99.85 129.81 100.64 C132.02 101.18 133.8 102.08 135.82 103.13 C136.48 103.3 137.14 103.46 137.82 103.63 C139.82 104.13 139.82 104.13 141.65 105.3 C143.82 106.4 143.82 106.4 146.04 105.33 C146.83 104.86 147.63 104.38 148.44 103.89 C149.75 103.13 149.75 103.13 151.08 102.35 C151.98 101.8 152.89 101.26 153.82 100.7 C155.6 99.62 157.39 98.56 159.19 97.51 C159.98 97.03 160.77 96.55 161.59 96.06 C164.17 94.99 165.25 95.16 167.82 96.13 C167.82 96.79 167.82 97.45 167.82 98.13 C168.48 98.13 169.14 98.13 169.82 98.13 C170.31 98.71 170.81 99.29 171.32 99.88 C179.54 107.28 189.46 106.6 199.82 106.13 C199.82 104.48 199.82 102.83 199.82 101.13 C193.61 98.67 187.42 96.29 181.04 94.3 C170.33 90.92 161.28 86.67 154.82 77.13 C151.65 70.59 151.79 63.66 153.8 56.75 C157.05 48.44 157.05 48.44 161.82 46.13 C161.97 45.19 161.97 45.19 162.12 44.23 C162.82 42.13 162.82 42.13 165.91 40.28 C167.23 39.68 168.55 39.08 169.88 38.51 C170.84 38.06 170.84 38.06 171.83 37.6 C181.26 33.35 189.73 32.77 200 32.76 C201.24 32.73 202.48 32.71 203.76 32.68 C218.39 32.64 231.96 37 242.82 47.13 C242.82 47.79 242.82 48.45 242.82 49.13 C243.81 49.46 244.8 49.79 245.82 50.13 C246.5 52.2 246.5 52.2 246.82 54.13 C247.48 54.13 248.14 54.13 248.82 54.13 C248.82 55.12 248.82 56.11 248.82 57.13 C245.32 59.21 241.79 61.24 238.25 63.26 C237.26 63.85 236.27 64.44 235.25 65.04 C226.93 69.74 226.93 69.74 222.83 68.68 C220.23 67.35 218.27 66.16 216.13 64.2 C211.26 60.35 205.97 58.69 199.82 58.13 C196.97 58.74 195.33 59.59 192.82 61.13 C192.82 61.79 192.82 62.45 192.82 63.13 C193.96 63.51 195.11 63.88 196.3 64.27 C232.37 76.12 232.37 76.12 239.63 88.13 C241.75 93.48 241.05 99.49 240.82 105.13 C248.96 101.18 248.96 101.18 256.82 96.7 C259.82 95.13 259.82 95.13 262.25 95.38 C263.03 95.75 263.03 95.75 263.82 96.13 C263.82 96.79 263.82 97.45 263.82 98.13 C264.62 98.5 264.62 98.5 265.44 98.88 C267.82 100.13 267.82 100.13 270.69 102.13 C276.5 105.85 281.49 106.42 288.19 106.26 C288.93 106.25 289.66 106.24 290.42 106.23 C292.22 106.21 294.02 106.17 295.82 106.13 C295.82 104.48 295.82 102.83 295.82 101.13 C287.04 97.68 287.04 97.68 278.13 94.57 C276.69 94.09 275.25 93.62 273.82 93.13 C273.01 92.86 272.19 92.59 271.36 92.31 C262 88.9 255.05 83.64 249.82 75.13 C247.27 67.49 248.51 59.34 251.82 52.13 C253.67 48.64 254.9 46.44 258.82 45.13 C259.15 44.14 259.48 43.15 259.82 42.13 C261.99 40.81 264.09 39.67 266.38 38.57 C266.98 38.27 267.57 37.96 268.19 37.65 C277.37 33.13 285.89 32.77 296 32.76 C297.24 32.73 298.48 32.71 299.76 32.68 C315.86 32.63 328.42 37.98 340.32 48.62 C341.82 50.13 341.82 50.13 342.82 52.13 C343.81 52.79 344.8 53.45 345.82 54.13 C343.62 59.71 338.68 61.36 333.63 64.01 C332.69 64.53 331.76 65.05 330.8 65.59 C323.86 69.26 323.86 69.26 318.87 68.64 C316.21 67.33 314.29 66.18 312.13 64.2 C307.26 60.35 301.97 58.69 295.82 58.13 C292.97 58.74 291.33 59.59 288.82 61.13 C289.15 62.12 289.48 63.11 289.82 64.13 C291.88 65.09 291.88 65.09 294.45 65.71 C295.9 66.12 295.9 66.12 297.37 66.53 C298.41 66.81 299.44 67.09 300.5 67.38 C314.27 71.35 328.08 75.59 335.86 88.64 C339.04 96.94 337.11 105.97 333.89 113.93 C332.36 117.08 331.45 118.85 328.19 120.32 C327.02 120.72 327.02 120.72 325.82 121.13 C325.82 122.12 325.82 123.11 325.82 124.13 C319.5 129.37 311.58 131.91 303.82 134.13 C303.21 134.31 302.61 134.48 301.99 134.66 C285.13 138.3 265.5 135.66 250.75 126.76 C246.15 123.55 241.9 119.98 237.82 116.13 C237.18 116.81 236.54 117.49 235.88 118.2 C221.79 132.12 207.09 135.59 187.85 135.57 C169.04 135.25 155.49 128.86 141.81 115.95 C139.94 114.08 139.94 114.08 137.82 113.13 C137.49 114.12 137.16 115.11 136.82 116.13 C136.24 116.24 135.66 116.34 135.07 116.45 C131.59 117.51 129.98 120.37 127.82 123.13 C121.05 131.06 111.43 134.42 101.27 135.37 C83.8 136.27 69.09 134.08 55.57 122.15 C51.89 118.66 49.49 115.98 47.82 111.13 C47.16 111.13 46.5 111.13 45.82 111.13 C45.55 112.41 45.28 113.69 45 115.01 C42.31 127.14 42.31 127.14 39.82 132.13 C10.78 132.13 -18.26 132.13 -48.18 132.13 C-47.06 122.01 -47.06 122.01 -45.91 118.27 C-45.65 117.44 -45.4 116.6 -45.14 115.74 C-44.87 114.86 -44.59 113.99 -44.31 113.09 C-44.03 112.17 -43.75 111.24 -43.46 110.29 C-42.56 107.36 -41.65 104.43 -40.75 101.51 C-40.14 99.54 -39.54 97.57 -38.93 95.59 C-38.08 92.81 -37.23 90.03 -36.37 87.25 C-36.11 86.42 -35.85 85.59 -35.59 84.73 C-35.36 84.01 -35.14 83.29 -34.91 82.55 C-33.97 79.42 -33.08 76.27 -32.18 73.13 C-31.55 70.99 -30.91 68.84 -30.26 66.7 C-29.89 65.47 -29.52 64.23 -29.14 62.97 C-28.74 61.64 -28.34 60.31 -27.94 58.98 C-27.52 57.6 -27.11 56.22 -26.69 54.84 C-25.82 51.96 -24.95 49.07 -24.08 46.18 C-22.97 42.51 -21.86 38.83 -20.76 35.15 C-19.9 32.3 -19.04 29.45 -18.18 26.6 C-17.77 25.25 -17.37 23.89 -16.96 22.54 C-15.71 18.4 -14.45 14.26 -13.18 10.13 C-12.9 9.19 -12.61 8.25 -12.32 7.27 C-11.66 5.21 -10.93 3.17 -10.18 1.13 C-6.98 -0.47 -3.51 -0.01 0 0 Z M88.21 62.53 C85.73 65.4 84.75 67.41 83.82 71.13 C93.06 71.13 102.3 71.13 111.82 71.13 C109.12 61.24 109.12 61.24 103.69 59.01 C97.95 57.71 92.77 58.56 88.21 62.53 Z M153.82 60.13 C154.82 62.13 154.82 62.13 154.82 62.13 Z M201.82 103.13 C202.82 105.13 202.82 105.13 202.82 105.13 Z M297.82 103.13 C298.82 105.13 298.82 105.13 298.82 105.13 Z M188.82 108.13 C188.82 108.46 188.82 108.79 188.82 109.13 C190.8 109.13 192.78 109.13 194.82 109.13 C194.82 108.8 194.82 108.47 194.82 108.13 C192.84 108.13 190.86 108.13 188.82 108.13 Z M284.82 108.13 C284.82 108.46 284.82 108.79 284.82 109.13 C286.8 109.13 288.78 109.13 290.82 109.13 C290.82 108.8 290.82 108.47 290.82 108.13 C288.84 108.13 286.86 108.13 284.82 108.13 Z " fill="#262828" transform="translate(934.18359375,2.8671875)"/>
<path d="M0 0 C0.75 0.01 1.49 0.01 2.26 0.02 C3.04 0.02 3.83 0.01 4.64 0.01 C7.24 0.01 9.85 0.02 12.45 0.03 C14.26 0.03 16.06 0.03 17.87 0.03 C21.66 0.03 25.45 0.04 29.24 0.05 C34.1 0.07 38.96 0.07 43.82 0.07 C47.55 0.07 51.28 0.08 55.01 0.09 C56.8 0.09 58.59 0.09 60.39 0.09 C62.89 0.1 65.4 0.1 67.9 0.11 C69.01 0.11 69.01 0.11 70.15 0.11 C73.26 0.13 75.68 0.27 78.64 1.26 C79.65 1.2 80.67 1.14 81.71 1.07 C91.45 1.54 100.82 7.19 107.46 14.17 C114.13 22.58 116.53 31.9 118.64 42.26 C119.56 41.79 120.48 41.32 121.43 40.83 C139.75 31.7 162.65 28.04 182.64 34.26 C192.35 38.12 200.51 42.71 204.92 52.43 C206.47 56.35 206.78 59.41 206.82 63.62 C206.83 64.94 206.84 66.25 206.86 67.61 C206.86 68.31 206.87 69.02 206.87 69.74 C206.89 71.95 206.91 74.16 206.94 76.36 C207.01 82.64 207.07 88.92 207.12 95.2 C207.15 99.04 207.19 102.88 207.24 106.72 C207.26 108.18 207.27 109.64 207.28 111.1 C207.29 113.15 207.31 115.2 207.34 117.25 C207.36 118.99 207.36 118.99 207.37 120.77 C207.61 125.06 207.61 125.06 209.64 132.26 C197.1 132.26 184.56 132.26 171.64 132.26 C170.64 128.26 170.64 128.26 171.64 126.26 C170.76 126.74 169.88 127.22 168.97 127.72 C156.03 134.61 142.4 137.81 127.8 134.01 C118.62 130.81 111.65 125.11 106.71 116.76 C103.28 109.28 103.33 100.95 105.53 93.1 C109.39 83.79 115.13 78.23 124.39 74.38 C137.83 69.76 154.36 65.69 168.64 66.26 C168.39 64.94 168.11 63.63 167.83 62.32 C167.61 61.23 167.61 61.23 167.37 60.11 C167.01 59.19 167.01 59.19 166.64 58.26 C162.88 57.01 159.37 57.15 155.46 57.2 C154.71 57.2 153.96 57.21 153.19 57.21 C151.34 57.22 149.49 57.24 147.64 57.26 C147.33 58.21 147.03 59.16 146.71 60.13 C145.64 63.26 145.64 63.26 144.64 65.26 C128.8 65.75 128.8 65.75 112.64 66.26 C111.98 67.91 111.32 69.56 110.64 71.26 C108.52 74.69 106.23 76.42 102.64 78.26 C101.98 78.26 101.32 78.26 100.64 78.26 C100.97 79.25 101.3 80.24 101.64 81.26 C90.56 88.23 81.59 90.43 68.55 90.36 C67.61 90.36 66.67 90.35 65.69 90.35 C62.7 90.35 59.7 90.34 56.71 90.32 C54.67 90.32 52.63 90.31 50.59 90.31 C45.61 90.3 40.63 90.28 35.64 90.26 C35.64 104.12 35.64 117.98 35.64 132.26 C21.78 132.26 7.92 132.26 -6.36 132.26 C-7.62 129.74 -7.48 128 -7.49 125.17 C-7.49 124.1 -7.5 123.02 -7.5 121.91 C-7.5 120.72 -7.5 119.54 -7.5 118.31 C-7.5 117.07 -7.51 115.82 -7.51 114.54 C-7.52 111.12 -7.52 107.7 -7.52 104.28 C-7.52 101.42 -7.53 98.57 -7.53 95.72 C-7.54 88.99 -7.54 82.26 -7.54 75.53 C-7.54 68.58 -7.55 61.63 -7.57 54.68 C-7.58 48.72 -7.59 42.76 -7.58 36.8 C-7.58 33.24 -7.59 29.68 -7.6 26.12 C-7.61 22.15 -7.6 18.18 -7.6 14.21 C-7.6 13.02 -7.61 11.83 -7.62 10.61 C-7.61 9.53 -7.61 8.46 -7.6 7.35 C-7.6 6.41 -7.6 5.47 -7.6 4.5 C-7.07 -0.27 -4.1 0.03 0 0 Z M35.64 30.26 C35.64 40.82 35.64 51.38 35.64 62.26 C42.11 62.07 42.11 62.07 48.71 61.88 C50.05 61.85 51.4 61.82 52.78 61.78 C63.12 61.74 63.12 61.74 72.02 57.2 C73.91 53.77 74.24 51.11 74.47 47.25 C74.64 45.26 74.64 45.26 75.64 43.26 C74.98 43.26 74.32 43.26 73.64 43.26 C73.71 42.37 73.77 41.49 73.83 40.57 C73.62 36.81 72.99 35.18 70.64 32.26 C66.58 30.15 63.13 30.03 58.59 30.06 C57.39 30.07 56.18 30.07 54.94 30.08 C53.42 30.1 51.9 30.12 50.33 30.13 C45.48 30.18 40.64 30.22 35.64 30.26 Z M117.64 43.26 C118.64 45.26 118.64 45.26 118.64 45.26 Z M74.64 49.26 C75.64 51.26 75.64 51.26 75.64 51.26 Z M154.64 92.26 C153.65 92.57 152.65 92.89 151.62 93.21 C150.64 93.54 149.65 93.86 148.64 94.2 C147.74 94.5 146.83 94.79 145.89 95.1 C143.54 96.09 143.54 96.09 142.31 98.15 C141.31 101.33 142.03 104.04 142.64 107.26 C148.05 109.06 153.6 108.99 158.96 107.07 C163.62 103.93 167.16 100.81 168.64 95.26 C168.81 92.05 168.81 92.05 168.64 89.26 C163.54 89.26 159.46 90.69 154.64 92.26 Z " fill="#262828" transform="translate(319.3558807373047,2.74005126953125)"/>
<path d="M0 0 C2.36 0.01 4.72 -0.02 7.07 -0.06 C25.76 -0.15 40.8 7.99 54.43 20.58 C65.43 32.81 65.43 32.81 65.43 37.58 C60.95 39.87 56.47 42.14 51.98 44.41 C50.45 45.19 48.92 45.96 47.4 46.74 C45.21 47.86 43.02 48.97 40.82 50.08 C39.8 50.6 39.8 50.6 38.76 51.14 C35.31 52.86 33.37 53.58 29.43 53.58 C27.92 51.5 26.7 49.57 25.49 47.33 C22.12 41.17 18.69 36.92 11.8 34.76 C3.68 32.56 -7.12 33.43 -14.57 37.58 C-15.77 39.89 -15.77 39.89 -16.57 42.58 C-17.4 44.26 -18.24 45.95 -19.07 47.64 C-24.71 60.23 -24.45 73.63 -20.65 86.78 C-19.74 89.13 -18.73 91.34 -17.57 93.58 C-16.95 95 -16.95 95 -16.32 96.45 C-13.09 100.38 -8.31 102 -3.57 103.58 C8.65 104.55 8.65 104.55 19.43 99.58 C24.1 95.25 26.81 90.32 29.43 84.58 C36.37 86.66 42.75 89.5 49.24 92.7 C51.08 93.6 52.92 94.5 54.76 95.4 C55.56 95.79 56.36 96.19 57.19 96.59 C59.27 97.51 61.21 98.1 63.43 98.58 C64.03 97.29 64.03 97.29 64.64 95.99 C65.16 94.88 65.69 93.78 66.24 92.64 C67.02 90.99 67.02 90.99 67.82 89.3 C69.43 86.58 69.43 86.58 72.43 85.58 C72.76 84.59 73.09 83.6 73.43 82.58 C87.77 72.06 109.31 70.9 126.43 69.58 C126.25 66.14 126.25 66.14 125.43 62.58 C122.45 60.06 119.2 60.34 115.43 60.39 C114.4 60.4 113.37 60.4 112.3 60.41 C108.78 60.6 108.78 60.6 105.43 61.58 C104.19 64.54 104.19 64.54 103.43 67.58 C101.42 69.58 97.43 68.83 94.67 68.89 C93.51 68.92 93.51 68.92 92.32 68.96 C89.84 69.02 87.35 69.08 84.87 69.14 C83.18 69.18 81.5 69.23 79.82 69.27 C75.69 69.38 71.56 69.48 67.43 69.58 C65.76 64.58 67.29 59.9 69.57 55.24 C72.83 49.77 72.83 49.77 76.43 48.58 C76.43 47.92 76.43 47.26 76.43 46.58 C92.26 34.07 114.61 34.11 133.75 35.78 C144.4 37.21 153.28 42.23 160.03 50.56 C164.67 57.22 165.53 64.28 165.62 72.25 C165.64 74.21 165.64 74.21 165.67 76.22 C165.67 76.91 165.68 77.6 165.69 78.31 C165.71 80.49 165.74 82.67 165.77 84.84 C165.83 90.25 165.89 95.65 165.95 101.06 C166.01 105.63 166.06 110.21 166.12 114.79 C166.15 116.93 166.17 119.07 166.19 121.21 C166.21 123.17 166.21 123.17 166.24 125.16 C166.25 126.3 166.26 127.45 166.28 128.63 C166.34 131.79 166.34 131.79 167.43 135.58 C155.22 135.58 143.01 135.58 130.43 135.58 C130.43 133.6 130.43 131.62 130.43 129.58 C129.72 129.97 129.02 130.37 128.3 130.78 C114.31 138.29 99.69 140.89 84.29 136.62 C76.01 133.61 69.07 127.97 65.17 120.01 C62.43 113.43 62.43 113.43 62.43 109.58 C60.78 111.23 59.13 112.88 57.43 114.58 C56.77 114.25 56.11 113.92 55.43 113.58 C55.43 115.23 55.43 116.88 55.43 118.58 C53.78 119.24 52.13 119.9 50.43 120.58 C50.43 121.57 50.43 122.56 50.43 123.58 C48.5 125.22 46.65 126.61 44.55 128.01 C43.66 128.62 43.66 128.62 42.76 129.23 C37.88 132.44 33.02 134.83 27.43 136.58 C26.53 136.86 25.64 137.15 24.72 137.44 C18.64 139.24 12.75 140.24 6.43 140.58 C5.72 140.62 5.02 140.66 4.3 140.7 C-16 141.3 -33.72 134.16 -48.57 120.58 C-61.02 107.85 -66.95 91.9 -67 74.42 C-67.01 72.18 -67.06 69.93 -67.11 67.69 C-67.29 51.94 -62.87 36.68 -52.01 24.76 C-51.21 24.04 -50.4 23.32 -49.57 22.58 C-48.05 20.85 -46.57 19.09 -45.1 17.32 C-41.75 13.49 -38.47 10.68 -34.07 8.08 C-33.13 7.51 -32.2 6.94 -31.23 6.36 C-20.94 1.07 -11.36 -0.09 0 0 Z M127.43 91.58 C128.43 93.58 128.43 93.58 128.43 93.58 Z M115.62 94.89 C114.81 95.1 114 95.32 113.17 95.54 C108.87 96.71 105.04 97.86 101.43 100.58 C99.89 103.72 99.1 105.49 100.12 108.89 C101.41 110.88 101.41 110.88 104.43 111.58 C110.94 112.36 116.03 111.36 121.43 107.58 C126.05 102.71 126.55 99.17 126.43 92.58 C122.73 92.58 119.17 93.91 115.62 94.89 Z " fill="#262828" transform="translate(66.572021484375,-0.576416015625)"/>
<path d="M0 0 C0.77 0 1.54 0 2.33 0 C3.12 -0 3.9 -0.01 4.72 -0.01 C6.39 -0.02 8.06 -0.02 9.73 -0.01 C12.29 -0.01 14.84 -0.03 17.4 -0.06 C19.02 -0.06 20.64 -0.06 22.26 -0.06 C23.03 -0.07 23.8 -0.08 24.58 -0.09 C27.49 -0.06 29.79 -0.02 32.35 1.44 C33.84 4.18 33.7 6.4 33.65 9.5 C33.64 11.32 33.64 11.32 33.63 13.16 C33.6 14.43 33.57 15.69 33.55 16.99 C33.53 18.9 33.53 18.9 33.51 20.85 C33.47 24 33.42 27.15 33.36 30.3 C34.35 30.29 35.34 30.28 36.35 30.27 C37.64 30.26 38.92 30.25 40.24 30.24 C41.51 30.23 42.79 30.22 44.1 30.21 C47.36 30.3 47.36 30.3 49.36 31.3 C49.36 38.56 49.36 45.82 49.36 53.3 C43.75 53.3 38.14 53.3 32.36 53.3 C32.69 67.49 33.02 81.68 33.36 96.3 C40.29 96.8 40.29 96.8 47.36 97.3 C48.02 97.63 48.68 97.96 49.36 98.3 C49.96 100.95 50.1 103.6 50.36 106.3 C51.12 105.54 51.89 104.78 52.67 103.99 C54.57 102.1 56.47 100.2 58.36 98.3 C59.15 97.48 59.93 96.65 60.74 95.8 C63.22 93.44 65.22 91.67 68.36 90.3 C71.15 91.43 73.51 93.05 75.99 94.74 C85.39 100.57 94.58 100.69 105.36 100.3 C105.69 97.99 106.02 95.68 106.36 93.3 C105.31 93.17 104.25 93.03 103.16 92.89 C94.27 91.64 85.78 89.77 77.24 86.99 C76.37 86.72 75.51 86.45 74.62 86.17 C64.88 82.86 58.11 77.2 52.61 68.55 C50.95 64.23 50.2 59.94 50.36 55.3 C51.33 53.14 51.33 53.14 52.36 51.3 C52.46 50.56 52.57 49.82 52.67 49.05 C54.25 42.75 58.1 37.99 63.36 34.3 C64.11 33.66 64.85 33.02 65.62 32.36 C68.59 30.13 71.32 28.92 74.8 27.62 C75.89 27.2 76.98 26.78 78.11 26.35 C94.65 21.01 114.78 23.66 130.05 31.3 C138.49 35.63 138.49 35.63 141.36 38.3 C141.36 39.29 141.36 40.28 141.36 41.3 C140.7 41.3 140.04 41.3 139.36 41.3 C138.7 42.62 138.04 43.94 137.36 45.3 C136.7 44.97 136.04 44.64 135.36 44.3 C133.82 45.68 133.82 45.68 132.36 47.3 C132.36 47.96 132.36 48.62 132.36 49.3 C130.05 51.93 130.05 51.93 127.36 54.3 C126.37 54.3 125.38 54.3 124.36 54.3 C124.36 53.97 124.36 53.64 124.36 53.3 C123.04 54.95 121.72 56.6 120.36 58.3 C119.41 57.81 118.45 57.32 117.47 56.81 C108.75 52.44 100.26 48.39 90.36 51.3 C90.03 52.95 89.7 54.6 89.36 56.3 C90.56 56.55 91.76 56.79 92.99 57.04 C131.35 64.89 131.35 64.89 140.87 77.26 C145.46 84.53 146.23 92.66 144.74 101.05 C143.49 105.69 141.19 109.47 138.36 113.3 C137.75 114.13 137.14 114.96 136.52 115.81 C130.56 122.7 122.1 126.36 113.36 128.3 C112.27 128.58 112.27 128.58 111.15 128.85 C88.86 132.44 68.61 125.88 50.36 113.3 C49.87 119.24 49.87 119.24 49.36 125.3 C15.63 129.88 15.63 129.88 2.36 121.3 C-2.77 117.09 -7.22 112.56 -7.9 105.64 C-7.99 102.32 -7.98 99.01 -7.93 95.69 C-7.93 94.47 -7.92 93.26 -7.92 92.01 C-7.9 88.15 -7.86 84.29 -7.83 80.43 C-7.81 77.81 -7.8 75.18 -7.78 72.56 C-7.75 66.14 -7.7 59.72 -7.64 53.3 C-8.79 53.36 -8.79 53.36 -9.97 53.41 C-10.98 53.44 -11.98 53.46 -13.01 53.49 C-14.51 53.54 -14.51 53.54 -16.04 53.6 C-16.9 53.5 -17.75 53.4 -18.64 53.3 C-20.68 50.25 -20.89 49.59 -20.9 46.14 C-20.91 45.35 -20.91 44.56 -20.91 43.74 C-20.9 42.91 -20.9 42.09 -20.89 41.24 C-20.9 40.41 -20.9 39.58 -20.91 38.73 C-20.91 37.94 -20.91 37.15 -20.9 36.33 C-20.9 35.61 -20.9 34.88 -20.9 34.14 C-20.64 32.3 -20.64 32.3 -18.64 30.3 C-16.04 30.11 -16.04 30.11 -13.01 30.18 C-11.51 30.21 -11.51 30.21 -9.97 30.23 C-9.2 30.26 -8.43 30.28 -7.64 30.3 C-7.65 29.47 -7.66 28.63 -7.67 27.76 C-7.7 24.66 -7.73 21.56 -7.75 18.45 C-7.76 16.44 -7.79 14.44 -7.81 12.43 C-7.82 11.18 -7.83 9.92 -7.83 8.62 C-7.84 7.46 -7.85 6.3 -7.87 5.1 C-7.44 -0.19 -4.66 0.06 0 0 Z M-6.64 2.3 C-6.64 10.88 -6.64 19.46 -6.64 28.3 C-6.31 28.3 -5.98 28.3 -5.64 28.3 C-5.64 19.72 -5.64 11.14 -5.64 2.3 C-5.97 2.3 -6.3 2.3 -6.64 2.3 Z M51.36 57.3 C52.36 59.3 52.36 59.3 52.36 59.3 Z M107.36 95.3 C108.36 99.3 108.36 99.3 108.36 99.3 Z M39.36 98.3 C39.36 98.63 39.36 98.96 39.36 99.3 C41.34 99.3 43.32 99.3 45.36 99.3 C45.36 98.97 45.36 98.64 45.36 98.3 C43.38 98.3 41.4 98.3 39.36 98.3 Z M96.36 102.3 C100.36 103.3 100.36 103.3 100.36 103.3 Z " fill="#262828" transform="translate(624.6384124755859,9.696456909179688)"/>
<path d="M0 0 C1.23 0 1.23 0 2.49 0 C3.89 -0 3.89 -0 5.31 -0.01 C6.32 0 7.33 0.01 8.37 0.02 C9.92 0.02 9.92 0.02 11.5 0.02 C13.69 0.02 15.87 0.03 18.06 0.04 C21.42 0.06 24.77 0.06 28.12 0.06 C30.25 0.07 32.37 0.07 34.49 0.08 C35.5 0.08 36.5 0.08 37.54 0.08 C38.94 0.09 38.94 0.09 40.37 0.1 C41.19 0.11 42.02 0.11 42.86 0.11 C45 0.25 45 0.25 48 1.25 C47.42 6.04 46.45 10.36 44.91 14.93 C44.7 15.55 44.49 16.18 44.27 16.83 C43.58 18.88 42.89 20.93 42.19 22.98 C41.71 24.42 41.22 25.87 40.74 27.31 C39.46 31.1 38.18 34.89 36.9 38.68 C34.86 44.73 32.82 50.78 30.79 56.83 C30.08 58.93 29.37 61.02 28.66 63.12 C26.19 70.44 23.94 77.77 22 85.25 C26.62 85.25 31.24 85.25 36 85.25 C35.52 83.54 35.05 81.82 34.56 80.06 C32.54 72.79 32.54 72.79 32 69.25 C33.9 67.35 37.25 68.12 39.77 68.11 C40.79 68.11 40.79 68.11 41.83 68.11 C43.27 68.11 44.71 68.11 46.15 68.12 C48.35 68.12 50.56 68.12 52.76 68.11 C54.16 68.11 55.56 68.11 56.96 68.11 C58.23 68.12 59.51 68.12 60.82 68.12 C64 68.25 64 68.25 67 69.25 C65.84 74.65 64.57 79.96 63 85.25 C63.9 85.24 64.8 85.22 65.73 85.21 C66.91 85.2 68.09 85.19 69.31 85.18 C70.48 85.17 71.65 85.16 72.86 85.15 C76 85.25 76 85.25 79 86.25 C77.23 95.25 74.41 103.93 71.68 112.68 C71.16 114.39 70.63 116.09 70.1 117.79 C68.7 122.33 67.29 126.86 65.88 131.4 C63.48 139.14 61.08 146.89 58.68 154.63 C57.82 157.4 56.96 160.17 56.1 162.94 C55.57 164.64 55.04 166.34 54.51 168.04 C54.27 168.81 54.03 169.59 53.78 170.39 C52.77 173.66 51.8 176.92 51 180.25 C50.34 180.25 49.68 180.25 49 180.25 C45.23 173.25 43.15 165.86 41 158.25 C38.77 150.88 36.47 143.54 34 136.25 C33.67 135.26 33.34 134.27 33 133.25 C8.25 132.92 -16.5 132.59 -42 132.25 C-41.34 126.92 -40.75 122.83 -39.23 117.87 C-38.86 116.67 -38.5 115.46 -38.12 114.22 C-37.72 112.93 -37.32 111.63 -36.92 110.33 C-36.5 108.96 -36.08 107.59 -35.67 106.22 C-34.78 103.33 -33.9 100.44 -33.01 97.55 C-31.62 93.04 -30.25 88.53 -28.87 84.02 C-28.41 82.52 -27.95 81.02 -27.49 79.52 C-27.27 78.78 -27.04 78.04 -26.81 77.28 C-26.13 75.05 -25.45 72.82 -24.77 70.59 C-21.56 60.09 -18.4 49.57 -15.29 39.04 C-12.38 29.2 -9.48 19.36 -6.44 9.56 C-6.1 8.43 -6.1 8.43 -5.75 7.29 C-3.6 0.44 -3.6 0.44 0 0 Z " fill="#EE6824" transform="translate(810.0046234130859,2.7527618408203125)"/>
<path d="M0 0 C0 10.89 0 21.78 0 33 C-2.97 33 -5.94 33 -9 33 C-15.26 33.68 -20.43 35 -26 38 C-26.99 37.5 -26.99 37.5 -28 37 C-28.14 38.24 -28.29 39.47 -28.44 40.75 C-28.68 42.84 -28.94 44.8 -29.51 46.82 C-30.06 49.27 -30.12 51.45 -30.11 53.95 C-30.11 54.93 -30.11 55.91 -30.11 56.92 C-30.11 57.98 -30.1 59.03 -30.1 60.11 C-30.1 61.73 -30.1 61.73 -30.09 63.39 C-30.09 66.84 -30.08 70.3 -30.06 73.75 C-30.06 76.09 -30.05 78.43 -30.05 80.78 C-30.04 86.52 -30.02 92.26 -30 98 C-42.87 98 -55.74 98 -69 98 C-70.67 94.67 -70.15 90.93 -70.15 87.27 C-70.15 86.36 -70.15 85.46 -70.16 84.53 C-70.16 81.53 -70.17 78.53 -70.17 75.53 C-70.17 73.45 -70.17 71.38 -70.18 69.3 C-70.18 64.94 -70.19 60.58 -70.19 56.23 C-70.19 50.63 -70.2 45.03 -70.22 39.44 C-70.23 35.15 -70.23 30.86 -70.23 26.56 C-70.23 24.5 -70.23 22.44 -70.24 20.37 C-70.25 17.49 -70.25 14.61 -70.24 11.73 C-70.25 10.87 -70.25 10.01 -70.26 9.13 C-70.23 3.23 -70.23 3.23 -68 1 C-65.44 0.81 -62.99 0.74 -60.44 0.77 C-59.32 0.77 -59.32 0.77 -58.17 0.77 C-56.59 0.77 -55.01 0.78 -53.43 0.79 C-51.01 0.81 -48.59 0.81 -46.16 0.81 C-44.63 0.82 -43.1 0.83 -41.56 0.83 C-40.47 0.83 -40.47 0.83 -39.36 0.84 C-34.23 0.88 -34.23 0.88 -32 2 C-31.59 4.32 -31.26 6.66 -31 9 C-30.04 7.89 -30.04 7.89 -29.06 6.75 C-22.65 0.32 -8.56 -4.28 0 0 Z " fill="#272929" transform="translate(308,37)"/>
<path d="M0 0 C1.6 1.11 1.6 1.11 3 3 C3.36 5.97 3.36 5.97 3.33 9.57 C3.32 10.86 3.32 12.15 3.31 13.47 C3.3 14.15 3.29 14.82 3.28 15.51 C3.25 17.56 3.24 19.61 3.23 21.66 C3.15 31.69 3.15 31.69 2 34 C-0.52 34.24 -2.97 34.37 -5.5 34.44 C-14.6 34.76 -14.6 34.76 -23 38 C-24.59 40.26 -24.59 40.26 -25 43 C-25.33 43.81 -25.67 44.62 -26.01 45.45 C-27.41 50.48 -27.36 55.33 -27.41 60.52 C-27.43 61.62 -27.45 62.73 -27.47 63.86 C-27.53 67.37 -27.58 70.87 -27.62 74.38 C-27.66 76.76 -27.7 79.14 -27.74 81.52 C-27.84 87.35 -27.92 93.17 -28 99 C-40.54 99 -53.08 99 -66 99 C-66.15 86.5 -66.3 74 -66.44 61.5 C-66.51 55.7 -66.58 49.89 -66.65 44.09 C-66.72 38.5 -66.78 32.9 -66.84 27.3 C-66.87 25.16 -66.89 23.02 -66.92 20.88 C-66.96 17.9 -66.99 14.91 -67.02 11.93 C-67.03 11.03 -67.05 10.14 -67.06 9.22 C-67.08 7.14 -67.05 5.07 -67 3 C-65.04 1.04 -61.26 1.81 -58.57 1.8 C-57.82 1.79 -57.08 1.79 -56.31 1.78 C-54.73 1.77 -53.15 1.76 -51.56 1.76 C-49.14 1.75 -46.72 1.72 -44.3 1.69 C-42.77 1.68 -41.23 1.68 -39.7 1.67 C-38.97 1.66 -38.25 1.65 -37.5 1.63 C-32.48 1.66 -32.48 1.66 -30.06 3.38 C-28.85 5.23 -28.37 6.83 -28 9 C-27.47 8.6 -26.93 8.2 -26.38 7.79 C-18.82 2.42 -9.55 -1.99 0 0 Z " fill="#262828" transform="translate(598,36)"/>
<path d="M0 0 C3.29 -0.09 6.58 -0.14 9.88 -0.19 C10.81 -0.21 11.75 -0.24 12.71 -0.26 C14.06 -0.28 14.06 -0.28 15.43 -0.29 C16.26 -0.31 17.08 -0.32 17.94 -0.34 C18.62 -0.23 19.3 -0.12 20 0 C20.66 0.99 21.32 1.98 22 3 C21.39 5.76 20.68 8.28 19.79 10.95 C19.42 12.11 19.42 12.11 19.04 13.29 C18.25 15.76 17.44 18.22 16.62 20.69 C16.08 22.36 15.55 24.03 15.01 25.71 C13.69 29.81 12.35 33.91 11 38 C10.67 38 10.34 38 10 38 C10 36.35 10 34.7 10 33 C9.34 33 8.68 33 8 33 C6.69 28.95 5.39 24.89 4.1 20.83 C3.66 19.45 3.22 18.07 2.77 16.69 C2.13 14.71 1.5 12.72 0.87 10.73 C0.49 9.54 0.11 8.35 -0.29 7.12 C-0.96 4.16 -1.08 2.77 0 0 Z " fill="#262828" transform="translate(849,89)"/>
<path d="M0 0 C0.33 0 0.66 0 1 0 C1 30.36 1 60.72 1 92 C0.67 92 0.34 92 0 92 C0 61.64 0 31.28 0 0 Z " fill="#262828" transform="translate(530,40)"/>
<path d="M0 0 C0.33 0 0.66 0 1 0 C1 6.27 1 12.54 1 19 C0.67 19 0.34 19 0 19 C0 12.73 0 6.46 0 0 Z " fill="#262828" transform="translate(616,93)"/>
<path d="M0 0 C4.62 0 9.24 0 14 0 C14 0.33 14 0.66 14 1 C9.38 1 4.76 1 0 1 C0 0.67 0 0.34 0 0 Z " fill="#262828" transform="translate(1223,35)"/>
<path d="M0 0 C4.62 0 9.24 0 14 0 C14 0.33 14 0.66 14 1 C9.38 1 4.76 1 0 1 C0 0.67 0 0.34 0 0 Z " fill="#262828" transform="translate(1127,35)"/>
<path d="M0 0 C0 0.99 0 1.98 0 3 C-1.98 3.99 -1.98 3.99 -4 5 C-2.68 3.35 -1.36 1.7 0 0 Z " fill="#1C1D1D" transform="translate(1068,120)"/>
<path d="M0 0 C0.33 0 0.66 0 1 0 C1 1.98 1 3.96 1 6 C0.67 6 0.34 6 0 6 C0 4.02 0 2.04 0 0 Z " fill="#262828" transform="translate(975,89)"/>
<path d="M0 0 C3 1 3 1 3 1 Z " fill="#191B1A" transform="translate(1252,72)"/>
<path d="M0 0 C3 1 3 1 3 1 Z " fill="#191B1A" transform="translate(1156,72)"/>
<path d="M0 0 C0.99 0.5 0.99 0.5 2 1 C1.01 1.5 1.01 1.5 0 2 C0 1.34 0 0.68 0 0 Z " fill="#262828" transform="translate(17,19)"/>
<path d="" fill="#262828" transform="translate(0,0)"/>
<path d="" fill="#202121" transform="translate(0,0)"/>
<path d="" fill="#000100" transform="translate(0,0)"/>
<path d="" fill="#000100" transform="translate(0,0)"/>
<path d="" fill="#000100" transform="translate(0,0)"/>
<path d="" fill="#000100" transform="translate(0,0)"/>
<path d="" fill="#000100" transform="translate(0,0)"/>
<path d="" fill="#000100" transform="translate(0,0)"/>
<path d="" fill="#000100" transform="translate(0,0)"/>
<path d="" fill="#000100" transform="translate(0,0)"/>
<path d="" fill="#000100" transform="translate(0,0)"/>
<path d="" fill="#262828" transform="translate(0,0)"/>
<path d="" fill="#262828" transform="translate(0,0)"/>
<path d="" fill="#262828" transform="translate(0,0)"/>
<path d="" fill="#262828" transform="translate(0,0)"/>
<path d="" fill="#262828" transform="translate(0,0)"/>
<path d="" fill="#262828" transform="translate(0,0)"/>
<path d="" fill="#262828" transform="translate(0,0)"/>
<path d="" fill="#262828" transform="translate(0,0)"/>
<path d="" fill="#262828" transform="translate(0,0)"/>
<path d="" fill="#262828" transform="translate(0,0)"/>
<path d="" fill="#262828" transform="translate(0,0)"/>
<path d="" fill="#000100" transform="translate(0,0)"/>
<path d="" fill="#000100" transform="translate(0,0)"/>
<path d="" fill="#000100" transform="translate(0,0)"/>
<path d="" fill="#000100" transform="translate(0,0)"/>
<path d="" fill="#000100" transform="translate(0,0)"/>
<path d="" fill="#000100" transform="translate(0,0)"/>
<path d="" fill="#000100" transform="translate(0,0)"/>
<path d="" fill="#262828" transform="translate(0,0)"/>
<path d="" fill="#000100" transform="translate(0,0)"/>
<path d="" fill="#000100" transform="translate(0,0)"/>
<path d="" fill="#262828" transform="translate(0,0)"/>
<path d="" fill="#000100" transform="translate(0,0)"/>
<path d="" fill="#262828" transform="translate(0,0)"/>
<path d="" fill="#262828" transform="translate(0,0)"/>
<path d="" fill="#262828" transform="translate(0,0)"/>
<path d="" fill="#262828" transform="translate(0,0)"/>
<path d="" fill="#262828" transform="translate(0,0)"/>
<path d="" fill="#262828" transform="translate(0,0)"/>
<path d="" fill="#262828" transform="translate(0,0)"/>
<path d="" fill="#262828" transform="translate(0,0)"/>
<path d="" fill="#000100" transform="translate(0,0)"/>
<path d="" fill="#000100" transform="translate(0,0)"/>
<path d="" fill="#000100" transform="translate(0,0)"/>
<path d="" fill="#000100" transform="translate(0,0)"/>
<path d="" fill="#262828" transform="translate(0,0)"/>
<path d="" fill="#262828" transform="translate(0,0)"/>
<path d="" fill="#262828" transform="translate(0,0)"/>
<path d="" fill="#262828" transform="translate(0,0)"/>
<path d="" fill="#262828" transform="translate(0,0)"/>
<path d="" fill="#262828" transform="translate(0,0)"/>
</svg>
