<?xml version="1.0" encoding="utf-8"?>
<!-- Generator: Adobe Illustrator 15.0.0, SVG Export Plug-In . SVG Version: 6.00 Build 0)  -->
<!DOCTYPE svg PUBLIC "-//W3C//DTD SVG 1.1//EN" "http://www.w3.org/Graphics/SVG/1.1/DTD/svg11.dtd">
<svg version="1.1" id="Layer_1" focusable="false" xmlns="http://www.w3.org/2000/svg" xmlns:xlink="http://www.w3.org/1999/xlink"
	 x="0px" y="0px" width="105px" height="78.75px" viewBox="0 0 105 78.75" enable-background="new 0 0 105 78.75"
	 xml:space="preserve">
<path d="M95.156,0H9.844C4.409,0,0,4.409,0,9.844v59.063c0,5.435,4.409,9.844,9.844,9.844h85.313c5.435,0,9.844-4.409,9.844-9.844
	V9.844C105,4.409,100.591,0,95.156,0z M9.844,6.563h85.313c1.805,0,3.281,1.477,3.281,3.281v8.49
	c-4.491,3.794-10.91,9.023-30.885,24.876c-3.466,2.748-10.295,9.372-15.053,9.29c-4.758,0.082-11.607-6.542-15.053-9.29
	C17.473,27.357,11.054,22.128,6.563,18.334v-8.49C6.563,8.039,8.039,6.563,9.844,6.563z M95.156,72.188H9.844
	c-1.805,0-3.281-1.477-3.281-3.281V26.865c4.676,3.835,12.059,9.762,26.804,21.472C37.57,51.7,44.994,59.104,52.5,59.063
	c7.465,0.062,14.827-7.28,19.134-10.726C86.379,36.627,93.762,30.7,98.438,26.865v42.041C98.438,70.711,96.961,72.188,95.156,72.188
	z"/>
</svg>
