<?xml version="1.0" encoding="UTF-8"?>
<!-- Generator: Adobe Illustrator 15.0.0, SVG Export Plug-In . SVG Version: 6.00 Build 0)  -->
<!DOCTYPE svg PUBLIC "-//W3C//DTD SVG 1.1//EN" "http://www.w3.org/Graphics/SVG/1.1/DTD/svg11.dtd">
<svg version="1.1" id="Layer_1" xmlns="http://www.w3.org/2000/svg" xmlns:xlink="http://www.w3.org/1999/xlink" x="0px" y="0px" width="22px" height="16.977px" viewBox="0 0 22 16.977" enable-background="new 0 0 22 16.977" xml:space="preserve">
<path fill-rule="evenodd" clip-rule="evenodd" fill="#FFFFFF" d="M22,1.468c0,0.81-0.657,1.467-1.468,1.467H1.468  C0.657,2.935,0,2.278,0,1.468l0,0C0,0.657,0.657,0,1.468,0h19.064C21.343,0,22,0.657,22,1.468L22,1.468z"/>
<path fill-rule="evenodd" clip-rule="evenodd" fill="#FFFFFF" d="M22,8.468c0,0.81-0.657,1.467-1.468,1.467H1.468  C0.657,9.935,0,9.278,0,8.468l0,0C0,7.657,0.657,7,1.468,7h19.064C21.343,7,22,7.657,22,8.468L22,8.468z"/>
<path fill-rule="evenodd" clip-rule="evenodd" fill="#FFFFFF" d="M22,15.493c0,0.81-0.657,1.468-1.468,1.468H1.468  C0.657,16.961,0,16.303,0,15.493l0,0c0-0.811,0.657-1.468,1.468-1.468h19.064C21.343,14.025,22,14.683,22,15.493L22,15.493z"/>
</svg>