<?xml version="1.0" encoding="utf-8"?>
<!-- Generator: Adobe Illustrator 15.0.0, SVG Export Plug-In . SVG Version: 6.00 Build 0)  -->
<!DOCTYPE svg PUBLIC "-//W3C//DTD SVG 1.1//EN" "http://www.w3.org/Graphics/SVG/1.1/DTD/svg11.dtd">
<svg version="1.1" id="Layer_1" xmlns="http://www.w3.org/2000/svg" xmlns:xlink="http://www.w3.org/1999/xlink" x="0px" y="0px"
	 width="12px" height="12px" viewBox="0 0 12 12" enable-background="new 0 0 12 12" xml:space="preserve">
<path fill="#CE2127" d="M6,0.25C2.824,0.25,0.25,2.824,0.25,6S2.824,11.75,6,11.75S11.75,9.176,11.75,6S9.176,0.25,6,0.25z
	 M6,10.477c-2.473,0-4.477-2.004-4.477-4.477c0-2.473,2.004-4.477,4.477-4.477c2.473,0,4.477,2.004,4.477,4.477
	C10.477,8.473,8.473,10.477,6,10.477z"/>
<path fill="#CE2127" d="M8.668,3.929c0.081,0.081,0.081,0.214,0,0.296L7.037,5.853c-0.081,0.081-0.081,0.215,0,0.297l1.629,1.628
	c0.081,0.082,0.081,0.215,0,0.297L8.073,8.666c-0.081,0.08-0.215,0.08-0.298,0L6.148,7.037c-0.081-0.082-0.216-0.082-0.297,0
	l-1.63,1.627c-0.081,0.082-0.215,0.082-0.296,0L3.333,8.072c-0.081-0.08-0.081-0.215,0-0.295l1.63-1.629
	c0.082-0.081,0.082-0.214,0-0.296L3.333,4.223c-0.081-0.081-0.081-0.215,0-0.296l0.593-0.592c0.082-0.081,0.215-0.081,0.298,0
	l1.627,1.628c0.083,0.082,0.216,0.082,0.297,0.001l1.63-1.628c0.081-0.081,0.215-0.081,0.296,0L8.668,3.929z"/>
</svg>
