<?xml version="1.0" encoding="utf-8"?>
<!-- Generator: Adobe Illustrator 15.0.0, SVG Export Plug-In . SVG Version: 6.00 Build 0)  -->
<!DOCTYPE svg PUBLIC "-//W3C//DTD SVG 1.1//EN" "http://www.w3.org/Graphics/SVG/1.1/DTD/svg11.dtd">
<svg version="1.1" id="Layer_2" xmlns="http://www.w3.org/2000/svg" xmlns:xlink="http://www.w3.org/1999/xlink" x="0px" y="0px"
	 width="15px" height="15px" viewBox="0 0 15 15" enable-background="new 0 0 15 15" xml:space="preserve">
<path fill="#959595" d="M13.989,3.556l-2.098,2.098c-0.418,0.418-1.11,0.404-1.543-0.027L9.292,4.567
	C9.225,4.604,9.155,4.644,9.083,4.685C8.415,5.054,7.502,5.562,6.54,6.522C5.576,7.487,5.069,8.403,4.698,9.069
	C4.659,9.142,4.621,9.21,4.583,9.274l0.71,0.709l0.349,0.348c0.433,0.434,0.444,1.125,0.028,1.543l-2.099,2.1
	c-0.417,0.416-1.109,0.404-1.542-0.029l-0.592-0.596l0.017-0.016c-0.198-0.252-0.364-0.545-0.487-0.859
	c-0.114-0.299-0.185-0.586-0.218-0.871C0.473,9.306,1.523,7.206,4.372,4.358c3.937-3.938,7.11-3.641,7.247-3.625
	c0.299,0.035,0.584,0.105,0.875,0.219c0.313,0.121,0.604,0.287,0.855,0.484l0.014-0.011l0.6,0.587
	C14.394,2.446,14.405,3.138,13.989,3.556z"/>
</svg>
