<?xml version="1.0" encoding="utf-8"?>
<!-- Generator: Adobe Illustrator 15.0.0, SVG Export Plug-In . SVG Version: 6.00 Build 0)  -->
<!DOCTYPE svg PUBLIC "-//W3C//DTD SVG 1.1//EN" "http://www.w3.org/Graphics/SVG/1.1/DTD/svg11.dtd">
<svg version="1.1" id="Layer_1" xmlns="http://www.w3.org/2000/svg" xmlns:xlink="http://www.w3.org/1999/xlink" x="0px" y="0px"
	 width="29px" height="29px" viewBox="0 0 29 29" enable-background="new 0 0 29 29" xml:space="preserve">
<polygon fill="#62A020" points="21.734,10.983 17.76,8.148 17.76,9.989 7.706,9.989 7.706,11.918 17.76,11.918 17.76,13.759 "/>
<polygon fill="#62A020" points="21.733,17.354 11.681,17.354 11.681,15.513 7.707,18.348 11.681,21.124 11.681,19.283 
	21.733,19.283 "/>
<path fill="#62A020" d="M14.5,2C21.393,2,27,7.607,27,14.5S21.393,27,14.5,27S2,21.393,2,14.5S7.607,2,14.5,2 M14.5,0
	C6.492,0,0,6.492,0,14.5C0,22.508,6.492,29,14.5,29C22.508,29,29,22.508,29,14.5C29,6.492,22.508,0,14.5,0L14.5,0z"/>
</svg>
