<?xml version="1.0" encoding="utf-8"?>
<!-- Generator: Adobe Illustrator 15.0.0, SVG Export Plug-In . SVG Version: 6.00 Build 0)  -->
<!DOCTYPE svg PUBLIC "-//W3C//DTD SVG 1.1//EN" "http://www.w3.org/Graphics/SVG/1.1/DTD/svg11.dtd">
<svg version="1.1" id="Layer_1" xmlns="http://www.w3.org/2000/svg" xmlns:xlink="http://www.w3.org/1999/xlink" x="0px" y="0px"
	 width="15px" height="14px" viewBox="0 0 15 14" enable-background="new 0 0 15 14" xml:space="preserve">
<path fill="#FFFFFF" d="M14.522,10.551l-3.814-3.176c0.259-0.621,0.406-1.297,0.406-2.008C11.114,2.403,8.626,0,5.557,0
	C2.488,0,0,2.403,0,5.367c0,2.964,2.488,5.368,5.557,5.368c0.764,0,1.492-0.149,2.156-0.419c0.039,0.045,0.074,0.093,0.122,0.132
	l3.891,3.238c0.69,0.575,1.876,0.339,2.648-0.526C15.146,12.293,15.214,11.125,14.522,10.551z M2.333,5.367
	c0-1.72,1.443-3.113,3.224-3.113s3.224,1.394,3.224,3.113S7.338,8.481,5.557,8.481S2.333,7.086,2.333,5.367z"/>
</svg>
