<?xml version="1.0" encoding="utf-8"?>
<!-- Generator: Adobe Illustrator 15.0.0, SVG Export Plug-In . SVG Version: 6.00 Build 0)  -->
<!DOCTYPE svg PUBLIC "-//W3C//DTD SVG 1.1//EN" "http://www.w3.org/Graphics/SVG/1.1/DTD/svg11.dtd">
<svg version="1.1" id="Layer_1" xmlns="http://www.w3.org/2000/svg" xmlns:xlink="http://www.w3.org/1999/xlink" x="0px" y="0px"
	 width="30px" height="30px" viewBox="0 0 30 30" enable-background="new 0 0 30 30" xml:space="preserve">
<g>
	<path fill="#575757" d="M14.999,0C6.729,0,0,6.729,0,15.002C0,23.27,6.729,30,14.999,30C23.272,30,30,23.27,30,15.002
		C30,6.729,23.272,0,14.999,0L14.999,0z M23.649,23.268v-0.593c0-2.045-2.363-2.789-3.629-3.333
		c-0.457-0.195-1.322-0.611-2.206-1.042c-0.302-0.147-0.57-0.538-0.605-0.869l-0.098-0.969c0.679-0.632,1.289-1.511,1.394-2.489
		h0.153c0.238,0,0.466-0.18,0.501-0.401l0.241-1.484c0.03-0.315-0.268-0.507-0.51-0.507c0.006-0.033,0.013-0.065,0.015-0.092
		c0.033-0.177,0.051-0.349,0.063-0.517c0.015-0.136,0.029-0.273,0.032-0.42c0.026-0.698-0.092-1.313-0.289-1.654
		c-0.198-0.478-0.502-0.943-0.921-1.342c-1.174-1.11-2.53-1.54-3.69-0.649c-0.788-0.135-1.726,0.224-2.405,1.019
		c-0.368,0.433-0.599,0.928-0.697,1.415c-0.09,0.304-0.146,0.673-0.16,1.068c-0.018,0.445,0.026,0.85,0.109,1.178
		c-0.23,0.014-0.463,0.202-0.463,0.504l0.237,1.481c0.036,0.222,0.264,0.401,0.505,0.401h0.136c0.219,1.059,0.782,1.929,1.404,2.537
		l-0.095,0.935c-0.032,0.333-0.304,0.723-0.602,0.871c-0.857,0.418-1.701,0.82-2.206,1.029c-1.192,0.49-3.629,1.285-3.629,3.33
		v0.464c-1.986-2.14-3.213-4.995-3.213-8.137c0-6.606,5.375-11.978,11.98-11.978c6.606,0,11.979,5.371,11.979,11.978
		C26.98,18.205,25.705,21.114,23.649,23.268L23.649,23.268z M23.649,23.268"/>
</g>
</svg>
