<?xml version="1.0" encoding="utf-8"?>
<!-- Generator: Adobe Illustrator 15.0.0, SVG Export Plug-In . SVG Version: 6.00 Build 0)  -->
<!DOCTYPE svg PUBLIC "-//W3C//DTD SVG 1.1//EN" "http://www.w3.org/Graphics/SVG/1.1/DTD/svg11.dtd">
<svg version="1.1" id="Layer_1" xmlns="http://www.w3.org/2000/svg" xmlns:xlink="http://www.w3.org/1999/xlink" x="0px" y="0px"
	 width="28px" height="28px" viewBox="0 0 28 28" enable-background="new 0 0 28 28" xml:space="preserve">
<path id="Combined-shape-131" d="M14,10.217l8.628-9.278c0.968-1.04,2.597-1.101,3.634-0.133c1.043,0.969,1.102,2.595,0.142,3.638
	L17.514,14l8.884,9.553c0.967,1.042,0.908,2.669-0.135,3.639c-1.044,0.974-2.666,0.906-3.641-0.132L14,17.78L5.374,27.06
	c-0.967,1.038-2.594,1.099-3.638,0.132c-1.04-0.97-1.1-2.597-0.131-3.639L10.485,14L1.603,4.446
	c-0.97-1.042-0.909-2.668,0.131-3.638C2.775-0.159,4.407-0.1,5.372,0.942L14,10.217z"/>
</svg>
