<?xml version="1.0" encoding="utf-8"?>
<!-- Generator: Adobe Illustrator 15.0.2, SVG Export Plug-In . SVG Version: 6.00 Build 0)  -->
<!DOCTYPE svg PUBLIC "-//W3C//DTD SVG 1.1//EN" "http://www.w3.org/Graphics/SVG/1.1/DTD/svg11.dtd">
<svg version="1.1" id="Layer_1" xmlns="http://www.w3.org/2000/svg" xmlns:xlink="http://www.w3.org/1999/xlink" x="0px" y="0px"
	 width="47px" height="46.458px" viewBox="0 0 47 46.458" enable-background="new 0 0 47 46.458" xml:space="preserve">
<g>
	<path fill="#FFCB07" d="M28.417,0l2.917,4.083L28.417,6.75c0,0,12.917,3.167,12.5,16.75c0,0,1.75,10.501-12.167,17.167
		l-2.083,3.167l3.167,2.083c0,0,16.332-4.251,17.166-22.417C47,23.5,47.167,4.083,28.417,0z"/>
	<path fill="#FFCB07" d="M18.25,5.791l2.083-3.167l-3.167-2.083c0,0-16.332,4.251-17.166,22.417c0,0-0.167,19.417,18.583,23.5
		l-2.917-4.084l2.917-2.666c0,0-12.917-3.167-12.5-16.75C6.083,22.958,4.333,12.457,18.25,5.791z"/>
</g>
</svg>
