<?xml version="1.0" encoding="utf-8"?>
<!-- Generator: Adobe Illustrator 15.0.0, SVG Export Plug-In . SVG Version: 6.00 Build 0)  -->
<!DOCTYPE svg PUBLIC "-//W3C//DTD SVG 1.1//EN" "http://www.w3.org/Graphics/SVG/1.1/DTD/svg11.dtd">
<svg version="1.1" id="Layer_1" xmlns="http://www.w3.org/2000/svg" xmlns:xlink="http://www.w3.org/1999/xlink" x="0px" y="0px"
	 width="16px" height="16px" viewBox="0 0 16 16" enable-background="new 0 0 16 16" xml:space="preserve">
<path fill="#9F9F9F" d="M7.734,4.528H6.707v1.968H4.759v1.027h1.948v1.942h1.027V7.523h1.962V6.496H7.734V4.528z M15.093,12.674
	l-1.962-1.922c0.657-1.064,1.044-2.313,1.044-3.656c0-3.852-3.122-6.974-6.972-6.974c-3.852,0-6.973,3.122-6.973,6.974
	c0,3.85,3.122,6.973,6.973,6.973c1.219,0,2.365-0.315,3.362-0.865l2.288,2.283c0.777,0.619,1.908,0.49,2.525-0.286
	C15.997,14.424,15.869,13.293,15.093,12.674z M7.205,11.123c-2.227,0-4.03-1.804-4.03-4.029s1.804-4.03,4.03-4.03
	c2.224,0,4.029,1.805,4.029,4.03S9.429,11.123,7.205,11.123z"/>
</svg>
